<svg width="741" height="164" xmlns="http://www.w3.org/2000/svg" xmlns:xlink="http://www.w3.org/1999/xlink" overflow="hidden"><defs><clipPath id="clip0"><path d="M236 403 977 403 977 567 236 567Z" fill-rule="evenodd" clip-rule="evenodd"/></clipPath></defs><g clip-path="url(#clip0)" transform="translate(-236 -403)"><path d="M264 409.09C264 405.726 266.726 403 270.09 403L546.91 403C550.274 403 553 405.726 553 409.09L553 427.91C553 431.274 550.274 434 546.91 434L270.09 434C266.726 434 264 431.274 264 427.91Z" fill="#5B6D76" fill-rule="evenodd"/><text fill="#FFFFFF" font-family="Source Sans Pro,Source Sans Pro_MSFontService,sans-serif" font-weight="700" font-size="16" transform="translate(312.266 424)">:ej.ecom.io.CommConnection</text><path d="M687 461.893C687 458.638 689.638 456 692.893 456L970.107 456C973.362 456 976 458.638 976 461.893L976 480.107C976 483.362 973.362 486 970.107 486L692.893 486C689.638 486 687 483.362 687 480.107Z" fill="#EE502E" fill-rule="evenodd"/><text fill="#FFFFFF" font-family="Source Sans Pro,Source Sans Pro_MSFontService,sans-serif" font-weight="700" font-size="16" transform="translate(773.349 476)">Driver Connection</text><path d="M264 462.893C264 459.638 266.638 457 269.893 457L547.107 457C550.362 457 553 459.638 553 462.893L553 481.107C553 484.362 550.362 487 547.107 487L269.893 487C266.638 487 264 484.362 264 481.107Z" fill="#A9B1B5" fill-rule="evenodd"/><text fill="#FFFFFF" font-family="Source Sans Pro,Source Sans Pro_MSFontService,sans-serif" font-weight="700" font-size="16" transform="translate(297.182 477)">ECOM Comm Buffered Connection</text><path d="M0.0209308-1.49985 64.0276-0.606626 63.9858 2.39308-0.0209308 1.49985ZM-0.0627924 4.49956C-2.54783 4.46488-4.53424 2.42225-4.49956-0.0627924-4.46488-2.54783-2.42225-4.53424 0.0627924-4.49956 2.54783-4.46488 4.53424-2.42225 4.49956 0.0627924 4.46488 2.54783 2.42225 4.53424-0.0627924 4.49956Z" fill="#ED4B28" transform="matrix(1 0 0 -1 623.5 472.393)"/><path d="M7.5-1.49999 70.3479-1.49989 70.3479 1.5001 7.5 1.50001ZM8.99999 4.50001 0 0 9.00001-4.49999Z" fill="#A9B1B5" transform="matrix(-1 -8.74228e-08 -8.74228e-08 1 623.848 472.5)"/><path d="M1.5-3.60863e-06 1.5001 43.6399-1.49989 43.6399-1.5 3.60863e-06ZM-4.5 1.08259e-05C-4.50001-2.48527-2.48529-4.49999-1.08259e-05-4.5 2.48527-4.50001 4.49999-2.48529 4.5-1.08259e-05 4.50001 2.48527 2.48529 4.49999 1.08259e-05 4.5-2.48527 4.50001-4.49999 2.48529-4.5 1.08259e-05Z" fill="#A9B1B5" transform="matrix(1 0 0 -1 408.5 531.14)"/><path d="M833.167 486.5 833.167 531.033C833.167 531.862 832.495 532.533 831.667 532.533L415.999 532.533 415.999 529.533 831.667 529.533 830.167 531.033 830.167 486.5ZM417.5 535.533 408.5 531.033 417.5 526.533Z" fill="#ED4B28"/><path d="M408.5 434.5 408.5 457.313" stroke="#A9B1B5" stroke-width="3" stroke-linejoin="round" stroke-miterlimit="10" fill="none" fill-rule="evenodd"/><text fill="#4B5357" font-family="Source Sans Pro,Source Sans Pro_MSFontService,sans-serif" font-weight="300" font-size="13" transform="translate(506.117 499)">LLCOMM_BUFFERED_CONNECTION_impl.h<tspan x="-199.268" y="56">LLCOMM_BUFFERED_CONNECTION.h</tspan></text></g></svg>