<svg width="565" height="373" xmlns="http://www.w3.org/2000/svg" xmlns:xlink="http://www.w3.org/1999/xlink" overflow="hidden"><defs><clipPath id="clip0"><path d="M362 84 927 84 927 457 362 457Z" fill-rule="evenodd" clip-rule="evenodd"/></clipPath></defs><g clip-path="url(#clip0)" transform="translate(-362 -84)"><path d="M579.5 110.053C579.5 96.4927 590.493 85.5001 604.053 85.5001L692.947 85.5001C706.507 85.5001 717.5 96.4927 717.5 110.053L717.5 128.947C717.5 142.507 706.507 153.5 692.947 153.5L604.053 153.5C590.493 153.5 579.5 142.507 579.5 128.947Z" stroke="#CBD3D7" stroke-width="1.33333" stroke-linejoin="round" stroke-miterlimit="10" fill="#F2F2F2" fill-rule="evenodd"/><text fill="#4B5357" font-family="Source Sans Pro,Source Sans Pro_MSFontService,sans-serif" font-weight="300" font-size="14" transform="translate(608.75 107)">Application id <tspan x="3.07996" y="17">mapped to a </tspan><tspan x="7.83331" y="34">platform id</tspan></text><path d="M591 319.674C591 307.704 600.704 298 612.674 298L683.326 298C695.296 298 705 307.704 705 319.674L705 344.326C705 356.296 695.296 366 683.326 366L612.674 366C600.704 366 591 356.296 591 344.326Z" fill="#6CC24A" fill-rule="evenodd"/><text fill="#FFFFFF" font-family="Source Sans Pro,Source Sans Pro_MSFontService,sans-serif" font-weight="700" font-size="16" transform="translate(633.167 328)">Font <tspan x="-13.5" y="19">Designer</tspan></text><path d="M590 409.034C590 397.417 599.417 388 611.034 388L681.966 388C693.583 388 703 397.417 703 409.034L703 434.966C703 446.583 693.583 456 681.966 456L611.034 456C599.417 456 590 446.583 590 434.966Z" fill="#EE502E" fill-rule="evenodd"/><text fill="#FFFFFF" font-family="Source Sans Pro,Source Sans Pro_MSFontService,sans-serif" font-weight="700" font-size="16" transform="translate(631.859 418)">Font <tspan x="-13.5" y="19">Designer</tspan></text><path d="M364.5 110.053C364.5 96.4927 375.493 85.5001 389.053 85.5001L477.947 85.5001C491.507 85.5001 502.5 96.4927 502.5 110.053L502.5 128.947C502.5 142.507 491.507 153.5 477.947 153.5L389.053 153.5C375.493 153.5 364.5 142.507 364.5 128.947Z" stroke="#CBD3D7" stroke-width="1.33333" stroke-linejoin="round" stroke-miterlimit="10" fill="#F2F2F2" fill-rule="evenodd"/><text fill="#4B5357" font-family="Source Sans Pro,Source Sans Pro_MSFontService,sans-serif" font-weight="300" font-size="14" transform="translate(400.417 116)">Comm Port <tspan x="-22.1667" y="17">Identifier is com[id]</tspan></text><path d="M367.5 217.053C367.5 203.493 378.493 192.5 392.053 192.5L474.947 192.5C488.507 192.5 499.5 203.493 499.5 217.053L499.5 235.947C499.5 249.507 488.507 260.5 474.947 260.5L392.053 260.5C378.493 260.5 367.5 249.507 367.5 235.947Z" stroke="#CBD3D7" stroke-width="1.33333" stroke-linejoin="round" stroke-miterlimit="10" fill="#F2F2F2" fill-rule="evenodd"/><text fill="#4B5357" font-family="Source Sans Pro,Source Sans Pro_MSFontService,sans-serif" font-weight="300" font-size="14" transform="translate(384.667 231)">Open from name</text><path d="M794.5 110.053C794.5 96.4927 805.493 85.5001 819.053 85.5001L901.947 85.5001C915.507 85.5001 926.5 96.4927 926.5 110.053L926.5 128.947C926.5 142.507 915.507 153.5 901.947 153.5L819.053 153.5C805.493 153.5 794.5 142.507 794.5 128.947Z" stroke="#CBD3D7" stroke-width="1.33333" stroke-linejoin="round" stroke-miterlimit="10" fill="#F2F2F2" fill-rule="evenodd"/><text fill="#4B5357" font-family="Source Sans Pro,Source Sans Pro_MSFontService,sans-serif" font-weight="300" font-size="14" transform="translate(829.391 116)">Open from <tspan x="-0.333374" y="17">mapped id</tspan></text><path d="M582.5 217.053C582.5 203.493 593.493 192.5 607.053 192.5L689.947 192.5C703.507 192.5 714.5 203.493 714.5 217.053L714.5 235.947C714.5 249.507 703.507 260.5 689.947 260.5L607.053 260.5C593.493 260.5 582.5 249.507 582.5 235.947Z" stroke="#CBD3D7" stroke-width="1.33333" stroke-linejoin="round" stroke-miterlimit="10" fill="#F2F2F2" fill-rule="evenodd"/><text fill="#4B5357" font-family="Source Sans Pro,Source Sans Pro_MSFontService,sans-serif" font-weight="300" font-size="14" transform="translate(610.667 231)">Open from id</text><path d="M502.5 118 571.96 118 571.96 121 502.5 121ZM570.46 115 579.46 119.5 570.46 124Z" fill="#A9B1B5"/><path d="M717.5 118 786.96 118 786.96 121 717.5 121ZM785.46 115 794.46 119.5 785.46 124Z" fill="#A9B1B5"/><path d="M1.5-4.08331e-06 1.50008 31.0668-1.49992 31.0668-1.5 4.08331e-06ZM4.50008 29.5668 0.000104987 38.5668-4.49992 29.5668Z" fill="#A9B1B5" transform="matrix(-1 -8.74228e-08 -8.74228e-08 1 433.5 153.5)"/><path d="M1.5-4.08331e-06 1.50008 31.0668-1.49992 31.0668-1.5 4.08331e-06ZM4.50008 29.5668 0.000104987 38.5668-4.49992 29.5668Z" fill="#A9B1B5" transform="matrix(-1 -8.74228e-08 -8.74228e-08 1 648.5 153.5)"/><path d="M650 260.5 650 290.957 647 290.957 647 260.5ZM653 289.457 648.5 298.457 644 289.457Z" fill="#A9B1B5"/><path d="M1.88575e-06-1.5 76.0107-1.4999 76.0107 1.5001-1.88575e-06 1.5ZM74.5107-4.49991 83.5107 0.000104987 74.5107 4.50009Z" fill="#A9B1B5" transform="matrix(-1 -8.74228e-08 -8.74228e-08 1 583.011 226.5)"/><path d="M0-1.5 71.9731-1.5C72.8015-1.5 73.4731-0.828427 73.4731 0L73.4731 150.974 70.4731 150.974 70.4731 0 71.9731 1.5 0 1.5ZM76.4731 149.474 71.9731 158.474 67.4731 149.474Z" fill="#A9B1B5" transform="matrix(-4.37114e-08 1 1 4.37114e-08 433.5 260.5)"/><path d="M0-1.5 161.965-1.5C162.794-1.5 163.465-0.828427 163.465 0L163.465 149.667 160.465 149.667 160.465 0 161.965 1.5 0 1.5ZM166.465 148.167 161.965 157.167 157.465 148.167Z" fill="#A9B1B5" transform="matrix(-4.37114e-08 1 1 4.37114e-08 433.5 260.5)"/><path d="M861.506 153.5 861.506 422.064C861.506 422.892 860.834 423.564 860.006 423.564L711 423.564 711 420.564 860.006 420.564 858.506 422.064 858.506 153.5ZM712.5 426.564 703.5 422.064 712.5 417.564Z" fill="#A9B1B5"/><path d="M862.199 153.5 862.199 332.071C862.199 332.9 861.527 333.571 860.699 333.571L713 333.571 713 330.571 860.699 330.571 859.199 332.071 859.199 153.5ZM714.5 336.571 705.5 332.071 714.5 327.571Z" fill="#A9B1B5"/><text fill="#4B5357" font-family="Source Sans Pro,Source Sans Pro_MSFontService,sans-serif" font-weight="300" font-size="16" transform="translate(529.833 110)">yes<tspan x="215.167" y="0">yes</tspan><tspan x="-5.00012" y="107">error</tspan><tspan x="-32.6964" y="303">error</tspan><tspan x="236.222" y="302">error</tspan><tspan x="227.459" y="213">success</tspan><tspan x="-42.3468" y="213">success</tspan><tspan x="132.147" y="68">no</tspan><tspan x="-85.0103" y="68">no</tspan><tspan x="130.339" y="174">success</tspan></text></g></svg>