<svg width="676" height="396" xmlns="http://www.w3.org/2000/svg" xmlns:xlink="http://www.w3.org/1999/xlink" overflow="hidden"><defs><clipPath id="clip0"><path d="M251 120 927 120 927 516 251 516Z" fill-rule="evenodd" clip-rule="evenodd"/></clipPath></defs><g clip-path="url(#clip0)" transform="translate(-251 -120)"><path d="M7.64494 0.235174 125.53 27.6069 124.851 30.5292 6.96642 3.15744ZM7.749 6.41895 0 0 9.78456-2.34783Z" fill="#A9B1B5" transform="matrix(1 0 0 -1 591.5 226.568)"/><path d="M833.045 226.044 716.161 198.961 716.839 196.039 833.722 223.121ZM832.938 219.86 840.69 226.276 830.907 228.628Z" fill="#A9B1B5"/><path d="M252 136.733C252 128.596 258.596 122 266.733 122L380.267 122C388.404 122 395 128.596 395 136.733L395 182.267C395 190.404 388.404 197 380.267 197L266.733 197C258.596 197 252 190.404 252 182.267Z" fill="#5B6D76" fill-rule="evenodd"/><text fill="#FFFFFF" font-family="Source Sans Pro,Source Sans Pro_MSFontService,sans-serif" font-weight="700" font-size="16" transform="translate(285.903 155)">Connection <tspan x="18.2467" y="19">String</tspan></text><path d="M644 135.929C644 127.684 650.684 121 658.929 121L773.071 121C781.316 121 788 127.684 788 135.929L788 182.071C788 190.316 781.316 197 773.071 197L658.929 197C650.684 197 644 190.316 644 182.071Z" fill="#5B6D76" fill-rule="evenodd"/><text fill="#FFFFFF" font-family="Source Sans Pro,Source Sans Pro_MSFontService,sans-serif" font-weight="700" font-size="16" transform="translate(678.524 164)">Connection</text><path d="M519 346.929C519 338.684 525.684 332 533.929 332L647.071 332C655.316 332 662 338.684 662 346.929L662 393.071C662 401.316 655.316 408 647.071 408L533.929 408C525.684 408 519 401.316 519 393.071Z" fill="#5B6D76" fill-rule="evenodd"/><text fill="#FFFFFF" font-family="Source Sans Pro,Source Sans Pro_MSFontService,sans-serif" font-weight="700" font-size="16" transform="translate(549.816 375)">InputStream</text><path d="M435.5 139.054C435.5 131.569 441.569 125.5 449.054 125.5L591.946 125.5C599.432 125.5 605.5 131.569 605.5 139.054L605.5 180.946C605.5 188.432 599.432 194.5 591.946 194.5L449.054 194.5C441.569 194.5 435.5 188.432 435.5 180.946Z" stroke="#CBD3D7" stroke-width="1.33333" stroke-linejoin="round" stroke-miterlimit="10" fill="#F2F2F2" fill-rule="evenodd"/><text fill="#4B5357" font-family="Source Sans Pro,Source Sans Pro_MSFontService,sans-serif" font-weight="300" font-size="15" transform="translate(477.8 147)">1. Open a new <tspan x="-20.5866" y="17">connection using the </tspan><tspan x="-10.0866" y="35">connection string</tspan></text><path d="M506.5 241.233C506.5 233.096 513.096 226.5 521.233 226.5L661.767 226.5C669.904 226.5 676.5 233.096 676.5 241.233L676.5 286.767C676.5 294.904 669.904 301.5 661.767 301.5L521.233 301.5C513.096 301.5 506.5 294.904 506.5 286.767Z" stroke="#CBD3D7" stroke-width="1.33333" stroke-linejoin="round" stroke-miterlimit="10" fill="#F2F2F2" fill-rule="evenodd"/><text fill="#4B5357" font-family="Source Sans Pro,Source Sans Pro_MSFontService,sans-serif" font-weight="300" font-size="15" transform="translate(531.666 251)">2. Open a new input <tspan x="18" y="17">stream on the </tspan><tspan x="25.4133" y="35">connection</tspan></text><path d="M755.5 240.43C755.5 232.184 762.184 225.5 770.43 225.5L910.571 225.5C918.816 225.5 925.5 232.184 925.5 240.43L925.5 286.571C925.5 294.816 918.816 301.5 910.571 301.5L770.43 301.5C762.184 301.5 755.5 294.816 755.5 286.571Z" stroke="#CBD3D7" stroke-width="1.33333" stroke-linejoin="round" stroke-miterlimit="10" fill="#F2F2F2" fill-rule="evenodd"/><text fill="#4B5357" font-family="Source Sans Pro,Source Sans Pro_MSFontService,sans-serif" font-weight="300" font-size="15" transform="translate(776.547 251)">4. Open a new output <tspan x="22.5" y="17">stream on the </tspan><tspan x="29.9133" y="35">connection</tspan></text><path d="M7.50806-1.45909 39.5027-1.28465 39.4863 1.71531 7.4917 1.54087ZM8.97533 4.549 0 0 9.0244-4.45086Z" fill="#A9B1B5" transform="matrix(-1 -8.74228e-08 -8.74228e-08 1 434.995 159.5)"/><path d="M7.52137-1.38882 39.5167-0.915164 39.4723 2.08451 7.47696 1.61085ZM8.9324 4.63273 0 0 9.06562-4.36629Z" fill="#A9B1B5" transform="matrix(-1 -8.74228e-08 -8.74228e-08 1 644.995 159.5)"/><path d="M769 346.929C769 338.684 775.684 332 783.929 332L897.071 332C905.316 332 912 338.684 912 346.929L912 393.071C912 401.316 905.316 408 897.071 408L783.929 408C775.684 408 769 401.316 769 393.071Z" fill="#5B6D76" fill-rule="evenodd"/><text fill="#FFFFFF" font-family="Source Sans Pro,Source Sans Pro_MSFontService,sans-serif" font-weight="700" font-size="16" transform="translate(793.631 375)">OutputStream</text><path d="M505.5 454.233C505.5 446.096 512.096 439.5 520.233 439.5L661.767 439.5C669.904 439.5 676.5 446.096 676.5 454.233L676.5 499.767C676.5 507.904 669.904 514.5 661.767 514.5L520.233 514.5C512.096 514.5 505.5 507.904 505.5 499.767Z" stroke="#CBD3D7" stroke-width="1.33333" stroke-linejoin="round" stroke-miterlimit="10" fill="#F2F2F2" fill-rule="evenodd"/><text fill="#4B5357" font-family="Source Sans Pro,Source Sans Pro_MSFontService,sans-serif" font-weight="300" font-size="15" transform="translate(520.4 473)">3. Read some data from <tspan x="21.08" y="17">hardware device</tspan></text><path d="M755.5 454.233C755.5 446.096 762.096 439.5 770.233 439.5L910.767 439.5C918.904 439.5 925.5 446.096 925.5 454.233L925.5 499.767C925.5 507.904 918.904 514.5 910.767 514.5L770.233 514.5C762.096 514.5 755.5 507.904 755.5 499.767Z" stroke="#CBD3D7" stroke-width="1.33333" stroke-linejoin="round" stroke-miterlimit="10" fill="#F2F2F2" fill-rule="evenodd"/><text fill="#4B5357" font-family="Source Sans Pro,Source Sans Pro_MSFontService,sans-serif" font-weight="300" font-size="15" transform="translate(777.631 473)">5. Write some data to <tspan x="13.5" y="17">hardware device</tspan></text><path d="M1.56478 7.48675 1.76661 30.8344-1.23328 30.8603-1.43511 7.51269ZM-4.42203 9.03856 0 0 4.57763 8.96076Z" fill="#A9B1B5" transform="matrix(1 0 0 -1 591.5 332.347)"/><path d="M1.50003 7.49999 1.5001 31.1397-1.49989 31.1397-1.49997 7.5ZM-4.49997 9.00001 0 0 4.50003 8.99998Z" fill="#A9B1B5" transform="matrix(1 0 0 -1 840.5 332.64)"/><path d="M1.50003 7.49999 1.5001 30.7909-1.49989 30.7909-1.49997 7.5ZM-4.49997 9.00002 0 0 4.50003 8.99998Z" fill="#A9B1B5" transform="matrix(1 0 0 -1 591.5 439.291)"/><path d="M1.50003 7.49999 1.5001 30.7909-1.49989 30.7909-1.49997 7.5ZM-4.49997 9.00002 0 0 4.50003 8.99998Z" fill="#A9B1B5" transform="matrix(1 0 0 -1 840.5 439.291)"/></g></svg>