<?xml version="1.0" encoding="UTF-8" standalone="no"?>
<!--
	SVG

	Copyright 2018 IS2T. All rights reserved.
	IS2T PROPRIETARY/CONFIDENTIAL. Use is subject to license terms.
-->
<svg
   xmlns:dc="http://purl.org/dc/elements/1.1/"
   xmlns:cc="http://creativecommons.org/ns#"
   xmlns:rdf="http://www.w3.org/1999/02/22-rdf-syntax-ns#"
   xmlns:svg="http://www.w3.org/2000/svg"
   xmlns="http://www.w3.org/2000/svg"
   xmlns:sodipodi="http://sodipodi.sourceforge.net/DTD/sodipodi-0.dtd"
   xmlns:inkscape="http://www.inkscape.org/namespaces/inkscape"
   version="1.2"
   width="151.30363"
   height="71.756393"
   viewBox="0 0 4270.1248 2025.1249"
   preserveAspectRatio="xMidYMid"
   xml:space="preserve"
   id="svg6574"
   inkscape:version="0.48.4 r9939"
   sodipodi:docname="font-filter-italic.svg"
   style="fill-rule:evenodd;stroke-width:28.22200012;stroke-linejoin:round"><metadata
   id="metadata6699"><rdf:RDF><cc:Work
       rdf:about=""><dc:format>image/svg+xml</dc:format><dc:type
         rdf:resource="http://purl.org/dc/dcmitype/StillImage" /></cc:Work></rdf:RDF></metadata><defs
   id="defs6697" /><sodipodi:namedview
   pagecolor="#ffffff"
   bordercolor="#666666"
   borderopacity="1"
   objecttolerance="10"
   gridtolerance="10"
   guidetolerance="10"
   inkscape:pageopacity="0"
   inkscape:pageshadow="2"
   inkscape:window-width="640"
   inkscape:window-height="480"
   id="namedview6695"
   showgrid="false"
   fit-margin-top="0"
   fit-margin-left="0"
   fit-margin-right="0"
   fit-margin-bottom="0"
   inkscape:zoom="1"
   inkscape:cx="70.906002"
   inkscape:cy="39.047243"
   inkscape:window-x="733"
   inkscape:window-y="369"
   inkscape:window-maximized="0"
   inkscape:current-layer="svg6574" />
 <g
   visibility="visible"
   id="MasterSlide_1_Default"
   style="visibility:visible"
   transform="translate(-8498.8751,-13926.875)">
  <desc
   id="desc6577">Master slide
  </desc>
  <rect
   x="0"
   y="0"
   width="21000"
   height="29700"
   id="rect6579"
   style="fill:none;stroke:none" />
 </g>
 <g
   visibility="visible"
   id="Slide_1_page1"
   style="visibility:visible"
   transform="translate(-8498.8751,-13926.875)">
  <g
   id="Drawing_1">
   <rect
   x="8524"
   y="13930"
   width="4245"
   height="2022"
   id="rect6583"
   style="fill:none;stroke:none" />
   <path
   d="m 9125,14327 600,0 0,198 -600,0 0,-198 z"
   id="path6585"
   inkscape:connector-curvature="0"
   style="fill:#808080;stroke:none" />
   <path
   d="m 11525,14327 600,0 0,198 -600,0 0,-198 z"
   id="path6587"
   inkscape:connector-curvature="0"
   style="fill:#808080;stroke:none" />
   <path
   d="m 8925,14525 200,0 0,198 -200,0 0,-198 z"
   id="path6589"
   inkscape:connector-curvature="0"
   style="fill:#808080;stroke:none" />
   <path
   d="m 9725,14525 200,0 0,198 -200,0 0,-198 z"
   id="path6591"
   inkscape:connector-curvature="0"
   style="fill:#808080;stroke:none" />
   <path
   d="m 11325,14525 200,0 0,198 -200,0 0,-198 z"
   id="path6593"
   inkscape:connector-curvature="0"
   style="fill:#808080;stroke:none" />
   <path
   d="m 12125,14525 200,0 0,198 -200,0 0,-198 z"
   id="path6595"
   inkscape:connector-curvature="0"
   style="fill:#808080;stroke:none" />
   <path
   d="m 8925,14723 200,0 0,198 -200,0 0,-198 z"
   id="path6597"
   inkscape:connector-curvature="0"
   style="fill:#808080;stroke:none" />
   <path
   d="m 9725,14723 200,0 0,198 -200,0 0,-198 z"
   id="path6599"
   inkscape:connector-curvature="0"
   style="fill:#808080;stroke:none" />
   <path
   d="m 11125,14723 200,0 0,198 -200,0 0,-198 z"
   id="path6601"
   inkscape:connector-curvature="0"
   style="fill:#808080;stroke:none" />
   <path
   d="m 11925,14723 200,0 0,198 -200,0 0,-198 z"
   id="path6603"
   inkscape:connector-curvature="0"
   style="fill:#808080;stroke:none" />
   <path
   d="m 9125,14921 600,0 0,198 -600,0 0,-198 z"
   id="path6605"
   inkscape:connector-curvature="0"
   style="fill:#808080;stroke:none" />
   <path
   d="m 11325,14921 600,0 0,198 -600,0 0,-198 z"
   id="path6607"
   inkscape:connector-curvature="0"
   style="fill:#808080;stroke:none" />
   <path
   d="m 8925,15119 200,0 0,198 -200,0 0,-198 z"
   id="path6609"
   inkscape:connector-curvature="0"
   style="fill:#808080;stroke:none" />
   <path
   d="m 9725,15119 200,0 0,198 -200,0 0,-198 z"
   id="path6611"
   inkscape:connector-curvature="0"
   style="fill:#808080;stroke:none" />
   <path
   d="m 11125,15119 200,0 0,198 -200,0 0,-198 z"
   id="path6613"
   inkscape:connector-curvature="0"
   style="fill:#808080;stroke:none" />
   <path
   d="m 11925,15119 200,0 0,198 -200,0 0,-198 z"
   id="path6615"
   inkscape:connector-curvature="0"
   style="fill:#808080;stroke:none" />
   <path
   d="m 8925,15317 200,0 0,198 -200,0 0,-198 z"
   id="path6617"
   inkscape:connector-curvature="0"
   style="fill:#808080;stroke:none" />
   <path
   d="m 9725,15317 200,0 0,198 -200,0 0,-198 z"
   id="path6619"
   inkscape:connector-curvature="0"
   style="fill:#808080;stroke:none" />
   <path
   d="m 10925,15317 200,0 0,198 -200,0 0,-198 z"
   id="path6621"
   inkscape:connector-curvature="0"
   style="fill:#808080;stroke:none" />
   <path
   d="m 11725,15317 200,0 0,198 -200,0 0,-198 z"
   id="path6623"
   inkscape:connector-curvature="0"
   style="fill:#808080;stroke:none" />
   <path
   d="m 9125,15515 600,0 0,198 -600,0 0,-198 z"
   id="path6625"
   inkscape:connector-curvature="0"
   style="fill:#808080;stroke:none" />
   <path
   d="m 11125,15515 600,0 0,198 -600,0 0,-198 z"
   id="path6627"
   inkscape:connector-curvature="0"
   style="fill:#808080;stroke:none" />
   <path
   d="m 8513,13941 4207,0"
   id="path6629"
   inkscape:connector-curvature="0"
   style="fill:none;stroke:#b3b3b3" />
   <path
   d="m 8514,14126 4206,0"
   id="path6631"
   inkscape:connector-curvature="0"
   style="fill:none;stroke:#b3b3b3" />
   <path
   d="m 8514,14337 4206,0"
   id="path6633"
   inkscape:connector-curvature="0"
   style="fill:none;stroke:#b3b3b3" />
   <path
   d="m 8514,14523 4206,0"
   id="path6635"
   inkscape:connector-curvature="0"
   style="fill:none;stroke:#b3b3b3" />
   <path
   d="m 8514,14734 4206,0"
   id="path6637"
   inkscape:connector-curvature="0"
   style="fill:none;stroke:#b3b3b3" />
   <path
   d="m 8514,14920 4206,0"
   id="path6639"
   inkscape:connector-curvature="0"
   style="fill:none;stroke:#b3b3b3" />
   <path
   d="m 8514,15131 4206,0"
   id="path6641"
   inkscape:connector-curvature="0"
   style="fill:none;stroke:#b3b3b3" />
   <path
   d="m 8514,15316 4206,0"
   id="path6643"
   inkscape:connector-curvature="0"
   style="fill:none;stroke:#b3b3b3" />
   <path
   d="m 8514,15502 4206,0"
   id="path6645"
   inkscape:connector-curvature="0"
   style="fill:none;stroke:#b3b3b3" />
   <path
   d="m 8514,15697 4206,0 0,33 -4206,0 0,-33 z"
   id="path6647"
   inkscape:connector-curvature="0"
   style="fill:#000000;stroke:#000000" />
   <path
   d="m 8514,15899 4206,0"
   id="path6649"
   inkscape:connector-curvature="0"
   style="fill:none;stroke:#b3b3b3" />
   <path
   d="m 8513,13941 0,1958"
   id="path6651"
   inkscape:connector-curvature="0"
   style="fill:none;stroke:#b3b3b3" />
   <path
   d="m 8725,13942 0,1957"
   id="path6653"
   inkscape:connector-curvature="0"
   style="fill:none;stroke:#b3b3b3" />
   <path
   d="m 8937,13942 0,1957"
   id="path6655"
   inkscape:connector-curvature="0"
   style="fill:none;stroke:#b3b3b3" />
   <path
   d="m 9122,13942 0,1957"
   id="path6657"
   inkscape:connector-curvature="0"
   style="fill:none;stroke:#b3b3b3" />
   <path
   d="m 9334,13942 0,1957"
   id="path6659"
   inkscape:connector-curvature="0"
   style="fill:none;stroke:#b3b3b3" />
   <path
   d="m 9519,13942 0,1957"
   id="path6661"
   inkscape:connector-curvature="0"
   style="fill:none;stroke:#b3b3b3" />
   <path
   d="m 9730,13942 0,1957"
   id="path6663"
   inkscape:connector-curvature="0"
   style="fill:none;stroke:#b3b3b3" />
   <path
   d="m 9916,13942 0,1957"
   id="path6665"
   inkscape:connector-curvature="0"
   style="fill:none;stroke:#b3b3b3" />
   <path
   d="m 10127,13942 0,1957"
   id="path6667"
   inkscape:connector-curvature="0"
   style="fill:none;stroke:#b3b3b3" />
   <path
   d="m 10313,13942 0,1957"
   id="path6669"
   inkscape:connector-curvature="0"
   style="fill:none;stroke:#b3b3b3" />
   <path
   d="m 10524,13942 0,1957"
   id="path6671"
   inkscape:connector-curvature="0"
   style="fill:none;stroke:#b3b3b3" />
   <path
   d="m 10736,13942 0,1957"
   id="path6673"
   inkscape:connector-curvature="0"
   style="fill:none;stroke:#b3b3b3" />
   <path
   d="m 10921,13942 0,1957"
   id="path6675"
   inkscape:connector-curvature="0"
   style="fill:none;stroke:#b3b3b3" />
   <path
   d="m 11133,13942 0,1957"
   id="path6677"
   inkscape:connector-curvature="0"
   style="fill:none;stroke:#b3b3b3" />
   <path
   d="m 11318,13942 0,1957"
   id="path6679"
   inkscape:connector-curvature="0"
   style="fill:none;stroke:#b3b3b3" />
   <path
   d="m 11530,13942 0,1957"
   id="path6681"
   inkscape:connector-curvature="0"
   style="fill:none;stroke:#b3b3b3" />
   <path
   d="m 11715,13942 0,1957"
   id="path6683"
   inkscape:connector-curvature="0"
   style="fill:none;stroke:#b3b3b3" />
   <path
   d="m 11927,13942 0,1957"
   id="path6685"
   inkscape:connector-curvature="0"
   style="fill:none;stroke:#b3b3b3" />
   <path
   d="m 12112,13942 0,1957"
   id="path6687"
   inkscape:connector-curvature="0"
   style="fill:none;stroke:#b3b3b3" />
   <path
   d="m 12323,13942 0,1957"
   id="path6689"
   inkscape:connector-curvature="0"
   style="fill:none;stroke:#b3b3b3" />
   <path
   d="m 12535,13942 0,1957"
   id="path6691"
   inkscape:connector-curvature="0"
   style="fill:none;stroke:#b3b3b3" />
   <path
   d="m 12720,13942 0,1957"
   id="path6693"
   inkscape:connector-curvature="0"
   style="fill:none;stroke:#b3b3b3" />
  </g>
 </g>
</svg>
