<svg width="562" height="122" xmlns="http://www.w3.org/2000/svg" xmlns:xlink="http://www.w3.org/1999/xlink" overflow="hidden"><defs><clipPath id="clip0"><path d="M257 140 819 140 819 262 257 262Z" fill-rule="evenodd" clip-rule="evenodd"/></clipPath></defs><g clip-path="url(#clip0)" transform="translate(-257 -140)"><path d="M571 153.717C571 150.559 573.559 148 576.717 148L813.283 148C816.441 148 819 150.559 819 153.717L819 255.283C819 258.441 816.441 261 813.283 261L576.717 261C573.559 261 571 258.441 571 255.283Z" fill="#F2F2F2" fill-rule="evenodd"/><path d="M270 153.717C270 150.559 272.559 148 275.717 148L442.283 148C445.441 148 448 150.559 448 153.717L448 255.283C448 258.441 445.441 261 442.283 261L275.717 261C272.559 261 270 258.441 270 255.283Z" fill="#F2F2F2" fill-rule="evenodd"/><text fill="#4B5357" font-family="Source Sans Pro,Source Sans Pro_MSFontService,sans-serif" font-weight="300" font-size="15" transform="translate(281.153 246)">(Windows / Linux process)<tspan font-weight="700" font-size="16" x="16.7176" y="-72">Simulator Runtime</tspan><tspan font-weight="700" font-size="16" x="10.1376" y="-53">MicroEJ</tspan><tspan font-weight="700" font-size="16" x="64.8043" y="-53">Applications</tspan><tspan font-weight="700" font-size="16" x="49.8043" y="-34">Libraries</tspan><tspan font-weight="700" font-size="16" x="378.593" y="-72">HIL Engine</tspan></text><path d="M0 0 105.326 0.000104987" stroke="#EE502E" stroke-width="3" stroke-linejoin="round" stroke-miterlimit="10" fill="none" fill-rule="evenodd" transform="matrix(-1 -8.74228e-08 -8.74228e-08 1 561.826 165.5)"/><path d="M506.453 143.522 512.037 150.5 506.455 157.48C506.283 157.696 505.968 157.731 505.753 157.558 505.537 157.386 505.502 157.071 505.674 156.856L511.006 150.188 511.006 150.813 505.672 144.147C505.499 143.931 505.534 143.617 505.75 143.444 505.965 143.272 506.28 143.306 506.453 143.522Z" fill="#ED4B28"/><path d="M6.97818-4.95698 0.000105059 0.627399-6.97984-4.95464C-7.1955-5.12711-7.23052-5.44175-7.05805-5.65741-6.88558-5.87307-6.57094-5.90809-6.35528-5.73562L0.31228-0.4034-0.312415-0.403295 6.35336-5.73775C6.56896-5.91029 6.88361-5.87538 7.05615-5.65978 7.22869-5.44417 7.19379-5.12952 6.97818-4.95698Z" fill="#ED4B28" transform="matrix(-4.37114e-08 -1 -1 4.37114e-08 506.127 178.5)"/><text fill="#EE502E" font-family="Source Sans Pro,Source Sans Pro_MSFontService,sans-serif" font-weight="300" transform="translate(478.114 196)">Socket based</text><path d="M582 193.875C582 190.078 585.078 187 588.875 187L643.125 187C646.922 187 650 190.078 650 193.875L650 215.125C650 218.922 646.922 222 643.125 222L588.875 222C585.078 222 582 218.922 582 215.125Z" fill="#EE502E" fill-rule="evenodd"/><text fill="#FFFFFF" font-family="Source Sans Pro,Source Sans Pro_MSFontService,sans-serif" font-weight="700" font-size="15" transform="translate(595.201 210)">Mock 1</text><path d="M661 193.875C661 190.078 664.078 187 667.875 187L722.125 187C725.922 187 729 190.078 729 193.875L729 215.125C729 218.922 725.922 222 722.125 222L667.875 222C664.078 222 661 218.922 661 215.125Z" fill="#EE502E" fill-rule="evenodd"/><text fill="#FFFFFF" font-family="Source Sans Pro,Source Sans Pro_MSFontService,sans-serif" font-weight="700" font-size="15" transform="translate(674.006 210)">Mock 2</text><path d="M739 193.875C739 190.078 742.078 187 745.875 187L800.125 187C803.922 187 807 190.078 807 193.875L807 215.125C807 218.922 803.922 222 800.125 222L745.875 222C742.078 222 739 218.922 739 215.125Z" fill="#EE502E" fill-rule="evenodd"/><text fill="#FFFFFF" font-family="Source Sans Pro,Source Sans Pro_MSFontService,sans-serif" font-weight="700" font-size="15" transform="translate(751.135 210)">Mock N<tspan fill="#4B5357" font-weight="300" x="-134.306" y="36">(Windows / Linux process)</tspan></text><path d="M0 0 66.5 0 66.5 0 84 17.5 66.5 35 66.5 35 0 35Z" fill="#CBD3D7" fill-rule="evenodd" transform="matrix(-1 -8.74228e-08 -8.74228e-08 1 532 205)"/><path d="M466 205 553.5 205 553.5 205 571 222.5 553.5 240 553.5 240 466 240Z" fill="#CBD3D7" fill-rule="evenodd"/><text fill="#4B5357" font-family="Source Sans Pro,Source Sans Pro_MSFontService,sans-serif" font-weight="400" font-size="17" transform="translate(485.035 228)">HIL API</text></g></svg>