<svg width="494" height="290" xmlns="http://www.w3.org/2000/svg" xmlns:xlink="http://www.w3.org/1999/xlink" overflow="hidden"><defs><clipPath id="clip0"><path d="M264 147 758 147 758 437 264 437Z" fill-rule="evenodd" clip-rule="evenodd"/></clipPath></defs><g clip-path="url(#clip0)" transform="translate(-264 -147)"><path d="M571 156.6C571 151.85 574.85 148 579.6 148L732.4 148C737.149 148 741 151.85 741 156.6L741 427.4C741 432.149 737.149 436 732.4 436L579.6 436C574.85 436 571 432.149 571 427.4Z" fill="#F2F2F2" fill-rule="evenodd"/><path d="M275 156.752C275 151.918 278.918 148 283.752 148L439.248 148C444.082 148 448 151.918 448 156.752L448 427.248C448 432.082 444.082 436 439.248 436L283.752 436C278.918 436 275 432.082 275 427.248Z" fill="#F2F2F2" fill-rule="evenodd"/><rect x="387" y="192" width="30" height="227" fill="#EE502E"/><rect x="598" y="249" width="31" height="111" fill="#EE502E"/><rect x="387.5" y="249.5" width="30" height="111" stroke="#CBD3D7" stroke-width="1.33333" stroke-linejoin="round" stroke-miterlimit="10" fill="#F2F2F2"/><path d="M1.50001 7.5 1.5001 57.0969-1.49989 57.0969-1.49999 7.5ZM-4.49998 9.00001 0 0 4.50002 8.99999Z" fill="#A9B1B5" transform="matrix(1 0 0 -1 402.5 249.597)"/><path d="M1.50001 7.5 1.5001 58.6186-1.49989 58.6186-1.49999 7.5ZM-4.49998 9.00001 0 0 4.50002 8.99999Z" fill="#A9B1B5" transform="matrix(1 0 0 -1 402.5 419.119)"/><path d="M1.50001 7.50002 1.5001 111.238-1.49989 111.238-1.49999 7.50002ZM-4.49999 9 0 0 4.50001 9Z" fill="#A9B1B5" transform="matrix(1 0 0 -1 614.5 360.738)"/><path d="M7.49996-1.5 211.971-1.49989 211.971 1.5001 7.49995 1.5ZM9 4.5 0 0 9-4.5Z" fill="#A9B1B5" transform="matrix(-1 -8.74228e-08 -8.74228e-08 1 614.471 249.5)"/><path d="M410 359 614.471 359 614.471 362 410 362ZM411.5 365 402.5 360.5 411.5 356Z" fill="#A9B1B5"/><text fill="#4B5357" font-family="Source Sans Pro,Source Sans Pro_MSFontService,sans-serif" font-weight="300" font-size="16" transform="translate(297.51 294)">Java<tspan x="34" y="0">code</tspan><tspan x="0" y="19">execution</tspan><tspan font-weight="700" x="44.2" y="-119">SimJPF</tspan><tspan font-weight="700" x="323.903" y="-119">HIL Engine</tspan><tspan x="350.546" y="-13">Mock</tspan><tspan x="350.546" y="6">executing</tspan><tspan x="350.546" y="25">foo()</tspan><tspan x="350.546" y="45">method</tspan><tspan font-style="italic" font-size="15" x="169.947" y="-54">foo() to execute</tspan><tspan font-style="italic" font-size="15" x="163.398" y="84">Result from f</tspan><tspan font-style="italic" font-size="15" x="235.898" y="84">oo</tspan><tspan font-style="italic" font-size="15" x="250.565" y="84">()</tspan></text><path d="M0 0 105.326 0.000104987" stroke="#EE502E" stroke-width="3" stroke-linejoin="round" stroke-miterlimit="10" fill="none" fill-rule="evenodd" transform="matrix(-1 -8.74228e-08 -8.74228e-08 1 561.826 172.5)"/><path d="M506.453 151.522 512.037 158.5 506.455 165.48C506.283 165.696 505.968 165.731 505.753 165.558 505.537 165.386 505.502 165.071 505.674 164.856L511.006 158.188 511.006 158.813 505.672 152.147C505.499 151.931 505.534 151.617 505.75 151.444 505.965 151.272 506.28 151.306 506.453 151.522Z" fill="#ED4B28"/><path d="M6.97818-4.95698 0.000105059 0.627399-6.97984-4.95464C-7.1955-5.12711-7.23052-5.44175-7.05805-5.65741-6.88558-5.87307-6.57094-5.90809-6.35528-5.73562L0.31228-0.4034-0.312415-0.403295 6.35336-5.73775C6.56896-5.91029 6.88361-5.87538 7.05615-5.65978 7.22869-5.44417 7.19379-5.12952 6.97818-4.95698Z" fill="#ED4B28" transform="matrix(-4.37114e-08 -1 -1 4.37114e-08 506.127 185.5)"/><text fill="#EE502E" font-family="Source Sans Pro,Source Sans Pro_MSFontService,sans-serif" font-weight="300" transform="translate(478.114 203)">Socket based</text></g></svg>