<svg width="535" height="195" xmlns="http://www.w3.org/2000/svg" xmlns:xlink="http://www.w3.org/1999/xlink" overflow="hidden"><defs><clipPath id="clip0"><path d="M244 147 779 147 779 342 244 342Z" fill-rule="evenodd" clip-rule="evenodd"/></clipPath></defs><g clip-path="url(#clip0)" transform="translate(-244 -147)"><path d="M571 157.815C571 152.394 575.394 148 580.815 148L764.185 148C769.606 148 774 152.394 774 157.815L774 332.185C774 337.606 769.606 342 764.185 342L580.815 342C575.394 342 571 337.606 571 332.185Z" fill="#F2F2F2" fill-rule="evenodd"/><path d="M245 157.815C245 152.394 249.394 148 254.815 148L438.185 148C443.606 148 448 152.394 448 157.815L448 332.185C448 337.606 443.606 342 438.185 342L254.815 342C249.394 342 245 337.606 245 332.185Z" fill="#F2F2F2" fill-rule="evenodd"/><text fill="#4B5357" font-family="Source Sans Pro,Source Sans Pro_MSFontService,sans-serif" font-weight="300" font-size="19" transform="translate(271.523 267)">Array[]<tspan font-weight="700" x="46.7516" y="-90">SimJPF</tspan><tspan font-weight="700" x="360.037" y="-90">HIL Engine</tspan><tspan font-size="13" x="315.658" y="-51">NativeInterface</tspan><tspan font-size="13" x="397.825" y="-51">.</tspan><tspan font-size="13" x="400.825" y="-51">refreshContent</tspan><tspan font-size="13" x="481.825" y="-51">()</tspan></text><path d="M0 0 105.326 0.000104987" stroke="#EE502E" stroke-width="3" stroke-linejoin="round" stroke-miterlimit="10" fill="none" fill-rule="evenodd" transform="matrix(-1 -8.74228e-08 -8.74228e-08 1 561.826 172.5)"/><path d="M506.453 150.522 512.037 157.5 506.455 164.48C506.283 164.696 505.968 164.731 505.753 164.558 505.537 164.386 505.502 164.071 505.674 163.856L511.006 157.188 511.006 157.813 505.672 151.147C505.499 150.931 505.534 150.617 505.75 150.444 505.965 150.272 506.28 150.306 506.453 150.522Z" fill="#ED4B28"/><path d="M6.97818-4.95698 0.000105059 0.627399-6.97984-4.95464C-7.1955-5.12711-7.23052-5.44175-7.05805-5.65741-6.88558-5.87307-6.57094-5.90809-6.35528-5.73562L0.31228-0.4034-0.312415-0.403295 6.35336-5.73775C6.56896-5.91029 6.88361-5.87538 7.05615-5.65978 7.22869-5.44417 7.19379-5.12952 6.97818-4.95698Z" fill="#ED4B28" transform="matrix(-4.37114e-08 -1 -1 4.37114e-08 506.127 185.5)"/><text fill="#EE502E" font-family="Source Sans Pro,Source Sans Pro_MSFontService,sans-serif" font-weight="300" transform="translate(478.216 203)">Socket based</text><rect x="332.5" y="246.5" width="91" height="31" stroke="#5B6D76" stroke-width="1.33333" stroke-linejoin="round" stroke-miterlimit="10" fill="#FFFFFF"/><path d="M363.5 246.5 363.5 276.736" stroke="#5B6D76" stroke-width="1.33333" stroke-linejoin="round" stroke-miterlimit="10" fill="none" fill-rule="evenodd"/><path d="M393.5 246.5 393.5 276.736" stroke="#5B6D76" stroke-width="1.33333" stroke-linejoin="round" stroke-miterlimit="10" fill="none" fill-rule="evenodd"/><rect x="599.5" y="246.5" width="91" height="30" stroke="#5B6D76" stroke-width="1.33333" stroke-linejoin="round" stroke-miterlimit="10" fill="#FFFFFF"/><path d="M629.5 246.5 629.5 276.736" stroke="#5B6D76" stroke-width="1.33333" stroke-linejoin="round" stroke-miterlimit="10" fill="none" fill-rule="evenodd"/><path d="M599.5 246.5 599.5 276.736" stroke="#5B6D76" stroke-width="1.33333" stroke-linejoin="round" stroke-miterlimit="10" fill="none" fill-rule="evenodd"/><path d="M660.5 246.5 660.5 276.736" stroke="#5B6D76" stroke-width="1.33333" stroke-linejoin="round" stroke-miterlimit="10" fill="none" fill-rule="evenodd"/><text fill="#4B5357" font-family="Source Sans Pro,Source Sans Pro_MSFontService,sans-serif" font-weight="300" font-size="13" transform="translate(587.181 316)">NativeInterface<tspan x="82.1667" y="0">.</tspan>flushContent<tspan x="155" y="0">()</tspan></text><path d="M376.5 223 644.846 223C645.675 223 646.346 223.672 646.346 224.5L646.346 238.515 643.346 238.515 643.346 224.5 644.846 226 376.5 226ZM649.346 237.015 644.846 246.015 640.346 237.015Z" fill="#A9B1B5"/><path d="M0 0 0.000104987 21.841" stroke="#A9B1B5" stroke-width="3" stroke-linejoin="round" stroke-miterlimit="10" fill="none" fill-rule="evenodd" transform="matrix(1 0 0 -1 378.5 247.341)"/><path d="M644.589 298.006 644.5 276.5" stroke="#A9B1B5" stroke-width="3" stroke-linejoin="round" stroke-miterlimit="10" fill="none" fill-rule="evenodd"/><path d="M646.653 300.132 378.5 300.132C377.672 300.132 377 299.46 377 298.632L377 285 380 285 380 298.632 378.5 297.132 646.653 297.132ZM374 286.5 378.5 277.5 383 286.5Z" fill="#A9B1B5"/></g></svg>