<svg width="455" height="356" xmlns="http://www.w3.org/2000/svg" xmlns:xlink="http://www.w3.org/1999/xlink" overflow="hidden"><defs><clipPath id="clip0"><path d="M211 109 666 109 666 465 211 465Z" fill-rule="evenodd" clip-rule="evenodd"/></clipPath></defs><g clip-path="url(#clip0)" transform="translate(-211 -109)"><path d="M450 245.309C450 240.168 454.168 236 459.309 236L655.691 236C660.832 236 665 240.168 665 245.309L665 410.691C665 415.832 660.832 420 655.691 420L459.309 420C454.168 420 450 415.832 450 410.691Z" fill="#F2F2F2" fill-rule="evenodd"/><path d="M212 245.309C212 240.168 216.168 236 221.309 236L417.691 236C422.832 236 427 240.168 427 245.309L427 410.691C427 415.832 422.832 420 417.691 420L221.309 420C216.168 420 212 415.832 212 410.691Z" fill="#F2F2F2" fill-rule="evenodd"/><path d="M212 115.679C212 111.99 214.99 109 218.679 109L658.321 109C662.01 109 665 111.99 665 115.679L665 136.321C665 140.01 662.01 143 658.321 143L218.679 143C214.99 143 212 140.01 212 136.321Z" fill="#00AEC7" fill-rule="evenodd"/><text fill="#FFFFFF" font-family="Source Sans Pro,Source Sans Pro_MSFontService,sans-serif" font-weight="700" font-size="16" transform="translate(374.137 132)">MicroEJ<tspan x="54.6667" y="0">Application</tspan></text><path d="M212 178.679C212 174.99 214.99 172 218.679 172L658.321 172C662.01 172 665 174.99 665 178.679L665 199.321C665 203.01 662.01 206 658.321 206L218.679 206C214.99 206 212 203.01 212 199.321Z" fill="#EE502E" fill-rule="evenodd"/><text fill="#FFFFFF" font-family="Source Sans Pro,Source Sans Pro_MSFontService,sans-serif" font-weight="700" font-size="16" transform="translate(379.47 195)">Net &amp; SSL libraries</text><path d="M223 253.679C223 249.99 225.99 247 229.679 247L307.321 247C311.01 247 314 249.99 314 253.679L314 274.321C314 278.01 311.01 281 307.321 281L229.679 281C225.99 281 223 278.01 223 274.321Z" fill="#EE502E" fill-rule="evenodd"/><text fill="#FFFFFF" font-family="Source Sans Pro,Source Sans Pro_MSFontService,sans-serif" font-weight="700" font-size="16" transform="translate(257.239 269)">Net</text><path d="M325 253.679C325 249.99 327.99 247 331.679 247L409.321 247C413.01 247 416 249.99 416 253.679L416 274.321C416 278.01 413.01 281 409.321 281L331.679 281C327.99 281 325 278.01 325 274.321Z" fill="#EE502E" fill-rule="evenodd"/><text fill="#FFFFFF" font-family="Source Sans Pro,Source Sans Pro_MSFontService,sans-serif" font-weight="700" font-size="16" transform="translate(358.446 269)">SSL</text><path d="M461 253.679C461 249.99 463.99 247 467.679 247L545.321 247C549.01 247 552 249.99 552 253.679L552 274.321C552 278.01 549.01 281 545.321 281L467.679 281C463.99 281 461 278.01 461 274.321Z" fill="#EE502E" fill-rule="evenodd"/><text fill="#FFFFFF" font-family="Source Sans Pro,Source Sans Pro_MSFontService,sans-serif" font-weight="700" font-size="16" transform="translate(475.597 269)">Net mock</text><path d="M563 253.679C563 249.99 565.99 247 569.679 247L647.321 247C651.01 247 654 249.99 654 253.679L654 274.321C654 278.01 651.01 281 647.321 281L569.679 281C565.99 281 563 278.01 563 274.321Z" fill="#EE502E" fill-rule="evenodd"/><text fill="#FFFFFF" font-family="Source Sans Pro,Source Sans Pro_MSFontService,sans-serif" font-weight="700" font-size="16" transform="translate(576.847 269)">SSL mock</text><path d="M223 320.679C223 316.99 225.99 314 229.679 314L409.321 314C413.01 314 416 316.99 416 320.679L416 341.321C416 345.01 413.01 348 409.321 348L229.679 348C225.99 348 223 345.01 223 341.321Z" fill="#00AEC7" fill-rule="evenodd"/><text fill="#FFFFFF" font-family="Source Sans Pro,Source Sans Pro_MSFontService,sans-serif" font-weight="700" font-size="14" transform="translate(226.915 336)">Drivers (Board Support Package)</text><path d="M461 386.09C461 382.726 463.726 380 467.09 380L647.91 380C651.274 380 654 382.726 654 386.09L654 404.91C654 408.274 651.274 411 647.91 411L467.09 411C463.726 411 461 408.274 461 404.91Z" fill="#5B6D76" fill-rule="evenodd"/><text fill="#FFFFFF" font-family="Source Sans Pro,Source Sans Pro_MSFontService,sans-serif" font-weight="700" font-size="16" transform="translate(525.722 401)">Simulator</text><path d="M238.988 382 399.012 382 408 390.988 408 410 408 410 230 410 230 410 230 390.988Z" fill="#5B6D76" fill-rule="evenodd"/><text fill="#FFFFFF" font-family="Source Sans Pro,Source Sans Pro_MSFontService,sans-serif" font-weight="600" font-size="16" transform="translate(279.497 402)">HARDWARE</text><path d="M408 397C412.369 397 415.93 402.696 415.999 409.795" stroke="#5B6D76" stroke-width="4" stroke-linejoin="round" stroke-miterlimit="10" fill="none" fill-rule="evenodd"/><path d="M7.99999 0C12.3692-3.31015e-15 15.9302 5.69634 15.999 12.7954" stroke="#5B6D76" stroke-width="4" stroke-linejoin="round" stroke-miterlimit="10" fill="none" fill-rule="evenodd" transform="matrix(-1 -8.74228e-08 -8.74228e-08 1 239 397)"/><path d="M1.52178 7.49561 1.56209 21.3663-1.4379 21.375-1.4782 7.50433ZM-4.47383 9.01304 0 0 4.52613 8.98689ZM4.55772 19.8576 0.0838845 28.8707-4.44225 19.8838Z" fill="#A9B1B5" transform="matrix(1 0 0 -1 438.5 172.371)"/><path d="M1.50002 7.5 1.5001 40.8308-1.49989 40.8308-1.49998 7.50001ZM-4.49998 9.00001 0 0 4.50002 8.99999Z" fill="#A9B1B5" transform="matrix(1 0 0 -1 269.5 247.331)"/><path d="M370 239.831 370 206.5 373 206.5 373 239.831ZM376 238.331 371.5 247.331 367 238.331Z" fill="#A9B1B5"/><path d="M1.50002 7.49999 1.50009 33.3307-1.49991 33.3307-1.49998 7.5ZM-4.49998 9.00001 0 0 4.50002 8.99999ZM4.50008 31.8306 0.000104987 40.8307-4.49992 31.8307Z" fill="#A9B1B5" transform="matrix(1 0 0 -1 507.5 247.331)"/><path d="M1.50002 7.49999 1.50009 33.3307-1.49991 33.3307-1.49998 7.5ZM-4.49998 9.00001 0 0 4.50002 8.99999ZM4.50008 31.8306 0.000104987 40.8307-4.49992 31.8307Z" fill="#A9B1B5" transform="matrix(1 0 0 -1 609.5 247.331)"/><path d="M1.50002 7.49999 1.5001 33.4061-1.49989 33.4061-1.49998 7.5ZM-4.49997 9.00001 0 0 4.50003 8.99999Z" fill="#A9B1B5" transform="matrix(1 0 0 -1 269.5 314.906)"/><path d="M1.50002 7.49999 1.5001 33.4061-1.49989 33.4061-1.49998 7.5ZM-4.49997 9.00001 0 0 4.50003 8.99999Z" fill="#A9B1B5" transform="matrix(1 0 0 -1 371.5 314.906)"/><path d="M1.55537 7.48871 1.69588 26.5049-1.30404 26.527-1.44454 7.51088ZM-4.43338 9.033 0 0 4.56637 8.96651ZM4.68472 24.9827 0.251339 34.0157-4.31504 25.0492Z" fill="#A9B1B5" transform="matrix(1 0 0 -1 319.5 382.516)"/><path d="M1.50001 7.49999 1.5001 99.0917-1.49989 99.0917-1.49999 7.49999ZM-4.49999 9 0 0 4.50001 9Z" fill="#A9B1B5" transform="matrix(1 0 0 -1 507.5 380.592)"/><path d="M1.50001 7.49999 1.5001 99.0917-1.49989 99.0917-1.49999 7.49999ZM-4.49999 9 0 0 4.50001 9Z" fill="#A9B1B5" transform="matrix(1 0 0 -1 609.5 380.592)"/><text fill="#4B5357" font-family="Source Sans Pro,Source Sans Pro_MSFontService,sans-serif" font-weight="300" font-size="16" transform="translate(260.176 449)">Provided by user<tspan x="165.832" y="1">Provided by platform</tspan><tspan x="31.3114" y="-217">Platform</tspan><tspan x="265.629" y="-218">Simulator</tspan></text><path d="M226 444C226 436.82 231.82 431 239 431L239 431C246.18 431 252 436.82 252 444L252 445C252 452.18 246.18 458 239 458L239 458C231.82 458 226 452.18 226 445Z" fill="#00AEC7" fill-rule="evenodd"/><path d="M390 444C390 436.82 395.82 431 403 431L403 431C410.18 431 416 436.82 416 444L416 445C416 452.18 410.18 458 403 458L403 458C395.82 458 390 452.18 390 445Z" fill="#EE502E" fill-rule="evenodd"/></g></svg>