<svg width="406" height="225" xmlns="http://www.w3.org/2000/svg" xmlns:xlink="http://www.w3.org/1999/xlink" overflow="hidden"><defs><clipPath id="clip0"><path d="M380 254 786 254 786 479 380 479Z" fill-rule="evenodd" clip-rule="evenodd"/></clipPath></defs><g clip-path="url(#clip0)" transform="translate(-380 -254)"><path d="M0 0 65 0 65 73.1664 54.1664 84 0 84Z" fill="#FFFFFF" fill-rule="evenodd" transform="matrix(1 0 0 -1 392.5 340.5)"/><path d="M54.1664 84 56.3331 75.3331 65 73.1664Z" fill="#CDCDCD" fill-rule="evenodd" transform="matrix(1 0 0 -1 392.5 340.5)"/><path d="M54.1664 84 56.3331 75.3331 65 73.1664 54.1664 84 0 84 0 0 65 0 65 73.1664" stroke="#4B5357" stroke-width="2.66667" stroke-linejoin="round" stroke-miterlimit="10" fill="none" fill-rule="evenodd" transform="matrix(1 0 0 -1 392.5 340.5)"/><path d="M0 0 65 0 65 73.1664 54.1664 84 0 84Z" fill="#FFFFFF" fill-rule="evenodd" transform="matrix(1 0 0 -1 387.5 347.5)"/><path d="M54.1664 84 56.3331 75.3331 65 73.1664Z" fill="#CDCDCD" fill-rule="evenodd" transform="matrix(1 0 0 -1 387.5 347.5)"/><path d="M54.1664 84 56.3331 75.3331 65 73.1664 54.1664 84 0 84 0 0 65 0 65 73.1664" stroke="#4B5357" stroke-width="2.66667" stroke-linejoin="round" stroke-miterlimit="10" fill="none" fill-rule="evenodd" transform="matrix(1 0 0 -1 387.5 347.5)"/><path d="M0 0 65 0 65 73.1664 54.1664 84 0 84Z" fill="#FFFFFF" fill-rule="evenodd" transform="matrix(1 0 0 -1 382.5 353.5)"/><path d="M54.1664 84 56.3331 75.3331 65 73.1664Z" fill="#CDCDCD" fill-rule="evenodd" transform="matrix(1 0 0 -1 382.5 353.5)"/><path d="M54.1664 84 56.3331 75.3331 65 73.1664 54.1664 84 0 84 0 0 65 0 65 73.1664" stroke="#4B5357" stroke-width="2.66667" stroke-linejoin="round" stroke-miterlimit="10" fill="none" fill-rule="evenodd" transform="matrix(1 0 0 -1 382.5 353.5)"/><text fill="#4B5357" font-family="Source Sans Pro,Source Sans Pro_MSFontService,sans-serif" font-weight="400" font-size="17" transform="translate(391.434 323)">*.class</text><path d="M527 353.358C527 345.981 532.981 340 540.358 340L626.642 340C634.019 340 640 345.981 640 353.358L640 394.642C640 402.019 634.019 408 626.642 408L540.358 408C532.981 408 527 402.019 527 394.642Z" fill="#5B6D76" fill-rule="evenodd"/><text fill="#FFFFFF" font-family="Source Sans Pro,Source Sans Pro_MSFontService,sans-serif" font-weight="700" font-size="19" transform="translate(553.224 370)">MicroEJ<tspan x="-0.166687" y="22">Java </tspan>-<tspan x="48.3333" y="22">H</tspan></text><path d="M0 0 65 0 65 73.1664 54.1664 84 0 84Z" fill="#FFFFFF" fill-rule="evenodd" transform="matrix(1 0 0 -1 392.5 464.5)"/><path d="M54.1664 84 56.3331 75.3331 65 73.1664Z" fill="#CDCDCD" fill-rule="evenodd" transform="matrix(1 0 0 -1 392.5 464.5)"/><path d="M54.1664 84 56.3331 75.3331 65 73.1664 54.1664 84 0 84 0 0 65 0 65 73.1664" stroke="#4B5357" stroke-width="2.66667" stroke-linejoin="round" stroke-miterlimit="10" fill="none" fill-rule="evenodd" transform="matrix(1 0 0 -1 392.5 464.5)"/><path d="M0 0 65 0 65 73.1664 54.1664 84 0 84Z" fill="#FFFFFF" fill-rule="evenodd" transform="matrix(1 0 0 -1 387.5 470.5)"/><path d="M54.1664 84 56.3331 75.3331 65 73.1664Z" fill="#CDCDCD" fill-rule="evenodd" transform="matrix(1 0 0 -1 387.5 470.5)"/><path d="M54.1664 84 56.3331 75.3331 65 73.1664 54.1664 84 0 84 0 0 65 0 65 73.1664" stroke="#4B5357" stroke-width="2.66667" stroke-linejoin="round" stroke-miterlimit="10" fill="none" fill-rule="evenodd" transform="matrix(1 0 0 -1 387.5 470.5)"/><path d="M0 0 65 0 65 73.1664 54.1664 84 0 84Z" fill="#FFFFFF" fill-rule="evenodd" transform="matrix(1 0 0 -1 382.5 477.5)"/><path d="M54.1664 84 56.3331 75.3331 65 73.1664Z" fill="#CDCDCD" fill-rule="evenodd" transform="matrix(1 0 0 -1 382.5 477.5)"/><path d="M54.1664 84 56.3331 75.3331 65 73.1664 54.1664 84 0 84 0 0 65 0 65 73.1664" stroke="#4B5357" stroke-width="2.66667" stroke-linejoin="round" stroke-miterlimit="10" fill="none" fill-rule="evenodd" transform="matrix(1 0 0 -1 382.5 477.5)"/><text fill="#4B5357" font-family="Source Sans Pro,Source Sans Pro_MSFontService,sans-serif" font-weight="400" font-size="17" transform="translate(399.767 447)">*.jar</text><path d="M0 0 65 0 65 73.1664 54.1664 84 0 84Z" fill="#FFFFFF" fill-rule="evenodd" transform="matrix(1 0 0 -1 718.5 402.5)"/><path d="M54.1664 84 56.3331 75.3331 65 73.1664Z" fill="#CDCDCD" fill-rule="evenodd" transform="matrix(1 0 0 -1 718.5 402.5)"/><path d="M54.1664 84 56.3331 75.3331 65 73.1664 54.1664 84 0 84 0 0 65 0 65 73.1664" stroke="#4B5357" stroke-width="2.66667" stroke-linejoin="round" stroke-miterlimit="10" fill="none" fill-rule="evenodd" transform="matrix(1 0 0 -1 718.5 402.5)"/><path d="M0 0 65 0 65 72.1664 54.1664 83 0 83Z" fill="#FFFFFF" fill-rule="evenodd" transform="matrix(1 0 0 -1 713.5 408.5)"/><path d="M54.1664 83 56.3332 74.3332 65 72.1664Z" fill="#CDCDCD" fill-rule="evenodd" transform="matrix(1 0 0 -1 713.5 408.5)"/><path d="M54.1664 83 56.3332 74.3332 65 72.1664 54.1664 83 0 83 0 0 65 0 65 72.1664" stroke="#4B5357" stroke-width="2.66667" stroke-linejoin="round" stroke-miterlimit="10" fill="none" fill-rule="evenodd" transform="matrix(1 0 0 -1 713.5 408.5)"/><path d="M0 0 65 0 65 73.1664 54.1664 84 0 84Z" fill="#FFFFFF" fill-rule="evenodd" transform="matrix(1 0 0 -1 708.5 415.5)"/><path d="M54.1664 84 56.3331 75.3331 65 73.1664Z" fill="#CDCDCD" fill-rule="evenodd" transform="matrix(1 0 0 -1 708.5 415.5)"/><path d="M54.1664 84 56.3331 75.3331 65 73.1664 54.1664 84 0 84 0 0 65 0 65 73.1664" stroke="#4B5357" stroke-width="2.66667" stroke-linejoin="round" stroke-miterlimit="10" fill="none" fill-rule="evenodd" transform="matrix(1 0 0 -1 708.5 415.5)"/><text fill="#4B5357" font-family="Source Sans Pro,Source Sans Pro_MSFontService,sans-serif" font-weight="400" font-size="17" transform="translate(731.363 385)">*.c</text><path d="M650.5 374 691.64 374 691.64 377 650.5 377ZM690.14 371 699.14 375.5 690.14 380Z" fill="#A9B1B5"/><path d="M472.425 317.319 510.572 347.174 508.724 349.537 470.576 319.681ZM511.24 343.887 515.554 352.978 505.693 350.975Z" fill="#A9B1B5"/><path d="M0.924474-1.18125 39.0724 28.6743 37.2235 31.0368-0.924474 1.18125ZM39.7401 25.3873 44.0542 34.4779 34.1933 32.4748Z" fill="#A9B1B5" transform="matrix(1 0 0 -1 471.5 427.978)"/></g></svg>