<svg width="509" height="366" xmlns="http://www.w3.org/2000/svg" xmlns:xlink="http://www.w3.org/1999/xlink" overflow="hidden"><defs><clipPath id="clip0"><path d="M340 56 849 56 849 422 340 422Z" fill-rule="evenodd" clip-rule="evenodd"/></clipPath></defs><g clip-path="url(#clip0)" transform="translate(-340 -56)"><path d="M341 67.2193C341 61.5753 345.575 57 351.219 57L837.781 57C843.425 57 848 61.5753 848 67.2193L848 248.781C848 254.425 843.425 259 837.781 259L351.219 259C345.575 259 341 254.425 341 248.781Z" fill="#F2F2F2" fill-rule="evenodd"/><path d="M1.5-1.41852e-05 1.50045 48.0085-1.49955 48.0086-1.5 1.41852e-05ZM4.50044 46.5085 0.000524934 55.5086-4.49956 46.5086Z" fill="#A9B1B5" transform="matrix(1 0 0 -1 475.5 288.009)"/><path d="M373.5 99.5001 577.5 99.5001 577.5 210.333 555.333 232.5 373.5 232.5Z" fill="#FFFFFF" fill-rule="evenodd"/><path d="M555.333 232.5 559.766 214.766 577.5 210.333Z" fill="#CDCDCD" fill-rule="evenodd"/><path d="M555.333 232.5 559.766 214.766 577.5 210.333 555.333 232.5 373.5 232.5 373.5 99.5001 577.5 99.5001 577.5 210.333" stroke="#4B5357" stroke-width="2.66667" stroke-linejoin="round" stroke-miterlimit="10" fill="none" fill-rule="evenodd"/><text fill="#4B5357" font-family="Source Sans Pro,Source Sans Pro_MSFontService,sans-serif" font-weight="700" font-size="16" transform="translate(382.34 114)">LLXXX.h<tspan font-family="Consolas,Consolas_MSFontService,sans-serif" font-weight="400" font-size="12" x="0" y="44">void </tspan><tspan font-family="Consolas,Consolas_MSFontService,sans-serif" font-weight="400" font-size="12" x="33.3333" y="44">LLXXX_init</tspan><tspan font-family="Consolas,Consolas_MSFontService,sans-serif" font-weight="400" font-size="12" x="100" y="44">();</tspan></text><path d="M609.5 99.5001 813.5 99.5001 813.5 210.333 791.333 232.5 609.5 232.5Z" fill="#FFFFFF" fill-rule="evenodd"/><path d="M791.333 232.5 795.766 214.766 813.5 210.333Z" fill="#CDCDCD" fill-rule="evenodd"/><path d="M791.333 232.5 795.766 214.766 813.5 210.333 791.333 232.5 609.5 232.5 609.5 99.5001 813.5 99.5001 813.5 210.333" stroke="#4B5357" stroke-width="2.66667" stroke-linejoin="round" stroke-miterlimit="10" fill="none" fill-rule="evenodd"/><text fill="#4B5357" font-family="Source Sans Pro,Source Sans Pro_MSFontService,sans-serif" font-weight="700" font-size="16" transform="translate(618.575 114)">LLXXX_impl.h<tspan font-family="Consolas,Consolas_MSFontService,sans-serif" font-weight="400" font-size="12" x="0" y="44">void </tspan><tspan font-family="Consolas,Consolas_MSFontService,sans-serif" font-weight="400" font-size="12" x="33.3334" y="44">LLXXX_IMPL_init</tspan><tspan font-family="Consolas,Consolas_MSFontService,sans-serif" font-weight="400" font-size="12" x="133.333" y="44">();</tspan></text><path d="M373.5 287.5 577.5 287.5 577.5 398.333 555.333 420.5 373.5 420.5Z" fill="#FFFFFF" fill-rule="evenodd"/><path d="M555.333 420.5 559.766 402.766 577.5 398.333Z" fill="#CDCDCD" fill-rule="evenodd"/><path d="M555.333 420.5 559.766 402.766 577.5 398.333 555.333 420.5 373.5 420.5 373.5 287.5 577.5 287.5 577.5 398.333" stroke="#4B5357" stroke-width="2.66667" stroke-linejoin="round" stroke-miterlimit="10" fill="none" fill-rule="evenodd"/><text fill="#4B5357" font-family="Source Sans Pro,Source Sans Pro_MSFontService,sans-serif" font-weight="700" font-size="16" transform="translate(382.339 302)">application.c<tspan font-family="Consolas,Consolas_MSFontService,sans-serif" font-weight="400" font-size="12" x="0" y="30">#include "</tspan><tspan font-family="Consolas,Consolas_MSFontService,sans-serif" font-weight="400" font-size="12" x="66.6667" y="30">LLXXX.h</tspan><tspan font-family="Consolas,Consolas_MSFontService,sans-serif" font-weight="400" font-size="12" x="113.333" y="30">"</tspan><tspan font-family="Consolas,Consolas_MSFontService,sans-serif" font-weight="400" font-size="12" x="0" y="59">Main() {</tspan><tspan font-family="Consolas,Consolas_MSFontService,sans-serif" font-weight="400" font-size="12" x="26.6667" y="73">LLXXX_init</tspan><tspan font-family="Consolas,Consolas_MSFontService,sans-serif" font-weight="400" font-size="12" x="93.3333" y="73">();</tspan><tspan font-family="Consolas,Consolas_MSFontService,sans-serif" font-weight="400" font-size="12" x="0" y="88">}</tspan></text><path d="M609.5 287.5 813.5 287.5 813.5 398.333 791.333 420.5 609.5 420.5Z" fill="#FFFFFF" fill-rule="evenodd"/><path d="M791.333 420.5 795.766 402.766 813.5 398.333Z" fill="#CDCDCD" fill-rule="evenodd"/><path d="M791.333 420.5 795.766 402.766 813.5 398.333 791.333 420.5 609.5 420.5 609.5 287.5 813.5 287.5 813.5 398.333" stroke="#4B5357" stroke-width="2.66667" stroke-linejoin="round" stroke-miterlimit="10" fill="none" fill-rule="evenodd"/><text fill="#4B5357" font-family="Source Sans Pro,Source Sans Pro_MSFontService,sans-serif" font-weight="700" font-size="16" transform="translate(618.575 302)">MYIMPL.c<tspan font-family="Consolas,Consolas_MSFontService,sans-serif" font-weight="400" font-size="12" x="0" y="30">#include "</tspan><tspan font-family="Consolas,Consolas_MSFontService,sans-serif" font-weight="400" font-size="12" x="66.6667" y="30">LLXXX_impl.h</tspan><tspan font-family="Consolas,Consolas_MSFontService,sans-serif" font-weight="400" font-size="12" x="146.667" y="30">"</tspan><tspan font-family="Consolas,Consolas_MSFontService,sans-serif" font-weight="400" font-size="12" x="0" y="59">Void </tspan><tspan font-family="Consolas,Consolas_MSFontService,sans-serif" font-weight="400" font-size="12" x="33.3334" y="59">LLXXX_IMPL_init</tspan><tspan font-family="Consolas,Consolas_MSFontService,sans-serif" font-weight="400" font-size="12" x="133.333" y="59">() {</tspan><tspan font-family="Consolas,Consolas_MSFontService,sans-serif" font-weight="400" font-size="12" x="26.6667" y="73">// implementation code</tspan><tspan font-family="Consolas,Consolas_MSFontService,sans-serif" font-weight="400" font-size="12" x="0" y="88">}</tspan></text><path d="M710.001 288.009 710 240 713 240 713.001 288.009ZM707 241.5 711.5 232.5 716 241.5Z" fill="#A9B1B5"/><text fill="#4B5357" font-family="Source Sans Pro,Source Sans Pro_MSFontService,sans-serif" font-weight="700" font-size="19" transform="translate(542.793 85)">Low Level API</text></g></svg>