<svg width="635" height="560" xmlns="http://www.w3.org/2000/svg" xmlns:xlink="http://www.w3.org/1999/xlink" overflow="hidden"><defs><clipPath id="clip0"><path d="M171 105 806 105 806 665 171 665Z" fill-rule="evenodd" clip-rule="evenodd"/></clipPath></defs><g clip-path="url(#clip0)" transform="translate(-171 -105)"><path d="M404 349.814 404 294 407 294 407 349.814ZM401 295.5 405.5 286.5 410 295.5Z" fill="#A9B1B5"/><path d="M0 0 632.915 0.000104987" stroke="#CBD3D7" stroke-width="1.66667" stroke-linejoin="round" stroke-miterlimit="10" fill="none" fill-rule="evenodd" transform="matrix(-1 -8.74228e-08 -8.74228e-08 1 804.915 506)"/><path d="M298.5 120.858C298.5 113.481 304.481 107.5 311.858 107.5L748.142 107.5C755.52 107.5 761.5 113.481 761.5 120.858L761.5 162.142C761.5 169.52 755.52 175.5 748.142 175.5L311.858 175.5C304.481 175.5 298.5 169.52 298.5 162.142Z" stroke="#CBD3D7" stroke-width="1.33333" stroke-linejoin="round" stroke-miterlimit="10" fill="#F2F2F2" fill-rule="evenodd"/><text fill="#4B5357" font-family="Source Sans Pro,Source Sans Pro_MSFontService,sans-serif" font-weight="700" font-size="16" transform="translate(464.97 146)">MicroEJ<tspan x="54.6667" y="0">Application</tspan></text><path d="M298.5 231.858C298.5 224.481 304.481 218.5 311.858 218.5L748.142 218.5C755.52 218.5 761.5 224.481 761.5 231.858L761.5 273.142C761.5 280.52 755.52 286.5 748.142 286.5L311.858 286.5C304.481 286.5 298.5 280.52 298.5 273.142Z" stroke="#CBD3D7" stroke-width="1.33333" stroke-linejoin="round" stroke-miterlimit="10" fill="#F2F2F2" fill-rule="evenodd"/><text fill="#4B5357" font-family="Source Sans Pro,Source Sans Pro_MSFontService,sans-serif" font-weight="700" font-size="16" transform="translate(389.97 257)">Java communication library (ECOM Comm)</text><path d="M298.5 349.5 511.5 349.5 511.5 453.666 490.666 474.5 298.5 474.5Z" fill="#FFFFFF" fill-rule="evenodd"/><path d="M490.666 474.5 494.833 457.833 511.5 453.666Z" fill="#CDCDCD" fill-rule="evenodd"/><path d="M490.666 474.5 494.833 457.833 511.5 453.666 490.666 474.5 298.5 474.5 298.5 349.5 511.5 349.5 511.5 453.666" stroke="#4B5357" stroke-width="2.66667" stroke-linejoin="round" stroke-miterlimit="10" fill="none" fill-rule="evenodd"/><text fill="#4B5357" font-family="Source Sans Pro,Source Sans Pro_MSFontService,sans-serif" font-weight="700" font-size="16" transform="translate(307.673 364)">LLCOM.h<tspan font-family="Consolas,Consolas_MSFontService,sans-serif" font-weight="400" font-size="12" x="0" y="44">void </tspan><tspan font-family="Consolas,Consolas_MSFontService,sans-serif" font-weight="400" font-size="12" x="33.3333" y="44">LLCOM_dataReceived</tspan><tspan font-family="Consolas,Consolas_MSFontService,sans-serif" font-weight="400" font-size="12" x="153.333" y="44">(…);</tspan></text><path d="M298.5 538.5 511.5 538.5 511.5 642.666 490.666 663.5 298.5 663.5Z" fill="#FFFFFF" fill-rule="evenodd"/><path d="M490.666 663.5 494.833 646.833 511.5 642.666Z" fill="#CDCDCD" fill-rule="evenodd"/><path d="M490.666 663.5 494.833 646.833 511.5 642.666 490.666 663.5 298.5 663.5 298.5 538.5 511.5 538.5 511.5 642.666" stroke="#4B5357" stroke-width="2.66667" stroke-linejoin="round" stroke-miterlimit="10" fill="none" fill-rule="evenodd"/><text fill="#4B5357" font-family="Source Sans Pro,Source Sans Pro_MSFontService,sans-serif" font-weight="700" font-size="16" transform="translate(307.673 553)">driver_interrupt<tspan x="116" y="0">.</tspan><tspan x="120.833" y="0">c</tspan><tspan font-family="Consolas,Consolas_MSFontService,sans-serif" font-weight="400" font-size="12" x="0" y="30">#include "</tspan><tspan font-family="Consolas,Consolas_MSFontService,sans-serif" font-weight="400" font-size="12" x="66.6667" y="30">LLCOM.h</tspan><tspan font-family="Consolas,Consolas_MSFontService,sans-serif" font-weight="400" font-size="12" x="113.333" y="30">"</tspan><tspan font-family="Consolas,Consolas_MSFontService,sans-serif" font-weight="400" font-size="12" x="0" y="59">IRQ </tspan><tspan font-family="Consolas,Consolas_MSFontService,sans-serif" font-weight="400" font-size="12" x="26.6667" y="59">data_received</tspan><tspan font-family="Consolas,Consolas_MSFontService,sans-serif" font-weight="400" font-size="12" x="113.333" y="59">(…) {</tspan><tspan font-family="Consolas,Consolas_MSFontService,sans-serif" font-weight="400" font-size="12" x="26.6667" y="73">LLCOM_dataReceived</tspan><tspan font-family="Consolas,Consolas_MSFontService,sans-serif" font-weight="400" font-size="12" x="146.667" y="73">(…);</tspan><tspan font-family="Consolas,Consolas_MSFontService,sans-serif" font-weight="400" font-size="12" x="0" y="88">}</tspan></text><path d="M548.5 349.5 761.5 349.5 761.5 453.666 740.666 474.5 548.5 474.5Z" fill="#FFFFFF" fill-rule="evenodd"/><path d="M740.666 474.5 744.833 457.833 761.5 453.666Z" fill="#CDCDCD" fill-rule="evenodd"/><path d="M740.666 474.5 744.833 457.833 761.5 453.666 740.666 474.5 548.5 474.5 548.5 349.5 761.5 349.5 761.5 453.666" stroke="#4B5357" stroke-width="2.66667" stroke-linejoin="round" stroke-miterlimit="10" fill="none" fill-rule="evenodd"/><text fill="#4B5357" font-family="Source Sans Pro,Source Sans Pro_MSFontService,sans-serif" font-weight="700" font-size="16" transform="translate(557.273 364)">LLCOM_impl.h<tspan font-family="Consolas,Consolas_MSFontService,sans-serif" font-weight="400" font-size="12" x="0" y="44">void </tspan><tspan font-family="Consolas,Consolas_MSFontService,sans-serif" font-weight="400" font-size="12" x="33.3333" y="44">LLCOM_IMPL_sendData</tspan><tspan font-family="Consolas,Consolas_MSFontService,sans-serif" font-weight="400" font-size="12" x="160" y="44">(…);</tspan></text><path d="M548.5 538.5 761.5 538.5 761.5 642.666 740.666 663.5 548.5 663.5Z" fill="#FFFFFF" fill-rule="evenodd"/><path d="M740.666 663.5 744.833 646.833 761.5 642.666Z" fill="#CDCDCD" fill-rule="evenodd"/><path d="M740.666 663.5 744.833 646.833 761.5 642.666 740.666 663.5 548.5 663.5 548.5 538.5 761.5 538.5 761.5 642.666" stroke="#4B5357" stroke-width="2.66667" stroke-linejoin="round" stroke-miterlimit="10" fill="none" fill-rule="evenodd"/><text fill="#4B5357" font-family="Source Sans Pro,Source Sans Pro_MSFontService,sans-serif" font-weight="700" font-size="16" transform="translate(557.273 553)">driver.c<tspan font-family="Consolas,Consolas_MSFontService,sans-serif" font-weight="400" font-size="12" x="0" y="30">#include "</tspan><tspan font-family="Consolas,Consolas_MSFontService,sans-serif" font-weight="400" font-size="12" x="66.6666" y="30">LLCOM_IMPL.h</tspan><tspan font-family="Consolas,Consolas_MSFontService,sans-serif" font-weight="400" font-size="12" x="146.667" y="30">"</tspan><tspan font-family="Consolas,Consolas_MSFontService,sans-serif" font-weight="400" font-size="12" x="0" y="59">void </tspan><tspan font-family="Consolas,Consolas_MSFontService,sans-serif" font-weight="400" font-size="12" x="33.3333" y="59">LLCOM_IMPL_sendData</tspan><tspan font-family="Consolas,Consolas_MSFontService,sans-serif" font-weight="400" font-size="12" x="160" y="59">(…) {</tspan><tspan font-family="Consolas,Consolas_MSFontService,sans-serif" font-weight="400" font-size="12" x="26.6666" y="73">// implementation code</tspan><tspan font-family="Consolas,Consolas_MSFontService,sans-serif" font-weight="400" font-size="12" x="0" y="88">}</tspan></text><path d="M0 0 632.915 0.000104987" stroke="#CBD3D7" stroke-width="1.66667" stroke-linejoin="round" stroke-miterlimit="10" fill="none" fill-rule="evenodd" transform="matrix(-1 -8.74228e-08 -8.74228e-08 1 804.915 318)"/><path d="M656 286.5 656 342.314 653 342.314 653 286.5ZM659 340.814 654.5 349.814 650 340.814Z" fill="#A9B1B5"/><path d="M404 537.813 404 482 407 482 407 537.813ZM401 483.5 405.5 474.5 410 483.5Z" fill="#A9B1B5"/><path d="M1.5-4.97464e-06 1.50019 55.8133-1.49981 55.8133-1.5 4.97464e-06ZM4.50018 54.3133 0.000209974 63.3133-4.49982 54.3133Z" fill="#A9B1B5" transform="matrix(1 0 0 -1 654.5 537.813)"/><path d="M528 211.263 528 183 531 183 531 211.263ZM534 209.762 529.5 218.763 525 209.763ZM525 184.5 529.5 175.5 534 184.5Z" fill="#A9B1B5"/><text fill="#4B5357" font-family="Source Sans Pro,Source Sans Pro_MSFontService,sans-serif" font-style="italic" font-weight="300" font-size="13" transform="translate(663.486 307)">call LLAPI<tspan font-style="normal" font-weight="700" font-size="16" x="-468.198" y="-1">MicroEJ</tspan><tspan font-style="normal" font-weight="700" font-size="16" x="-413.531" y="-1">world</tspan><tspan x="-250.32" y="31">notify library</tspan><tspan x="-250.521" y="219">call LLAPI</tspan><tspan x="-1.74323" y="219">implement</tspan><tspan x="58.4235" y="219">LLAPI</tspan><tspan font-style="normal" font-weight="700" font-size="16" x="-440.365" y="33">LLAPI</tspan><tspan font-style="normal" font-weight="700" font-size="16" x="-446.948" y="221">C world</tspan><tspan font-style="normal" font-weight="700" font-size="16" x="-440.365" y="187">LLAPI</tspan></text></g></svg>