<svg width="620" height="577" xmlns="http://www.w3.org/2000/svg" xmlns:xlink="http://www.w3.org/1999/xlink" overflow="hidden"><defs><clipPath id="clip0"><path d="M340 56 960 56 960 633 340 633Z" fill-rule="evenodd" clip-rule="evenodd"/></clipPath></defs><g clip-path="url(#clip0)" transform="translate(-340 -56)"><path d="M341 67.2189C341 61.5752 345.575 57 351.219 57L948.781 57C954.425 57 959 61.5752 959 67.2189L959 248.781C959 254.425 954.425 259 948.781 259L351.219 259C345.575 259 341 254.425 341 248.781Z" fill="#F2F2F2" fill-rule="evenodd"/><path d="M373.5 99.5001 619.5 99.5001 619.5 210.333 597.333 232.5 373.5 232.5Z" fill="#FFFFFF" fill-rule="evenodd"/><path d="M597.333 232.5 601.766 214.766 619.5 210.333Z" fill="#CDCDCD" fill-rule="evenodd"/><path d="M597.333 232.5 601.766 214.766 619.5 210.333 597.333 232.5 373.5 232.5 373.5 99.5001 619.5 99.5001 619.5 210.333" stroke="#4B5357" stroke-width="2.66667" stroke-linejoin="round" stroke-miterlimit="10" fill="none" fill-rule="evenodd"/><text fill="#4B5357" font-family="Source Sans Pro,Source Sans Pro_MSFontService,sans-serif" font-weight="700" font-size="16" transform="translate(382.34 114)">LLXXX.h<tspan font-family="Consolas,Consolas_MSFontService,sans-serif" font-weight="400" font-size="12" x="0" y="44">void </tspan><tspan font-family="Consolas,Consolas_MSFontService,sans-serif" font-weight="400" font-size="12" x="33.3333" y="44">LLXXX_init</tspan><tspan font-family="Consolas,Consolas_MSFontService,sans-serif" font-weight="400" font-size="12" x="100" y="44">(LLXXX* env);</tspan></text><path d="M681.5 99.5001 927.5 99.5001 927.5 210.333 905.333 232.5 681.5 232.5Z" fill="#FFFFFF" fill-rule="evenodd"/><path d="M905.333 232.5 909.766 214.766 927.5 210.333Z" fill="#CDCDCD" fill-rule="evenodd"/><path d="M905.333 232.5 909.766 214.766 927.5 210.333 905.333 232.5 681.5 232.5 681.5 99.5001 927.5 99.5001 927.5 210.333" stroke="#4B5357" stroke-width="2.66667" stroke-linejoin="round" stroke-miterlimit="10" fill="none" fill-rule="evenodd"/><text fill="#4B5357" font-family="Source Sans Pro,Source Sans Pro_MSFontService,sans-serif" font-weight="700" font-size="16" transform="translate(690.867 114)">LLXXX_impl.h<tspan font-family="Consolas,Consolas_MSFontService,sans-serif" font-weight="400" font-size="12" x="0" y="44">void </tspan><tspan font-family="Consolas,Consolas_MSFontService,sans-serif" font-weight="400" font-size="12" x="33.3333" y="44">LLXXX_IMPL_init</tspan><tspan font-family="Consolas,Consolas_MSFontService,sans-serif" font-weight="400" font-size="12" x="133.333" y="44">(LLXXX* env);</tspan></text><path d="M373.5 483.5 619.5 483.5 619.5 606.833 594.833 631.5 373.5 631.5Z" fill="#FFFFFF" fill-rule="evenodd"/><path d="M594.833 631.5 599.766 611.766 619.5 606.833Z" fill="#CDCDCD" fill-rule="evenodd"/><path d="M594.833 631.5 599.766 611.766 619.5 606.833 594.833 631.5 373.5 631.5 373.5 483.5 619.5 483.5 619.5 606.833" stroke="#4B5357" stroke-width="2.66667" stroke-linejoin="round" stroke-miterlimit="10" fill="none" fill-rule="evenodd"/><text fill="#4B5357" font-family="Source Sans Pro,Source Sans Pro_MSFontService,sans-serif" font-weight="700" font-size="16" transform="translate(382.34 498)">application.c<tspan font-family="Consolas,Consolas_MSFontService,sans-serif" font-weight="400" font-size="12" x="0" y="30">#include "</tspan><tspan font-family="Consolas,Consolas_MSFontService,sans-serif" font-weight="400" font-size="12" x="66.6667" y="30">MYIMPL.h</tspan><tspan font-family="Consolas,Consolas_MSFontService,sans-serif" font-weight="400" font-size="12" x="120" y="30">"</tspan><tspan font-family="Consolas,Consolas_MSFontService,sans-serif" font-weight="400" font-size="12" x="0" y="59">MYIMPL instance;</tspan><tspan font-family="Consolas,Consolas_MSFontService,sans-serif" font-weight="400" font-size="12" x="0" y="73">Main() {</tspan><tspan font-family="Consolas,Consolas_MSFontService,sans-serif" font-weight="400" font-size="12" x="26.6667" y="88">MYIMPL_new</tspan><tspan font-family="Consolas,Consolas_MSFontService,sans-serif" font-weight="400" font-size="12" x="93.3333" y="88">(&amp;instance);</tspan><tspan font-family="Consolas,Consolas_MSFontService,sans-serif" font-weight="400" font-size="12" x="26.6667" y="102">LLXXX_init</tspan><tspan font-family="Consolas,Consolas_MSFontService,sans-serif" font-weight="400" font-size="12" x="93.3333" y="102">(&amp;instance);</tspan><tspan font-family="Consolas,Consolas_MSFontService,sans-serif" font-weight="400" font-size="12" x="0" y="116">}</tspan></text><path d="M681.5 483.5 927.5 483.5 927.5 606.833 902.833 631.5 681.5 631.5Z" fill="#FFFFFF" fill-rule="evenodd"/><path d="M902.833 631.5 907.766 611.766 927.5 606.833Z" fill="#CDCDCD" fill-rule="evenodd"/><path d="M902.833 631.5 907.766 611.766 927.5 606.833 902.833 631.5 681.5 631.5 681.5 483.5 927.5 483.5 927.5 606.833" stroke="#4B5357" stroke-width="2.66667" stroke-linejoin="round" stroke-miterlimit="10" fill="none" fill-rule="evenodd"/><text fill="#4B5357" font-family="Source Sans Pro,Source Sans Pro_MSFontService,sans-serif" font-weight="700" font-size="16" transform="translate(690.867 498)">MYIMPL.c<tspan font-family="Consolas,Consolas_MSFontService,sans-serif" font-weight="400" font-size="12" x="0" y="30">#include "</tspan><tspan font-family="Consolas,Consolas_MSFontService,sans-serif" font-weight="400" font-size="12" x="66.6667" y="30">MYIMPL.h</tspan><tspan font-family="Consolas,Consolas_MSFontService,sans-serif" font-weight="400" font-size="12" x="120" y="30">"</tspan><tspan font-family="Consolas,Consolas_MSFontService,sans-serif" font-weight="400" font-size="12" x="0" y="44">#define LLXXX_IMPL MYIMPL</tspan><tspan font-family="Consolas,Consolas_MSFontService,sans-serif" font-weight="400" font-size="12" x="0" y="59">#include "</tspan><tspan font-family="Consolas,Consolas_MSFontService,sans-serif" font-weight="400" font-size="12" x="66.6667" y="59">LLXXX_impl.h</tspan><tspan font-family="Consolas,Consolas_MSFontService,sans-serif" font-weight="400" font-size="12" x="146.667" y="59">"</tspan><tspan font-family="Consolas,Consolas_MSFontService,sans-serif" font-weight="400" font-size="12" x="0" y="88">Void </tspan><tspan font-family="Consolas,Consolas_MSFontService,sans-serif" font-weight="400" font-size="12" x="33.3333" y="88">LLXXX_IMPL_init</tspan><tspan font-family="Consolas,Consolas_MSFontService,sans-serif" font-weight="400" font-size="12" x="133.333" y="88">(LLXXX* env) {</tspan><tspan font-family="Consolas,Consolas_MSFontService,sans-serif" font-weight="400" font-size="12" x="26.6667" y="102">// implementation code</tspan><tspan font-family="Consolas,Consolas_MSFontService,sans-serif" font-weight="400" font-size="12" x="0" y="116">}</tspan><tspan font-size="19" x="-92.4744" y="-413">Low Level API</tspan></text><path d="M527.5 286.5 773.5 286.5 773.5 409.833 748.833 434.5 527.5 434.5Z" fill="#FFFFFF" fill-rule="evenodd"/><path d="M748.833 434.5 753.766 414.766 773.5 409.833Z" fill="#CDCDCD" fill-rule="evenodd"/><path d="M748.833 434.5 753.766 414.766 773.5 409.833 748.833 434.5 527.5 434.5 527.5 286.5 773.5 286.5 773.5 409.833" stroke="#4B5357" stroke-width="2.66667" stroke-linejoin="round" stroke-miterlimit="10" fill="none" fill-rule="evenodd"/><text fill="#4B5357" font-family="Source Sans Pro,Source Sans Pro_MSFontService,sans-serif" font-weight="700" font-size="16" transform="translate(536.506 301)">MYIMPL<tspan x="55.3333" y="0">.h</tspan><tspan font-family="Consolas,Consolas_MSFontService,sans-serif" font-weight="400" font-size="12" x="0" y="30">#include "</tspan><tspan font-family="Consolas,Consolas_MSFontService,sans-serif" font-weight="400" font-size="12" x="66.6666" y="30">LLXXX.h</tspan><tspan font-family="Consolas,Consolas_MSFontService,sans-serif" font-weight="400" font-size="12" x="113.333" y="30">"</tspan><tspan font-family="Consolas,Consolas_MSFontService,sans-serif" font-weight="400" font-size="12" x="0" y="59">typedef struct MYIMPL {</tspan><tspan font-family="Consolas,Consolas_MSFontService,sans-serif" font-weight="400" font-size="12" x="26.6666" y="73">struct LLXXX header;</tspan><tspan font-family="Consolas,Consolas_MSFontService,sans-serif" font-weight="400" font-size="12" x="26.6666" y="88">//specific fields defined here</tspan><tspan font-family="Consolas,Consolas_MSFontService,sans-serif" font-weight="400" font-size="12" x="0" y="102">} MYIMPL;</tspan><tspan font-family="Consolas,Consolas_MSFontService,sans-serif" font-weight="400" font-size="12" x="0" y="116">void </tspan><tspan font-family="Consolas,Consolas_MSFontService,sans-serif" font-weight="400" font-size="12" x="33.3333" y="116">MYIMPL_new</tspan><tspan font-family="Consolas,Consolas_MSFontService,sans-serif" font-weight="400" font-size="12" x="100" y="116">(MYIMP* env);</tspan></text><path d="M1.5-6.26588e-07 1.5001 243.83-1.4999 243.83-1.5 6.26588e-07ZM4.5001 242.33 0.000104987 251.33-4.4999 242.33Z" fill="#A9B1B5" transform="matrix(1 0 0 -1 804.5 483.83)"/><path d="M1.5-3.2547e-06 1.50009 40.8855-1.49991 40.8855-1.5 3.2547e-06ZM4.50009 39.3855 0.000104987 48.3855-4.49991 39.3855Z" fill="#A9B1B5" transform="matrix(1 0 0 -1 731.5 482.886)"/><path d="M1.5-3.2547e-06 1.50009 40.8855-1.49991 40.8855-1.5 3.2547e-06ZM4.50009 39.3855 0.000104987 48.3855-4.49991 39.3855Z" fill="#A9B1B5" transform="matrix(1 0 0 -1 573.5 482.886)"/><path d="M1.5-2.86661e-06 1.50009 47.4362-1.49991 47.4362-1.5 2.86661e-06ZM4.50009 45.9362 0.000104987 54.9362-4.49991 45.9362Z" fill="#A9B1B5" transform="matrix(1 0 0 -1 573.5 287.436)"/></g></svg>