<svg width="688" height="567" xmlns="http://www.w3.org/2000/svg" xmlns:xlink="http://www.w3.org/1999/xlink" overflow="hidden"><defs><clipPath id="clip0"><path d="M318 96 1006 96 1006 663 318 663Z" fill-rule="evenodd" clip-rule="evenodd"/></clipPath></defs><g clip-path="url(#clip0)" transform="translate(-318 -96)"><path d="M0 0 676.663 0.000104987" stroke="#CBD3D7" stroke-width="1.33333" stroke-linejoin="round" stroke-miterlimit="10" fill="none" fill-rule="evenodd" transform="matrix(-1 -8.74228e-08 -8.74228e-08 1 1006.16 276.5)"/><path d="M654 111.733C654 103.596 660.596 97 668.733 97L783.267 97C791.404 97 798 103.596 798 111.733L798 157.267C798 165.404 791.404 172 783.267 172L668.733 172C660.596 172 654 165.404 654 157.267Z" fill="#5B6D76" fill-rule="evenodd"/><text fill="#FFFFFF" font-family="Source Sans Pro,Source Sans Pro_MSFontService,sans-serif" font-weight="700" font-size="16" transform="translate(670.571 140)">MicroEJ<tspan x="54.6666" y="0">Platform</tspan></text><path d="M654 311.929C654 303.684 660.684 297 668.929 297L783.071 297C791.316 297 798 303.684 798 311.929L798 358.071C798 366.316 791.316 373 783.071 373L668.929 373C660.684 373 654 366.316 654 358.071Z" fill="#5B6D76" fill-rule="evenodd"/><text fill="#FFFFFF" font-family="Source Sans Pro,Source Sans Pro_MSFontService,sans-serif" font-weight="700" font-size="16" transform="translate(689.071 321)">Application <tspan x="5.07996" y="19">library file</tspan><tspan x="-10.5" y="38">(</tspan>microejapp.o)</text><path d="M467 311.929C467 303.684 473.684 297 481.929 297L595.071 297C603.316 297 610 303.684 610 311.929L610 358.071C610 366.316 603.316 373 595.071 373L481.929 373C473.684 373 467 366.316 467 358.071Z" fill="#5B6D76" fill-rule="evenodd"/><text fill="#FFFFFF" font-family="Source Sans Pro,Source Sans Pro_MSFontService,sans-serif" font-weight="700" font-size="16" transform="translate(496.029 321)">C application <tspan x="-8.66666" y="19">code and Board </tspan><tspan x="-12.58" y="38">Support Package</tspan></text><path d="M467 111.733C467 103.596 473.596 97 481.733 97L595.267 97C603.404 97 610 103.596 610 111.733L610 157.267C610 165.404 603.404 172 595.267 172L481.733 172C473.596 172 467 165.404 467 157.267Z" fill="#5B6D76" fill-rule="evenodd"/><text fill="#FFFFFF" font-family="Source Sans Pro,Source Sans Pro_MSFontService,sans-serif" font-weight="700" font-size="16" transform="translate(513.032 130)">MicroEJ<tspan x="-28.8333" y="19">Application code</tspan></text><path d="M654 512.733C654 504.596 660.596 498 668.733 498L783.267 498C791.404 498 798 504.596 798 512.733L798 558.267C798 566.404 791.404 573 783.267 573L668.733 573C660.596 573 654 566.404 654 558.267Z" fill="#5B6D76" fill-rule="evenodd"/><text fill="#FFFFFF" font-family="Source Sans Pro,Source Sans Pro_MSFontService,sans-serif" font-weight="700" font-size="16" transform="translate(690.477 531)">Executable <tspan x="-1.08002" y="19">application</tspan></text><path d="M842 311.929C842 303.684 848.684 297 856.929 297L970.071 297C978.316 297 985 303.684 985 311.929L985 358.071C985 366.316 978.316 373 970.071 373L856.929 373C848.684 373 842 366.316 842 358.071Z" fill="#5B6D76" fill-rule="evenodd"/><text fill="#FFFFFF" font-family="Source Sans Pro,Source Sans Pro_MSFontService,sans-serif" font-weight="700" font-size="16" transform="translate(873.781 321)">Architecture <tspan x="7.66669" y="19">library file </tspan><tspan x="-20.7533" y="38">(</tspan>microejruntime.a<tspan x="95.4134" y="38">)</tspan></text><path d="M641.5 220.126C641.5 214.81 645.81 210.5 651.126 210.5L801.875 210.5C807.191 210.5 811.5 214.81 811.5 220.126L811.5 249.875C811.5 255.191 807.191 259.5 801.875 259.5L651.126 259.5C645.81 259.5 641.5 255.191 641.5 249.875Z" stroke="#CBD3D7" stroke-width="1.33333" stroke-linejoin="round" stroke-miterlimit="10" fill="#F2F2F2" fill-rule="evenodd"/><text fill="#4B5357" font-family="Source Sans Pro,Source Sans Pro_MSFontService,sans-serif" font-weight="300" font-size="15" transform="translate(674.238 231)">Build the <tspan x="56.5" y="0">MicroEJ</tspan><tspan x="17.92" y="17">Application</tspan></text><path d="M641.5 420.929C641.5 415.722 645.722 411.5 650.929 411.5L802.071 411.5C807.279 411.5 811.5 415.722 811.5 420.929L811.5 450.071C811.5 455.279 807.279 459.5 802.071 459.5L650.929 459.5C645.722 459.5 641.5 455.279 641.5 450.071Z" stroke="#CBD3D7" stroke-width="1.33333" stroke-linejoin="round" stroke-miterlimit="10" fill="#F2F2F2" fill-rule="evenodd"/><text fill="#4B5357" font-family="Source Sans Pro,Source Sans Pro_MSFontService,sans-serif" font-weight="300" font-size="15" transform="translate(663.238 432)">Build and link the full <tspan x="29.1667" y="17">application</tspan></text><path d="M641.5 621.126C641.5 615.81 645.81 611.5 651.126 611.5L801.875 611.5C807.191 611.5 811.5 615.81 811.5 621.126L811.5 650.875C811.5 656.191 807.191 660.5 801.875 660.5L651.126 660.5C645.81 660.5 641.5 656.191 641.5 650.875Z" stroke="#CBD3D7" stroke-width="1.33333" stroke-linejoin="round" stroke-miterlimit="10" fill="#F2F2F2" fill-rule="evenodd"/><text fill="#4B5357" font-family="Source Sans Pro,Source Sans Pro_MSFontService,sans-serif" font-weight="300" font-size="15" transform="translate(663.651 632)">Program and test the <tspan x="-11.08" y="17">application on the board</tspan></text><path d="M1.50002 7.5 1.5001 38.2944-1.49989 38.2944-1.49998 7.5ZM-4.49998 9.00001 0 0 4.50002 8.99999Z" fill="#A9B1B5" transform="matrix(1 0 0 -1 726.5 210.794)"/><path d="M1.50002 7.5 1.5001 38.2945-1.49989 38.2945-1.49998 7.5ZM-4.49998 9.00001 0 0 4.50002 8.99999Z" fill="#A9B1B5" transform="matrix(1 0 0 -1 726.5 297.795)"/><path d="M1.50002 7.5 1.5001 37.9592-1.49989 37.9592-1.49998 7.5ZM-4.49997 9.00001 0 0 4.50002 8.99999Z" fill="#A9B1B5" transform="matrix(1 0 0 -1 726.5 411.459)"/><path d="M1.50148 7.4997 1.50756 38.4176-1.49244 38.4181-1.49852 7.50029ZM-4.49823 9.00089 0 0 4.50177 8.99911Z" fill="#A9B1B5" transform="matrix(1 0 0 -1 726.5 497.918)"/><path d="M725.006 603.481 725 573.5 728 573.5 728.006 603.481ZM731.006 601.98 726.508 610.981 722.006 601.982Z" fill="#A9B1B5"/><path d="M0-1.5 62.597-1.5C63.4254-1.5 64.097-0.828427 64.097 0L64.097 94.5933 61.097 94.5933 61.097 0 62.597 1.5 0 1.5ZM67.097 93.0933 62.597 102.093 58.097 93.0933Z" fill="#A9B1B5" transform="matrix(-4.37114e-08 1 1 4.37114e-08 539.5 172.5)"/><path d="M0-1.5 62.2617-1.5C63.0902-1.5 63.7617-0.828427 63.7617 0L63.7617 94.5933 60.7617 94.5933 60.7617 0 62.2617 1.5 0 1.5ZM66.7617 93.0933 62.2617 102.093 57.7617 93.0933Z" fill="#A9B1B5" transform="matrix(-4.37114e-08 1 1 4.37114e-08 539.5 373.5)"/><path d="M915.093 373.5 915.093 435.762C915.093 436.59 914.422 437.262 913.593 437.262L819 437.262 819 434.262 913.593 434.262 912.093 435.762 912.093 373.5ZM820.5 440.262 811.5 435.762 820.5 431.262Z" fill="#A9B1B5"/><text fill="#4B5357" font-family="Source Sans Pro,Source Sans Pro_MSFontService,sans-serif" font-weight="300" font-size="16" transform="translate(337.55 264)">MicroEJ<tspan x="54.3333" y="0">Workbench</tspan><tspan x="47.1666" y="35">C IDE</tspan></text></g></svg>