<svg width="599" height="451" xmlns="http://www.w3.org/2000/svg" xmlns:xlink="http://www.w3.org/1999/xlink" overflow="hidden"><defs><clipPath id="clip0"><path d="M307 166 906 166 906 617 307 617Z" fill-rule="evenodd" clip-rule="evenodd"/></clipPath></defs><g clip-path="url(#clip0)" transform="translate(-307 -166)"><path d="M349.5 175.902C349.5 171.262 353.262 167.5 357.902 167.5L462.098 167.5C466.738 167.5 470.5 171.262 470.5 175.902L470.5 575.098C470.5 579.738 466.738 583.5 462.098 583.5L357.902 583.5C353.262 583.5 349.5 579.738 349.5 575.098Z" stroke="#CBD3D7" stroke-width="1.33333" stroke-linejoin="round" stroke-miterlimit="10" fill="#F2F2F2" fill-rule="evenodd"/><path d="M480.5 175.902C480.5 171.262 484.262 167.5 488.902 167.5L593.098 167.5C597.738 167.5 601.5 171.262 601.5 175.902L601.5 575.098C601.5 579.738 597.738 583.5 593.098 583.5L488.902 583.5C484.262 583.5 480.5 579.738 480.5 575.098Z" stroke="#CBD3D7" stroke-width="1.33333" stroke-linejoin="round" stroke-miterlimit="10" fill="#F2F2F2" fill-rule="evenodd"/><path d="M612.5 175.902C612.5 171.262 616.262 167.5 620.902 167.5L725.098 167.5C729.738 167.5 733.5 171.262 733.5 175.902L733.5 575.098C733.5 579.738 729.738 583.5 725.098 583.5L620.902 583.5C616.262 583.5 612.5 579.738 612.5 575.098Z" stroke="#CBD3D7" stroke-width="1.33333" stroke-linejoin="round" stroke-miterlimit="10" fill="#F2F2F2" fill-rule="evenodd"/><path d="M743.5 175.902C743.5 171.262 747.262 167.5 751.902 167.5L856.098 167.5C860.738 167.5 864.5 171.262 864.5 175.902L864.5 575.098C864.5 579.738 860.738 583.5 856.098 583.5L751.902 583.5C747.262 583.5 743.5 579.738 743.5 575.098Z" stroke="#CBD3D7" stroke-width="1.33333" stroke-linejoin="round" stroke-miterlimit="10" fill="#F2F2F2" fill-rule="evenodd"/><path d="M414.459 266C418.624 266 422 269.376 422 273.541L422 568.459C422 572.624 418.624 576 414.459 576L403.541 576C399.376 576 396 572.624 396 568.459L396 273.541C396 269.376 399.376 266 403.541 266Z" fill="#6CC24A" fill-rule="evenodd"/><text fill="#FFFFFF" font-family="Source Sans Pro,Source Sans Pro_MSFontService,sans-serif" font-weight="700" font-size="16" transform="matrix(6.12323e-17 1 -1 6.12323e-17 403.739 372)">Green Thread 2</text><path d="M451.459 266C455.624 266 459 269.376 459 273.541L459 568.459C459 572.624 455.624 576 451.459 576L440.541 576C436.376 576 433 572.624 433 568.459L433 273.541C433 269.376 436.376 266 440.541 266Z" fill="#6CC24A" fill-rule="evenodd"/><text fill="#FFFFFF" font-family="Source Sans Pro,Source Sans Pro_MSFontService,sans-serif" font-weight="700" font-size="16" transform="matrix(6.12323e-17 1 -1 6.12323e-17 440.443 372)">Green Thread 3</text><path d="M377.459 266C381.624 266 385 269.376 385 273.541L385 568.459C385 572.624 381.624 576 377.459 576L366.541 576C362.376 576 359 572.624 359 568.459L359 273.541C359 269.376 362.376 266 366.541 266Z" fill="#6CC24A" fill-rule="evenodd"/><text fill="#FFFFFF" font-family="Source Sans Pro,Source Sans Pro_MSFontService,sans-serif" font-weight="700" font-size="16" transform="matrix(6.12323e-17 1 -1 6.12323e-17 366.797 372)">Green Thread 1</text><text fill="#4B5357" font-family="Source Sans Pro,Source Sans Pro_MSFontService,sans-serif" font-weight="700" font-size="16" transform="translate(369.139 603)">RTOS Task 1<tspan x="131.54" y="0">RTOS Task 2</tspan><tspan x="263.08" y="0">RTOS Task 3</tspan><tspan x="394.62" y="0">RTOS Task 4</tspan></text></g></svg>