<svg width="446" height="378" xmlns="http://www.w3.org/2000/svg" xmlns:xlink="http://www.w3.org/1999/xlink" overflow="hidden"><defs><clipPath id="clip0"><path d="M467 96 913 96 913 474 467 474Z" fill-rule="evenodd" clip-rule="evenodd"/></clipPath></defs><g clip-path="url(#clip0)" transform="translate(-467 -96)"><path d="M467 211.929C467 203.684 473.684 197 481.929 197L595.071 197C603.316 197 610 203.684 610 211.929L610 258.071C610 266.316 603.316 273 595.071 273L481.929 273C473.684 273 467 266.316 467 258.071Z" fill="#5B6D76" fill-rule="evenodd"/><text fill="#FFFFFF" font-family="Source Sans Pro,Source Sans Pro_MSFontService,sans-serif" font-weight="700" font-size="16" transform="translate(483.282 240)">MicroEJ<tspan x="54.6667" y="0">Platform</tspan></text><path d="M654 311.929C654 303.684 660.684 297 668.929 297L783.071 297C791.316 297 798 303.684 798 311.929L798 358.071C798 366.316 791.316 373 783.071 373L668.929 373C660.684 373 654 366.316 654 358.071Z" fill="#5B6D76" fill-rule="evenodd"/><text fill="#FFFFFF" font-family="Source Sans Pro,Source Sans Pro_MSFontService,sans-serif" font-weight="700" font-size="16" transform="translate(705.321 321)">Binary <tspan x="-15.9133" y="19">application </tspan><tspan x="-28.5" y="38">(application.fo)</tspan></text><path d="M654 111.733C654 103.596 660.596 97 668.733 97L783.267 97C791.404 97 798 103.596 798 111.733L798 157.267C798 165.404 791.404 172 783.267 172L668.733 172C660.596 172 654 165.404 654 157.267Z" fill="#5B6D76" fill-rule="evenodd"/><text fill="#FFFFFF" font-family="Source Sans Pro,Source Sans Pro_MSFontService,sans-serif" font-weight="700" font-size="16" transform="translate(700.314 130)">MicroEJ<tspan x="-28.8333" y="19">Application code</tspan></text><path d="M641.5 212.43C641.5 204.184 648.184 197.5 656.43 197.5L796.571 197.5C804.816 197.5 811.5 204.184 811.5 212.43L811.5 258.571C811.5 266.816 804.816 273.5 796.571 273.5L656.43 273.5C648.184 273.5 641.5 266.816 641.5 258.571Z" stroke="#CBD3D7" stroke-width="1.33333" stroke-linejoin="round" stroke-miterlimit="10" fill="#F2F2F2" fill-rule="evenodd"/><text fill="#4B5357" font-family="Source Sans Pro,Source Sans Pro_MSFontService,sans-serif" font-weight="300" font-size="15" transform="translate(667.655 231)">4. Build the <tspan x="69.6667" y="0">MicroEJ</tspan><tspan x="24.5" y="17">A</tspan><tspan x="32.1667" y="17">pplication</tspan></text><path d="M540.5 412.429C540.5 404.184 547.184 397.5 555.429 397.5L696.571 397.5C704.816 397.5 711.5 404.184 711.5 412.429L711.5 458.571C711.5 466.816 704.816 473.5 696.571 473.5L555.429 473.5C547.184 473.5 540.5 466.816 540.5 458.571Z" stroke="#CBD3D7" stroke-width="1.33333" stroke-linejoin="round" stroke-miterlimit="10" fill="#F2F2F2" fill-rule="evenodd"/><text fill="#4B5357" font-family="Source Sans Pro,Source Sans Pro_MSFontService,sans-serif" font-weight="300" font-size="15" transform="translate(556.222 432)">5. Build and link the full <tspan x="35.7534" y="17">application</tspan></text><path d="M741.5 412.429C741.5 404.184 748.184 397.5 756.429 397.5L897.571 397.5C905.816 397.5 912.5 404.184 912.5 412.429L912.5 458.571C912.5 466.816 905.816 473.5 897.571 473.5L756.429 473.5C748.184 473.5 741.5 466.816 741.5 458.571Z" stroke="#CBD3D7" stroke-width="1.33333" stroke-linejoin="round" stroke-miterlimit="10" fill="#F2F2F2" fill-rule="evenodd"/><text fill="#4B5357" font-family="Source Sans Pro,Source Sans Pro_MSFontService,sans-serif" font-weight="300" font-size="15" transform="translate(757.504 423)">6. Program and test the <tspan x="14.8333" y="17">application on the </tspan><tspan x="51.1667" y="35">board</tspan></text><path d="M7.5-1.49997 30.4732-1.49989 30.4732 1.5001 7.49999 1.50003ZM8.99998 4.50003 0 0 9.00002-4.49997Z" fill="#A9B1B5" transform="matrix(-1 -8.74228e-08 -8.74228e-08 1 640.973 235.5)"/><path d="M1.50003 7.49999 1.5001 24.6342-1.49989 24.6342-1.49997 7.50001ZM-4.49996 9.00002 0 0 4.50004 8.99998Z" fill="#A9B1B5" transform="matrix(1 0 0 -1 726.5 298.134)"/><path d="M1.50003 7.49999 1.5001 24.6338-1.49989 24.6338-1.49997 7.50001ZM-4.49996 9.00002 0 0 4.50004 8.99998Z" fill="#A9B1B5" transform="matrix(1 0 0 -1 685.5 398.134)"/><path d="M1.50003 7.49999 1.5001 24.6337-1.49989 24.6337-1.49997 7.5ZM-4.49996 9.00002 0 0 4.50004 8.99998Z" fill="#A9B1B5" transform="matrix(1 0 0 -1 767.5 398.134)"/><path d="M0-1.5 12.3171-1.5C13.1455-1.5 13.8171-0.828427 13.8171 0L13.8171 0.00755905 12.3171-1.49244 17.134-1.49244 17.134 1.50756 12.3171 1.50756C11.4886 1.50756 10.8171 0.835986 10.8171 0.00755905L10.8171 0 12.3171 1.5 0 1.5ZM15.634-4.49244 24.634 0.00755905 15.634 4.50756Z" fill="#A9B1B5" transform="matrix(-4.37114e-08 1 1 4.37114e-08 726.5 172.5)"/></g></svg>