<svg width="758" height="780" xmlns="http://www.w3.org/2000/svg" xmlns:xlink="http://www.w3.org/1999/xlink" overflow="hidden"><defs><clipPath id="clip0"><path d="M254 24 1012 24 1012 804 254 804Z" fill-rule="evenodd" clip-rule="evenodd"/></clipPath></defs><g clip-path="url(#clip0)" transform="translate(-254 -24)"><path d="M0 0 726.465 0.000104987" stroke="#CBD3D7" stroke-width="1.33333" stroke-linejoin="round" stroke-miterlimit="10" fill="none" fill-rule="evenodd" transform="matrix(-1 -8.74228e-08 -8.74228e-08 1 1011.96 414.5)"/><path d="M285 39.9295C285 31.6842 291.684 25 299.929 25L413.071 25C421.316 25 428 31.6842 428 39.9295L428 86.0705C428 94.3158 421.316 101 413.071 101L299.929 101C291.684 101 285 94.3158 285 86.0705Z" fill="#5B6D76" fill-rule="evenodd"/><text fill="#FFFFFF" font-family="Source Sans Pro,Source Sans Pro_MSFontService,sans-serif" font-weight="700" font-size="16" transform="translate(330.395 59)">MicroEJ<tspan x="-13.8333" y="19">Architecture</tspan></text><path d="M659 39.9295C659 31.6842 665.684 25 673.929 25L787.071 25C795.316 25 802 31.6842 802 39.9295L802 86.0705C802 94.3158 795.316 101 787.071 101L673.929 101C665.684 101 659 94.3158 659 86.0705Z" fill="#5B6D76" fill-rule="evenodd"/><text fill="#FFFFFF" font-family="Source Sans Pro,Source Sans Pro_MSFontService,sans-serif" font-weight="700" font-size="16" transform="translate(675.232 49)">MicroEJ<tspan x="54.6667" y="0">Platform</tspan><tspan x="11.08" y="19">Configuration</tspan><tspan x="32.58" y="38">project</tspan></text><path d="M659 240.929C659 232.684 665.684 226 673.929 226L787.071 226C795.316 226 802 232.684 802 240.929L802 287.071C802 295.316 795.316 302 787.071 302L673.929 302C665.684 302 659 295.316 659 287.071Z" fill="#5B6D76" fill-rule="evenodd"/><text fill="#FFFFFF" font-family="Source Sans Pro,Source Sans Pro_MSFontService,sans-serif" font-weight="700" font-size="16" transform="translate(675.232 269)">MicroEJ<tspan x="54.6667" y="0">Platform</tspan></text><path d="M659 441.733C659 433.596 665.596 427 673.733 427L787.267 427C795.404 427 802 433.596 802 441.733L802 487.267C802 495.404 795.404 502 787.267 502L673.733 502C665.596 502 659 495.404 659 487.267Z" fill="#5B6D76" fill-rule="evenodd"/><text fill="#FFFFFF" font-family="Source Sans Pro,Source Sans Pro_MSFontService,sans-serif" font-weight="700" font-size="16" transform="translate(693.732 451)">Application <tspan x="5.08002" y="19">library file</tspan><tspan x="-10.5" y="38">(</tspan>microejapp.o)</text><path d="M471 441.733C471 433.596 477.596 427 485.733 427L600.267 427C608.404 427 615 433.596 615 441.733L615 487.267C615 495.404 608.404 502 600.267 502L485.733 502C477.596 502 471 495.404 471 487.267Z" fill="#5B6D76" fill-rule="evenodd"/><text fill="#FFFFFF" font-family="Source Sans Pro,Source Sans Pro_MSFontService,sans-serif" font-weight="700" font-size="16" transform="translate(500.245 451)">C application <tspan x="-8.66666" y="19">code and Board </tspan><tspan x="-12.58" y="38">Support Package</tspan></text><path d="M472 240.929C472 232.684 478.684 226 486.929 226L600.071 226C608.316 226 615 232.684 615 240.929L615 287.071C615 295.316 608.316 302 600.071 302L486.929 302C478.684 302 472 295.316 472 287.071Z" fill="#5B6D76" fill-rule="evenodd"/><text fill="#FFFFFF" font-family="Source Sans Pro,Source Sans Pro_MSFontService,sans-serif" font-weight="700" font-size="16" transform="translate(517.692 260)">MicroEJ<tspan x="-28.8333" y="19">Application code</tspan></text><path d="M659 641.93C659 633.684 665.684 627 673.929 627L787.071 627C795.316 627 802 633.684 802 641.93L802 688.07C802 696.316 795.316 703 787.071 703L673.929 703C665.684 703 659 696.316 659 688.07Z" fill="#5B6D76" fill-rule="evenodd"/><text fill="#FFFFFF" font-family="Source Sans Pro,Source Sans Pro_MSFontService,sans-serif" font-weight="700" font-size="16" transform="translate(695.138 661)">Executable <tspan x="-1.07996" y="19">application</tspan></text><path d="M847 441.733C847 433.596 853.596 427 861.733 427L975.267 427C983.404 427 990 433.596 990 441.733L990 487.267C990 495.404 983.404 502 975.267 502L861.733 502C853.596 502 847 495.404 847 487.267Z" fill="#5B6D76" fill-rule="evenodd"/><text fill="#FFFFFF" font-family="Source Sans Pro,Source Sans Pro_MSFontService,sans-serif" font-weight="700" font-size="16" transform="translate(878.885 451)">Architecture <tspan x="7.66663" y="19">library file </tspan><tspan x="-20.7534" y="38">(</tspan>microejruntime.a<tspan x="95.4133" y="38">)</tspan></text><path d="M466.5 40.4295C466.5 32.1842 473.184 25.5001 481.43 25.5001L606.571 25.5001C614.816 25.5001 621.5 32.1842 621.5 40.4295L621.5 86.5706C621.5 94.8159 614.816 101.5 606.571 101.5L481.43 101.5C473.184 101.5 466.5 94.8159 466.5 86.5706Z" stroke="#CBD3D7" stroke-width="1.33333" stroke-linejoin="round" stroke-miterlimit="10" fill="#F2F2F2" fill-rule="evenodd"/><text fill="#4B5357" font-family="Source Sans Pro,Source Sans Pro_MSFontService,sans-serif" font-weight="300" font-size="15" transform="translate(498.276 51)">1. Create a new <tspan x="-5.58002" y="17">MicroEJ</tspan><tspan x="44.5867" y="17">Platfrom</tspan><tspan x="-17.3333" y="35">configuration project</tspan></text><path d="M841.5 40.4295C841.5 32.1842 848.184 25.5001 856.43 25.5001L996.571 25.5001C1004.82 25.5001 1011.5 32.1842 1011.5 40.4295L1011.5 86.5706C1011.5 94.8159 1004.82 101.5 996.571 101.5L856.43 101.5C848.184 101.5 841.5 94.8159 841.5 86.5706Z" stroke="#CBD3D7" stroke-width="1.33333" stroke-linejoin="round" stroke-miterlimit="10" fill="#F2F2F2" fill-rule="evenodd"/><text fill="#4B5357" font-family="Source Sans Pro,Source Sans Pro_MSFontService,sans-serif" font-weight="300" font-size="15" transform="translate(858.211 60)">2. Select and configure <tspan x="9.66663" y="17">additional modules</tspan></text><path d="M646.5 141.233C646.5 133.096 653.096 126.5 661.233 126.5L801.767 126.5C809.904 126.5 816.5 133.096 816.5 141.233L816.5 186.767C816.5 194.904 809.904 201.5 801.767 201.5L661.233 201.5C653.096 201.5 646.5 194.904 646.5 186.767Z" stroke="#CBD3D7" stroke-width="1.33333" stroke-linejoin="round" stroke-miterlimit="10" fill="#F2F2F2" fill-rule="evenodd"/><text fill="#4B5357" font-family="Source Sans Pro,Source Sans Pro_MSFontService,sans-serif" font-weight="300" font-size="15" transform="translate(672.315 160)">3. Build the <tspan x="69.6667" y="0">MicroEJ</tspan><tspan x="32.7534" y="17">Platform</tspan></text><path d="M646.5 341.43C646.5 333.184 653.184 326.5 661.43 326.5L801.571 326.5C809.816 326.5 816.5 333.184 816.5 341.43L816.5 387.571C816.5 395.816 809.816 402.5 801.571 402.5L661.43 402.5C653.184 402.5 646.5 395.816 646.5 387.571Z" stroke="#CBD3D7" stroke-width="1.33333" stroke-linejoin="round" stroke-miterlimit="10" fill="#F2F2F2" fill-rule="evenodd"/><text fill="#4B5357" font-family="Source Sans Pro,Source Sans Pro_MSFontService,sans-serif" font-weight="300" font-size="15" transform="translate(672.315 361)">4. Build the <tspan x="69.6667" y="0">MicroEJ</tspan><tspan x="24.5" y="17">Application</tspan></text><path d="M646.5 542.43C646.5 534.184 653.184 527.5 661.43 527.5L801.571 527.5C809.816 527.5 816.5 534.184 816.5 542.43L816.5 588.571C816.5 596.816 809.816 603.5 801.571 603.5L661.43 603.5C653.184 603.5 646.5 596.816 646.5 588.571Z" stroke="#CBD3D7" stroke-width="1.33333" stroke-linejoin="round" stroke-miterlimit="10" fill="#F2F2F2" fill-rule="evenodd"/><text fill="#4B5357" font-family="Source Sans Pro,Source Sans Pro_MSFontService,sans-serif" font-weight="300" font-size="15" transform="translate(661.315 561)">5. Build and link the full <tspan x="35.7534" y="17">application</tspan></text><path d="M646.5 742.43C646.5 734.184 653.184 727.5 661.43 727.5L801.571 727.5C809.816 727.5 816.5 734.184 816.5 742.43L816.5 788.571C816.5 796.816 809.816 803.5 801.571 803.5L661.43 803.5C653.184 803.5 646.5 796.816 646.5 788.571Z" stroke="#CBD3D7" stroke-width="1.33333" stroke-linejoin="round" stroke-miterlimit="10" fill="#F2F2F2" fill-rule="evenodd"/><text fill="#4B5357" font-family="Source Sans Pro,Source Sans Pro_MSFontService,sans-serif" font-weight="300" font-size="15" transform="translate(661.724 753)">6. Program and test the <tspan x="14.8333" y="17">application on the </tspan><tspan x="51.1666" y="35">board</tspan></text><path d="M730 118.802 730 101.5 733 101.5 733 118.802ZM736 117.302 731.5 126.302 727 117.302Z" fill="#A9B1B5"/><path d="M1.50003 7.49999 1.5001 24.8017-1.49989 24.8017-1.49997 7.50001ZM-4.49996 9.00002 0 0 4.50004 8.99998Z" fill="#A9B1B5" transform="matrix(1 0 0 -1 731.5 226.302)"/><path d="M1.50003 7.49999 1.5001 24.8017-1.49989 24.8017-1.49997 7.50001ZM-4.49996 9.00002 0 0 4.50004 8.99998Z" fill="#A9B1B5" transform="matrix(1 0 0 -1 731.5 327.302)"/><path d="M1.50003 7.49999 1.5001 24.8017-1.49989 24.8017-1.49997 7.50001ZM-4.49996 9.00002 0 0 4.50004 8.99998Z" fill="#A9B1B5" transform="matrix(1 0 0 -1 731.5 427.302)"/><path d="M1.50003 7.49999 1.5001 24.4664-1.49989 24.4665-1.49997 7.50001ZM-4.49996 9.00002 0 0 4.50004 8.99998Z" fill="#A9B1B5" transform="matrix(1 0 0 -1 731.5 526.966)"/><path d="M1.50227 7.49954 1.50756 24.9246-1.49244 24.9255-1.49773 7.50045ZM-4.49727 9.00136 0 0 4.50273 8.99864Z" fill="#A9B1B5" transform="matrix(1 0 0 -1 731.5 628.425)"/><path d="M1.50003 7.49999 1.5001 24.3431-1.49989 24.3431-1.49997 7.50001ZM-4.49996 9.00002 0 0 4.50004 8.99998Z" fill="#A9B1B5" transform="matrix(1 0 0 -1 731.5 727.843)"/><path d="M7.5-1.49998 38.2384-1.49989 38.2384 1.5001 7.5 1.50002ZM8.99999 4.50002 0 0 9.00001-4.49998Z" fill="#A9B1B5" transform="matrix(-1 -8.74228e-08 -8.74228e-08 1 466.738 63.5001)"/><path d="M7.5-1.49998 38.2308-1.49989 38.2308 1.5001 7.5 1.50002ZM8.99999 4.50002 0 0 9.00001-4.49998Z" fill="#A9B1B5" transform="matrix(-1 -8.74228e-08 -8.74228e-08 1 659.731 63.5001)"/><path d="M7.5-1.49998 38.2383-1.49989 38.2383 1.5001 7.5 1.50002ZM8.99999 4.50002 0 0 9.00001-4.49998Z" fill="#A9B1B5" transform="matrix(-1 -8.74228e-08 -8.74228e-08 1 840.738 50.5001)"/><path d="M810 76.0001 840.738 76.0002 840.738 79.0002 810 79.0001ZM811.5 82.0001 802.5 77.5001 811.5 73.0001Z" fill="#A9B1B5"/><path d="M0-1.5 62.597-1.5C63.4254-1.5 64.097-0.828427 64.097 0L64.097 94.5933 61.097 94.5933 61.097 0 62.597 1.5 0 1.5ZM67.097 93.0933 62.597 102.093 58.097 93.0933Z" fill="#A9B1B5" transform="matrix(-4.37114e-08 1 1 4.37114e-08 543.5 302.5)"/><path d="M0-1.5 62.2618-1.5C63.0903-1.5 63.7618-0.828427 63.7618 0L63.7618 95.0377 60.7618 95.0377 60.7618 0 62.2618 1.5 0 1.5ZM66.7618 93.5376 62.2618 102.538 57.7618 93.5376Z" fill="#A9B1B5" transform="matrix(-4.37114e-08 1 1 4.37114e-08 543.5 502.5)"/><path d="M920.538 502.5 920.538 564.762C920.538 565.59 919.866 566.262 919.038 566.262L824 566.262 824 563.262 919.038 563.262 917.538 564.762 917.538 502.5ZM825.5 569.262 816.5 564.762 825.5 560.262Z" fill="#A9B1B5"/><text fill="#4B5357" font-family="Source Sans Pro,Source Sans Pro_MSFontService,sans-serif" font-weight="300" font-size="16" transform="translate(291.598 403)">MicroEJ<tspan x="54.3333" y="0">Workbench</tspan><tspan x="47.1667" y="33">C IDE</tspan></text></g></svg>