<svg width="708" height="673" xmlns="http://www.w3.org/2000/svg" xmlns:xlink="http://www.w3.org/1999/xlink" overflow="hidden"><defs><clipPath id="clip0"><path d="M91 21 799 21 799 694 91 694Z" fill-rule="evenodd" clip-rule="evenodd"/></clipPath></defs><g clip-path="url(#clip0)" transform="translate(-91 -21)"><path d="M457.018 549.88 457 22.0001" stroke="#CBD3D7" stroke-width="1.66667" stroke-linejoin="round" stroke-miterlimit="10" fill="none" fill-rule="evenodd"/><rect x="387" y="73.9999" width="30" height="469" fill="#EE502E"/><rect x="497" y="249" width="30" height="201" fill="#EE502E"/><rect x="387.5" y="249.5" width="30" height="201" stroke="#CBD3D7" stroke-width="1.33333" stroke-linejoin="round" stroke-miterlimit="10" fill="#F2F2F2"/><path d="M1.5 7.49995 1.5001 174.706-1.49989 174.706-1.5 7.49996ZM-4.49999 9 0 0 4.50001 9Z" fill="#A9B1B5" transform="matrix(1 0 0 -1 402.5 249.207)"/><path d="M1.50001 7.49999 1.5001 92.355-1.49989 92.355-1.49999 7.49999ZM-4.49999 9 0 0 4.50001 9Z" fill="#A9B1B5" transform="matrix(1 0 0 -1 402.5 542.855)"/><path d="M1.5 7.49995 1.5001 201.6-1.49989 201.6-1.5 7.49996ZM-4.5 9 0 0 4.5 9Z" fill="#A9B1B5" transform="matrix(1 0 0 -1 512.5 451.1)"/><path d="M7.50002-1.49999 110.67-1.49989 110.67 1.5001 7.50002 1.50001ZM9 4.50001 0 0 9-4.49999Z" fill="#A9B1B5" transform="matrix(-1 -8.74228e-08 -8.74228e-08 1 513.17 249.5)"/><path d="M410 449 513.17 449 513.17 452 410 452ZM411.5 455 402.5 450.5 411.5 446Z" fill="#A9B1B5"/><path d="M122 188.083C122 184.171 125.171 181 129.083 181L254.917 181C258.829 181 262 184.171 262 188.083L262 400.917C262 404.829 258.829 408 254.917 408L129.083 408C125.171 408 122 404.829 122 400.917Z" fill="#F2F2F2" fill-rule="evenodd"/><path d="M628 188.083C628 184.171 631.171 181 635.083 181L760.917 181C764.829 181 768 184.171 768 188.083L768 400.917C768 404.829 764.829 408 760.917 408L635.083 408C631.171 408 628 404.829 628 400.917Z" fill="#F2F2F2" fill-rule="evenodd"/><path d="M650 284.893C650 281.638 652.638 279 655.893 279L740.107 279C743.362 279 746 281.638 746 284.893L746 303.107C746 306.362 743.362 309 740.107 309L655.893 309C652.638 309 650 306.362 650 303.107Z" fill="#EE502E" fill-rule="evenodd"/><text fill="#FFFFFF" font-family="Source Sans Pro,Source Sans Pro_MSFontService,sans-serif" font-style="italic" font-weight="300" font-size="16" transform="translate(671.001 300)">C structs</text><path d="M145 284.09C145 280.726 147.726 278 151.09 278L233.91 278C237.274 278 240 280.726 240 284.09L240 302.91C240 306.274 237.274 309 233.91 309L151.09 309C147.726 309 145 306.274 145 302.91Z" fill="#EE502E" fill-rule="evenodd"/><text fill="#FFFFFF" font-family="Source Sans Pro,Source Sans Pro_MSFontService,sans-serif" font-style="italic" font-weight="300" font-size="16" transform="translate(155.171 299)">Java Object</text><path d="M146 327.893C146 324.638 148.638 322 151.893 322L235.107 322C238.362 322 241 324.638 241 327.893L241 346.107C241 349.362 238.362 352 235.107 352L151.893 352C148.638 352 146 349.362 146 346.107Z" fill="#EE502E" fill-rule="evenodd"/><text fill="#FFFFFF" font-family="Source Sans Pro,Source Sans Pro_MSFontService,sans-serif" font-style="italic" font-weight="300" font-size="16" transform="translate(156.063 342)">Java Object</text><path d="M557.194 565C559.848 565 562 567.152 562 569.806L562 655.194C562 657.848 559.848 660 557.194 660L360.806 660C358.152 660 356 657.848 356 655.194L356 569.806C356 567.152 358.152 565 360.806 565Z" fill="#F2F2F2" fill-rule="evenodd"/><rect x="366.5" y="584.5" width="182" height="30" stroke="#5B6D76" stroke-width="1.33333" stroke-linejoin="round" stroke-miterlimit="10" fill="#FFFFFF"/><path d="M427.5 584.5 427.5 614.736" stroke="#5B6D76" stroke-width="1.33333" stroke-linejoin="round" stroke-miterlimit="10" fill="none" fill-rule="evenodd"/><path d="M457.5 584.5 457.5 614.736" stroke="#5B6D76" stroke-width="1.33333" stroke-linejoin="round" stroke-miterlimit="10" fill="none" fill-rule="evenodd"/><path d="M487.5 584.5 487.5 614.736" stroke="#5B6D76" stroke-width="1.33333" stroke-linejoin="round" stroke-miterlimit="10" fill="none" fill-rule="evenodd"/><path d="M517.5 584.5 517.5 614.736" stroke="#5B6D76" stroke-width="1.33333" stroke-linejoin="round" stroke-miterlimit="10" fill="none" fill-rule="evenodd"/><rect x="367" y="585" width="28" height="29" fill="#00AEC7"/><rect x="367" y="585" width="29" height="29" fill="#00AEC7"/><path d="M396.5 584.5 396.5 614.736" stroke="#5B6D76" stroke-width="1.33333" stroke-linejoin="round" stroke-miterlimit="10" fill="none" fill-rule="evenodd"/><text fill="#4B5357" font-family="Source Sans Pro,Source Sans Pro_MSFontService,sans-serif" font-style="italic" font-weight="300" font-size="16" transform="translate(399.224 633)">Array of <tspan x="51.1667" y="0">b</tspan><tspan x="59.5" y="0">asetypes</tspan><tspan x="-179.827" y="-416">Java </tspan><tspan x="-194.327" y="-397">o</tspan>bjects<tspan x="-191.161" y="-378">access</tspan><tspan x="239.986" y="-416">C </tspan><tspan x="239.986" y="-397">structs </tspan><tspan x="239.986" y="-378">access</tspan></text><path d="M0-1.5 95.4217-1.5C96.2501-1.5 96.9217-0.828427 96.9217 0L96.9217 137.379 95.4217 135.879 138.009 135.879 138.009 138.879 95.4217 138.879C94.5933 138.879 93.9217 138.208 93.9217 137.379L93.9217 0 95.4217 1.5 0 1.5ZM136.509 132.879 145.509 137.379 136.509 141.879Z" fill="#A9B1B5" transform="matrix(-1 -8.74228e-08 -8.74228e-08 1 387.009 156.5)"/><path d="M0-1.5 72.7544-1.5C73.5828-1.5 74.2544-0.828427 74.2544 0L74.2544 145.243 72.7544 143.743 138.009 143.743 138.009 146.743 72.7544 146.743C71.926 146.743 71.2544 146.071 71.2544 145.243L71.2544 0 72.7544 1.5 0 1.5ZM136.509 140.743 145.509 145.243 136.509 149.743Z" fill="#A9B1B5" transform="matrix(-1 -8.74228e-08 -8.74228e-08 1 387.009 191.5)"/><path d="M0-1.5 386.755-1.5C387.584-1.5 388.255-0.828427 388.255 0L388.255 15.6933 385.255 15.6933 385.255 0 386.755 1.5 0 1.5ZM391.255 14.1933 386.755 23.1933 382.255 14.1933Z" fill="#A9B1B5" transform="matrix(-4.37114e-08 1 1 4.37114e-08 343.5 213.5)"/><path d="M343.5 214.5 387.084 214.5" stroke="#A9B1B5" stroke-width="3" stroke-linejoin="round" stroke-miterlimit="10" fill="none" fill-rule="evenodd"/><path d="M580.236 358.5 580.236 599.455C580.236 600.284 579.565 600.955 578.736 600.955L556 600.955 556 597.955 578.736 597.955 577.236 599.455 577.236 358.5ZM557.5 603.955 548.5 599.455 557.5 594.955Z" fill="#A9B1B5"/><path d="M527.5 360.5 578.127 360.5" stroke="#A9B1B5" stroke-width="3" stroke-linejoin="round" stroke-miterlimit="10" fill="none" fill-rule="evenodd"/><path d="M0.00181002-1.5 115.526-1.3606 115.523 1.6394-0.00181002 1.5ZM114.03-4.36241 123.025 0.148451 114.019 4.63759Z" fill="#A9B1B5" transform="matrix(1 0 0 -1 527.5 294.648)"/><text fill="#4B5357" font-family="Source Sans Pro,Source Sans Pro_MSFontService,sans-serif" font-style="italic" font-weight="300" font-size="13" transform="translate(364.165 59)">Java methods<tspan x="119.141" y="0">C functions</tspan><tspan font-style="normal" font-weight="700" font-size="21" x="-149.691" y="-3">Java world</tspan><tspan font-style="normal" font-weight="700" font-size="21" x="230.706" y="-4">C world</tspan><tspan font-style="normal" font-weight="700" font-size="16" x="-214.602" y="368">Java memory</tspan><tspan font-style="normal" font-weight="700" font-size="16" x="299.945" y="368">C</tspan><tspan font-style="normal" font-weight="700" font-size="16" x="312.112" y="368">memory</tspan><tspan font-style="normal" font-weight="700" font-size="16" x="35.8217" y="620">Immortal memory</tspan></text></g></svg>