<svg width="677" height="430" xmlns="http://www.w3.org/2000/svg" xmlns:xlink="http://www.w3.org/1999/xlink" overflow="hidden"><defs><clipPath id="clip0"><path d="M332 73 1009 73 1009 503 332 503Z" fill-rule="evenodd" clip-rule="evenodd"/></clipPath></defs><g clip-path="url(#clip0)" transform="translate(-332 -73)"><path d="M333 86.5463C333 79.6172 338.617 74 345.546 74L568.454 74C575.383 74 581 79.6172 581 86.5463L581 436.454C581 443.383 575.383 449 568.454 449L345.546 449C338.617 449 333 443.383 333 436.454Z" fill="#F2F2F2" fill-rule="evenodd"/><path d="M898 77.5412C898 75.5855 899.585 74 901.541 74L964.459 74C966.415 74 968 75.5855 968 77.5412L968 446.459C968 448.415 966.415 450 964.459 450L901.541 450C899.585 450 898 448.415 898 446.459Z" fill="#F2F2F2" fill-rule="evenodd"/><path d="M386 89.9999 386 206.235 386 206.235 368 221 350 206.235 350 206.235 350 89.9999Z" fill="#6CC24A" fill-rule="evenodd"/><text fill="#FFFFFF" font-family="Source Sans Pro,Source Sans Pro_MSFontService,sans-serif" font-weight="400" font-size="15" transform="matrix(6.12323e-17 1 -1 6.12323e-17 362.774 103)">Green thread 1</text><path d="M386 314 386 420.235 386 420.235 368 435 350 420.235 350 420.235 350 314Z" fill="#6CC24A" fill-rule="evenodd"/><text fill="#FFFFFF" font-family="Source Sans Pro,Source Sans Pro_MSFontService,sans-serif" font-weight="400" font-size="17" transform="matrix(6.12323e-17 1 -1 6.12323e-17 361.974 363)">1</text><path d="M438 90 438 206.645 438 206.645 420.5 221 403 206.645 403 206.645 403 90Z" fill="#6CC24A" fill-rule="evenodd"/><text fill="#FFFFFF" font-family="Source Sans Pro,Source Sans Pro_MSFontService,sans-serif" font-weight="400" font-size="15" transform="matrix(6.12323e-17 1 -1 6.12323e-17 415.374 103)">Green thread 2</text><path d="M438 314 438 420.645 438 420.645 420.5 435 403 420.645 403 420.645 403 314Z" fill="#6CC24A" fill-rule="evenodd"/><text fill="#FFFFFF" font-family="Source Sans Pro,Source Sans Pro_MSFontService,sans-serif" font-weight="400" font-size="17" transform="matrix(6.12323e-17 1 -1 6.12323e-17 414.574 363)">2</text><path d="M491 89.9999 491 206.235 491 206.235 473 221 455 206.235 455 206.235 455 89.9999Z" fill="#6CC24A" fill-rule="evenodd"/><text fill="#FFFFFF" font-family="Source Sans Pro,Source Sans Pro_MSFontService,sans-serif" font-weight="400" font-size="15" transform="matrix(6.12323e-17 1 -1 6.12323e-17 467.974 103)">Green thread 1</text><path d="M491 364 491 420.234 491 420.234 473 435 455 420.234 455 420.234 455 364Z" fill="#6CC24A" fill-rule="evenodd"/><text fill="#FFFFFF" font-family="Source Sans Pro,Source Sans Pro_MSFontService,sans-serif" font-weight="400" font-size="17" transform="matrix(6.12323e-17 1 -1 6.12323e-17 467.174 388)">3</text><path d="M564 221 564 299.645 564 299.645 546.5 314 529 299.645 529 299.645 529 221Z" fill="#EE502E" fill-rule="evenodd"/><path d="M951 90.9999 951 421.235 951 421.235 933 436 915 421.235 915 421.235 915 90.9999Z" fill="#EE502E" fill-rule="evenodd"/><path d="M473.5 220 521.509 220 521.509 223 473.5 223ZM520.009 217 529.009 221.5 520.009 226Z" fill="#A9B1B5"/><path d="M2.83702e-06-1.5 48.0091-1.49991 48.0091 1.50009-2.83702e-06 1.5ZM46.5091-4.49991 55.5091 0.000104987 46.5091 4.50009Z" fill="#A9B1B5" transform="matrix(-1 -8.74228e-08 -8.74228e-08 1 547.009 314.5)"/><path d="M3.71268e-07-1.5 416.67-1.4999 416.67 1.5001-3.71268e-07 1.5ZM415.169-4.4999 424.169 0.000104987 415.169 4.5001Z" fill="#A9B1B5" transform="matrix(-1 -8.74228e-08 -8.74228e-08 1 915.669 364.5)"/><text fill="#4B5357" font-family="Source Sans Pro,Source Sans Pro_MSFontService,sans-serif" font-weight="700" font-size="16" transform="translate(426.529 469)">The Java <tspan x="-4.08002" y="19">RTOS task</tspan><tspan x="474.399" y="0">Another C</tspan><tspan x="473.479" y="19">RTOS task</tspan><tspan font-family="Consolas,Consolas_MSFontService,sans-serif" font-weight="400" font-size="14" x="169.647" y="-226">SNI_getCurrentJavaThreadID</tspan><tspan font-family="Consolas,Consolas_MSFontService,sans-serif" font-weight="400" font-size="14" x="368.981" y="-226">() : 3</tspan><tspan font-family="Consolas,Consolas_MSFontService,sans-serif" font-weight="400" font-size="14" x="169.865" y="-172">SNI_suspendCurrentJavaThread</tspan><tspan font-family="Consolas,Consolas_MSFontService,sans-serif" font-weight="400" font-size="14" x="384.532" y="-172">(…)</tspan><tspan font-family="Consolas,Consolas_MSFontService,sans-serif" font-weight="400" font-size="14" x="278.441" y="-131">SNI_resumeJavaThread</tspan><tspan font-family="Consolas,Consolas_MSFontService,sans-serif" font-weight="400" font-size="14" x="431.775" y="-131">(3)</tspan></text><path d="M887.5 332 934.275 332 934.275 335 887.5 335ZM934.275 329C936.76 329 938.775 331.015 938.775 333.5 938.775 335.985 936.76 338 934.275 338 931.79 338 929.775 335.985 929.775 333.5 929.775 331.015 931.79 329 934.275 329Z" fill="#A9B1B5"/><path d="M3.50139e-06-1.5 44.9765-1.49989 44.9765 1.5001-3.50139e-06 1.5ZM44.9765-4.4999C47.4618-4.49989 49.4765-2.48517 49.4765 0.000115491 49.4765 2.4854 47.4618 4.50011 44.9765 4.5001 42.4912 4.5001 40.4765 2.48538 40.4765 9.44827e-05 40.4765-2.48519 42.4912-4.4999 44.9765-4.4999Z" fill="#A9B1B5" transform="matrix(-1 -8.74228e-08 -8.74228e-08 1 591.477 292.5)"/><path d="M3.50139e-06-1.5 44.9765-1.49989 44.9765 1.5001-3.50139e-06 1.5ZM44.9765-4.4999C47.4618-4.49989 49.4765-2.48517 49.4765 0.000115491 49.4765 2.4854 47.4618 4.50011 44.9765 4.5001 42.4912 4.5001 40.4765 2.48538 40.4765 9.44827e-05 40.4765-2.48519 42.4912-4.4999 44.9765-4.4999Z" fill="#A9B1B5" transform="matrix(-1 -8.74228e-08 -8.74228e-08 1 592.477 240.5)"/><path d="M1005 86 1005 431.5 1005 431.5 995.5 441 986 431.5 986 431.5 986 86Z" fill="#717D83" fill-rule="evenodd"/><text fill="#FFFFFF" font-family="Source Sans Pro,Source Sans Pro_MSFontService,sans-serif" font-weight="400" font-size="14" transform="matrix(6.12323e-17 1 -1 6.12323e-17 991.006 244)">Time</text></g></svg>