<?xml version="1.0" encoding="UTF-8" standalone="no"?>
<!--
	SVG

	Copyright 2018 IS2T. All rights reserved.
	IS2T PROPRIETARY/CONFIDENTIAL. Use is subject to license terms.
-->
<svg
   xmlns:dc="http://purl.org/dc/elements/1.1/"
   xmlns:cc="http://creativecommons.org/ns#"
   xmlns:rdf="http://www.w3.org/1999/02/22-rdf-syntax-ns#"
   xmlns:svg="http://www.w3.org/2000/svg"
   xmlns="http://www.w3.org/2000/svg"
   xmlns:sodipodi="http://sodipodi.sourceforge.net/DTD/sodipodi-0.dtd"
   xmlns:inkscape="http://www.inkscape.org/namespaces/inkscape"
   version="1.2"
   width="151.30363"
   height="71.756393"
   viewBox="0 0 4270.1248 2025.1249"
   preserveAspectRatio="xMidYMid"
   xml:space="preserve"
   id="svg6336"
   inkscape:version="0.48.4 r9939"
   sodipodi:docname="font-filter-bold.svg"
   style="fill-rule:evenodd;stroke-width:28.22200012;stroke-linejoin:round"><metadata
   id="metadata6445"><rdf:RDF><cc:Work
       rdf:about=""><dc:format>image/svg+xml</dc:format><dc:type
         rdf:resource="http://purl.org/dc/dcmitype/StillImage" /></cc:Work></rdf:RDF></metadata><defs
   id="defs6443" /><sodipodi:namedview
   pagecolor="#ffffff"
   bordercolor="#666666"
   borderopacity="1"
   objecttolerance="10"
   gridtolerance="10"
   guidetolerance="10"
   inkscape:pageopacity="0"
   inkscape:pageshadow="2"
   inkscape:window-width="640"
   inkscape:window-height="480"
   id="namedview6441"
   showgrid="false"
   fit-margin-top="0"
   fit-margin-left="0"
   fit-margin-right="0"
   fit-margin-bottom="0"
   inkscape:zoom="1"
   inkscape:cx="70.906002"
   inkscape:cy="39.047243"
   inkscape:window-x="665"
   inkscape:window-y="411"
   inkscape:window-maximized="0"
   inkscape:current-layer="svg6336" />
 <g
   visibility="visible"
   id="MasterSlide_1_Default"
   style="visibility:visible"
   transform="translate(-8498.8751,-13926.875)">
  <desc
   id="desc6339">Master slide
  </desc>
  <rect
   x="0"
   y="0"
   width="21000"
   height="29700"
   id="rect6341"
   style="fill:none;stroke:none" />
 </g>
 <g
   visibility="visible"
   id="Slide_1_page1"
   style="visibility:visible"
   transform="translate(-8498.8751,-13926.875)">
  <g
   id="Drawing_1">
   <rect
   x="8524"
   y="13930"
   width="4245"
   height="2022"
   id="rect6345"
   style="fill:none;stroke:none" />
   <path
   d="m 9125,14327 600,0 0,198 -600,0 0,-198 z"
   id="path6347"
   inkscape:connector-curvature="0"
   style="fill:#808080;stroke:none" />
   <path
   d="m 11125,14327 800,0 0,198 -800,0 0,-198 z"
   id="path6349"
   inkscape:connector-curvature="0"
   style="fill:#808080;stroke:none" />
   <path
   d="m 8925,14525 200,0 0,396 -200,0 0,-396 z"
   id="path6351"
   inkscape:connector-curvature="0"
   style="fill:#808080;stroke:none" />
   <path
   d="m 9725,14525 200,0 0,396 -200,0 0,-396 z"
   id="path6353"
   inkscape:connector-curvature="0"
   style="fill:#808080;stroke:none" />
   <path
   d="m 10925,14525 400,0 0,396 -400,0 0,-396 z"
   id="path6355"
   inkscape:connector-curvature="0"
   style="fill:#808080;stroke:none" />
   <path
   d="m 11725,14525 400,0 0,396 -400,0 0,-396 z"
   id="path6357"
   inkscape:connector-curvature="0"
   style="fill:#808080;stroke:none" />
   <path
   d="m 9125,14921 600,0 0,198 -600,0 0,-198 z"
   id="path6359"
   inkscape:connector-curvature="0"
   style="fill:#808080;stroke:none" />
   <path
   d="m 11125,14921 800,0 0,198 -800,0 0,-198 z"
   id="path6361"
   inkscape:connector-curvature="0"
   style="fill:#808080;stroke:none" />
   <path
   d="m 8925,15119 200,0 0,396 -200,0 0,-396 z"
   id="path6363"
   inkscape:connector-curvature="0"
   style="fill:#808080;stroke:none" />
   <path
   d="m 9725,15119 200,0 0,396 -200,0 0,-396 z"
   id="path6365"
   inkscape:connector-curvature="0"
   style="fill:#808080;stroke:none" />
   <path
   d="m 10925,15119 400,0 0,396 -400,0 0,-396 z"
   id="path6367"
   inkscape:connector-curvature="0"
   style="fill:#808080;stroke:none" />
   <path
   d="m 11725,15119 400,0 0,396 -400,0 0,-396 z"
   id="path6369"
   inkscape:connector-curvature="0"
   style="fill:#808080;stroke:none" />
   <path
   d="m 9125,15515 600,0 0,198 -600,0 0,-198 z"
   id="path6371"
   inkscape:connector-curvature="0"
   style="fill:#808080;stroke:none" />
   <path
   d="m 11125,15515 800,0 0,198 -800,0 0,-198 z"
   id="path6373"
   inkscape:connector-curvature="0"
   style="fill:#808080;stroke:none" />
   <path
   d="m 8513,13941 4207,0"
   id="path6375"
   inkscape:connector-curvature="0"
   style="fill:none;stroke:#b3b3b3" />
   <path
   d="m 8514,14126 4206,0"
   id="path6377"
   inkscape:connector-curvature="0"
   style="fill:none;stroke:#b3b3b3" />
   <path
   d="m 8514,14337 4206,0"
   id="path6379"
   inkscape:connector-curvature="0"
   style="fill:none;stroke:#b3b3b3" />
   <path
   d="m 8514,14523 4206,0"
   id="path6381"
   inkscape:connector-curvature="0"
   style="fill:none;stroke:#b3b3b3" />
   <path
   d="m 8514,14734 4206,0"
   id="path6383"
   inkscape:connector-curvature="0"
   style="fill:none;stroke:#b3b3b3" />
   <path
   d="m 8514,14920 4206,0"
   id="path6385"
   inkscape:connector-curvature="0"
   style="fill:none;stroke:#b3b3b3" />
   <path
   d="m 8514,15131 4206,0"
   id="path6387"
   inkscape:connector-curvature="0"
   style="fill:none;stroke:#b3b3b3" />
   <path
   d="m 8514,15316 4206,0"
   id="path6389"
   inkscape:connector-curvature="0"
   style="fill:none;stroke:#b3b3b3" />
   <path
   d="m 8514,15502 4206,0"
   id="path6391"
   inkscape:connector-curvature="0"
   style="fill:none;stroke:#b3b3b3" />
   <path
   d="m 8514,15697 4206,0 0,33 -4206,0 0,-33 z"
   id="path6393"
   inkscape:connector-curvature="0"
   style="fill:#000000;stroke:#000000" />
   <path
   d="m 8514,15899 4206,0"
   id="path6395"
   inkscape:connector-curvature="0"
   style="fill:none;stroke:#b3b3b3" />
   <path
   d="m 8513,13941 0,1958"
   id="path6397"
   inkscape:connector-curvature="0"
   style="fill:none;stroke:#b3b3b3" />
   <path
   d="m 8725,13942 0,1957"
   id="path6399"
   inkscape:connector-curvature="0"
   style="fill:none;stroke:#b3b3b3" />
   <path
   d="m 8937,13942 0,1957"
   id="path6401"
   inkscape:connector-curvature="0"
   style="fill:none;stroke:#b3b3b3" />
   <path
   d="m 9122,13942 0,1957"
   id="path6403"
   inkscape:connector-curvature="0"
   style="fill:none;stroke:#b3b3b3" />
   <path
   d="m 9334,13942 0,1957"
   id="path6405"
   inkscape:connector-curvature="0"
   style="fill:none;stroke:#b3b3b3" />
   <path
   d="m 9519,13942 0,1957"
   id="path6407"
   inkscape:connector-curvature="0"
   style="fill:none;stroke:#b3b3b3" />
   <path
   d="m 9730,13942 0,1957"
   id="path6409"
   inkscape:connector-curvature="0"
   style="fill:none;stroke:#b3b3b3" />
   <path
   d="m 9916,13942 0,1957"
   id="path6411"
   inkscape:connector-curvature="0"
   style="fill:none;stroke:#b3b3b3" />
   <path
   d="m 10127,13942 0,1957"
   id="path6413"
   inkscape:connector-curvature="0"
   style="fill:none;stroke:#b3b3b3" />
   <path
   d="m 10313,13942 0,1957"
   id="path6415"
   inkscape:connector-curvature="0"
   style="fill:none;stroke:#b3b3b3" />
   <path
   d="m 10524,13942 0,1957"
   id="path6417"
   inkscape:connector-curvature="0"
   style="fill:none;stroke:#b3b3b3" />
   <path
   d="m 10736,13942 0,1957"
   id="path6419"
   inkscape:connector-curvature="0"
   style="fill:none;stroke:#b3b3b3" />
   <path
   d="m 10921,13942 0,1957"
   id="path6421"
   inkscape:connector-curvature="0"
   style="fill:none;stroke:#b3b3b3" />
   <path
   d="m 11133,13942 0,1957"
   id="path6423"
   inkscape:connector-curvature="0"
   style="fill:none;stroke:#b3b3b3" />
   <path
   d="m 11318,13942 0,1957"
   id="path6425"
   inkscape:connector-curvature="0"
   style="fill:none;stroke:#b3b3b3" />
   <path
   d="m 11530,13942 0,1957"
   id="path6427"
   inkscape:connector-curvature="0"
   style="fill:none;stroke:#b3b3b3" />
   <path
   d="m 11715,13942 0,1957"
   id="path6429"
   inkscape:connector-curvature="0"
   style="fill:none;stroke:#b3b3b3" />
   <path
   d="m 11927,13942 0,1957"
   id="path6431"
   inkscape:connector-curvature="0"
   style="fill:none;stroke:#b3b3b3" />
   <path
   d="m 12112,13942 0,1957"
   id="path6433"
   inkscape:connector-curvature="0"
   style="fill:none;stroke:#b3b3b3" />
   <path
   d="m 12323,13942 0,1957"
   id="path6435"
   inkscape:connector-curvature="0"
   style="fill:none;stroke:#b3b3b3" />
   <path
   d="m 12535,13942 0,1957"
   id="path6437"
   inkscape:connector-curvature="0"
   style="fill:none;stroke:#b3b3b3" />
   <path
   d="m 12720,13942 0,1957"
   id="path6439"
   inkscape:connector-curvature="0"
   style="fill:none;stroke:#b3b3b3" />
  </g>
 </g>
</svg>
