<?xml version="1.0" encoding="UTF-8" standalone="no"?>
<!--
	SVG

	Copyright 2018 IS2T. All rights reserved.
	IS2T PROPRIETARY/CONFIDENTIAL. Use is subject to license terms.
-->
<svg
   xmlns:dc="http://purl.org/dc/elements/1.1/"
   xmlns:cc="http://creativecommons.org/ns#"
   xmlns:rdf="http://www.w3.org/1999/02/22-rdf-syntax-ns#"
   xmlns:svg="http://www.w3.org/2000/svg"
   xmlns="http://www.w3.org/2000/svg"
   xmlns:sodipodi="http://sodipodi.sourceforge.net/DTD/sodipodi-0.dtd"
   xmlns:inkscape="http://www.inkscape.org/namespaces/inkscape"
   version="1.2"
   width="162.32774"
   height="69.457672"
   viewBox="0 0 4581.2495 1960.2499"
   preserveAspectRatio="xMidYMid"
   xml:space="preserve"
   id="svg5851"
   inkscape:version="0.48.4 r9939"
   sodipodi:docname="font-baseline.svg"
   style="fill-rule:evenodd;stroke-width:28.22200012;stroke-linejoin:round"><metadata
   id="metadata5976"><rdf:RDF><cc:Work
       rdf:about=""><dc:format>image/svg+xml</dc:format><dc:type
         rdf:resource="http://purl.org/dc/dcmitype/StillImage" /></cc:Work></rdf:RDF></metadata><defs
   id="defs5974">


























































  </defs><sodipodi:namedview
   pagecolor="#ffffff"
   bordercolor="#666666"
   borderopacity="1"
   objecttolerance="10"
   gridtolerance="10"
   guidetolerance="10"
   inkscape:pageopacity="0"
   inkscape:pageshadow="2"
   inkscape:window-width="1013"
   inkscape:window-height="512"
   id="namedview5972"
   showgrid="false"
   fit-margin-top="0"
   fit-margin-left="0"
   fit-margin-right="0"
   fit-margin-bottom="0"
   inkscape:zoom="1"
   inkscape:cx="122.92224"
   inkscape:cy="37.421751"
   inkscape:window-x="266"
   inkscape:window-y="466"
   inkscape:window-maximized="0"
   inkscape:current-layer="svg5851" />
 <g
   visibility="visible"
   id="MasterSlide_1_Default"
   style="visibility:visible"
   transform="translate(-12649.876,-13945.875)">
  <desc
   id="desc5854">Master slide
  </desc>
  <rect
   x="0"
   y="0"
   width="21000"
   height="29700"
   id="rect5856"
   style="fill:none;stroke:none" />
 </g>
 <rect
   x="-4732.8755"
   y="3.125"
   width="14503"
   height="1986"
   id="rect5860"
   style="fill:none;stroke:none;visibility:visible" /><path
   d="m 616.12446,198.125 594.00004,0 0,195 -594.00004,0 0,-195 z"
   id="path5862"
   inkscape:connector-curvature="0"
   style="fill:#808080;stroke:none;visibility:visible" /><path
   d="m 2398.1245,198.125 595,0 0,195 -595,0 0,-195 z"
   id="path5864"
   inkscape:connector-curvature="0"
   style="fill:#808080;stroke:none;visibility:visible" /><path
   d="m 418.12446,393.125 198,0 0,390 -198,0 0,-390 z"
   id="path5866"
   inkscape:connector-curvature="0"
   style="fill:#808080;stroke:none;visibility:visible" /><path
   d="m 1210.1245,393.125 198,0 0,390 -198,0 0,-390 z"
   id="path5868"
   inkscape:connector-curvature="0"
   style="fill:#808080;stroke:none;visibility:visible" /><path
   d="m 2200.1245,393.125 198,0 0,390 -198,0 0,-390 z"
   id="path5870"
   inkscape:connector-curvature="0"
   style="fill:#808080;stroke:none;visibility:visible" /><path
   d="m 2993.1245,393.125 198,0 0,390 -198,0 0,-390 z"
   id="path5872"
   inkscape:connector-curvature="0"
   style="fill:#808080;stroke:none;visibility:visible" /><path
   d="m 3983.1245,393.125 198,0 0,390 -198,0 0,-390 z"
   id="path5874"
   inkscape:connector-curvature="0"
   style="fill:#808080;stroke:none;visibility:visible" /><path
   d="m 616.12446,783.125 594.00004,0 0,195 -594.00004,0 0,-195 z"
   id="path5876"
   inkscape:connector-curvature="0"
   style="fill:#808080;stroke:none;visibility:visible" /><path
   d="m 2398.1245,783.125 793,0 0,195 -793,0 0,-195 z"
   id="path5878"
   inkscape:connector-curvature="0"
   style="fill:#808080;stroke:none;visibility:visible" /><path
   d="m 418.12446,978.125 198,0 0,195 -198,0 0,-195 z"
   id="path5880"
   inkscape:connector-curvature="0"
   style="fill:#808080;stroke:none;visibility:visible" /><path
   d="m 1210.1245,978.125 198,0 0,195 -198,0 0,-195 z"
   id="path5882"
   inkscape:connector-curvature="0"
   style="fill:#808080;stroke:none;visibility:visible" /><path
   d="m 2993.1245,978.125 198,0 0,195 -198,0 0,-195 z"
   id="path5884"
   inkscape:connector-curvature="0"
   style="fill:#808080;stroke:none;visibility:visible" /><path
   d="m 3983.1245,978.125 198,0 0,195 -198,0 0,-195 z"
   id="path5886"
   inkscape:connector-curvature="0"
   style="fill:#808080;stroke:none;visibility:visible" /><path
   d="m 418.12446,1173.125 198,0 0,195 -198,0 0,-195 z"
   id="path5888"
   inkscape:connector-curvature="0"
   style="fill:#808080;stroke:none;visibility:visible" /><path
   d="m 1210.1245,1173.125 198,0 0,195 -198,0 0,-195 z"
   id="path5890"
   inkscape:connector-curvature="0"
   style="fill:#808080;stroke:none;visibility:visible" /><path
   d="m 2200.1245,1173.125 198,0 0,195 -198,0 0,-195 z"
   id="path5892"
   inkscape:connector-curvature="0"
   style="fill:#808080;stroke:none;visibility:visible" /><path
   d="m 2993.1245,1173.125 198,0 0,195 -198,0 0,-195 z"
   id="path5894"
   inkscape:connector-curvature="0"
   style="fill:#808080;stroke:none;visibility:visible" /><path
   d="m 3983.1245,1173.125 198,0 0,195 -198,0 0,-195 z"
   id="path5896"
   inkscape:connector-curvature="0"
   style="fill:#808080;stroke:none;visibility:visible" /><path
   d="m 616.12446,1368.125 594.00004,0 0,195 -594.00004,0 0,-195 z"
   id="path5898"
   inkscape:connector-curvature="0"
   style="fill:#808080;stroke:none;visibility:visible" /><path
   d="m 2398.1245,1368.125 595,0 0,195 -595,0 0,-195 z"
   id="path5900"
   inkscape:connector-curvature="0"
   style="fill:#808080;stroke:none;visibility:visible" /><path
   d="m 14.12446,14.125 4553.00004,0"
   id="path5902"
   inkscape:connector-curvature="0"
   style="fill:none;stroke:#b3b3b3;visibility:visible" /><path
   d="m 15.12446,199.125 4551.00004,0"
   id="path5904"
   inkscape:connector-curvature="0"
   style="fill:none;stroke:#b3b3b3;visibility:visible" /><path
   d="m 15.12446,384.125 4551.00004,0"
   id="path5906"
   inkscape:connector-curvature="0"
   style="fill:none;stroke:#b3b3b3;visibility:visible" /><path
   d="m 15.12446,596.125 4551.00004,0"
   id="path5908"
   inkscape:connector-curvature="0"
   style="fill:none;stroke:#b3b3b3;visibility:visible" /><path
   d="m 15.12446,781.125 4551.00004,0"
   id="path5910"
   inkscape:connector-curvature="0"
   style="fill:none;stroke:#b3b3b3;visibility:visible" /><path
   d="m 15.12446,967.125 4551.00004,0"
   id="path5912"
   inkscape:connector-curvature="0"
   style="fill:none;stroke:#b3b3b3;visibility:visible" /><path
   d="m 15.12446,1178.125 4551.00004,0"
   id="path5914"
   inkscape:connector-curvature="0"
   style="fill:none;stroke:#b3b3b3;visibility:visible" /><path
   d="m 15.12446,1363.125 4551.00004,0"
   id="path5916"
   inkscape:connector-curvature="0"
   style="fill:none;stroke:#b3b3b3;visibility:visible" /><path
   d="m 15.12446,1559.125 4551.00004,0 0,33 -4551.00004,0 0,-33 z"
   id="path5918"
   inkscape:connector-curvature="0"
   style="fill:#000000;stroke:#000000;visibility:visible" /><path
   d="m 15.12446,1760.125 4551.00004,0"
   id="path5920"
   inkscape:connector-curvature="0"
   style="fill:none;stroke:#b3b3b3;visibility:visible" /><path
   d="m 14.12446,1946.125 4553.00004,0"
   id="path5922"
   inkscape:connector-curvature="0"
   style="fill:none;stroke:#b3b3b3;visibility:visible" /><path
   d="m 14.12446,14.125 0,1932"
   id="path5924"
   inkscape:connector-curvature="0"
   style="fill:none;stroke:#b3b3b3;visibility:visible" /><path
   d="m 227.12446,15.125 0,1930"
   id="path5926"
   inkscape:connector-curvature="0"
   style="fill:none;stroke:#b3b3b3;visibility:visible" /><path
   d="m 412.12446,15.125 0,1930"
   id="path5928"
   inkscape:connector-curvature="0"
   style="fill:none;stroke:#b3b3b3;visibility:visible" /><path
   d="m 624.12446,15.125 0,1930"
   id="path5930"
   inkscape:connector-curvature="0"
   style="fill:none;stroke:#b3b3b3;visibility:visible" /><path
   d="m 809.12446,15.125 0,1930"
   id="path5932"
   inkscape:connector-curvature="0"
   style="fill:none;stroke:#b3b3b3;visibility:visible" /><path
   d="m 1021.1245,15.125 0,1930"
   id="path5934"
   inkscape:connector-curvature="0"
   style="fill:none;stroke:#b3b3b3;visibility:visible" /><path
   d="m 1206.1245,15.125 0,1930"
   id="path5936"
   inkscape:connector-curvature="0"
   style="fill:none;stroke:#b3b3b3;visibility:visible" /><path
   d="m 1418.1245,15.125 0,1930"
   id="path5938"
   inkscape:connector-curvature="0"
   style="fill:none;stroke:#b3b3b3;visibility:visible" /><path
   d="m 1603.1245,15.125 0,1930"
   id="path5940"
   inkscape:connector-curvature="0"
   style="fill:none;stroke:#b3b3b3;visibility:visible" /><path
   d="m 1815.1245,15.125 0,1930"
   id="path5942"
   inkscape:connector-curvature="0"
   style="fill:none;stroke:#b3b3b3;visibility:visible" /><path
   d="m 2000.1245,15.125 0,1930"
   id="path5944"
   inkscape:connector-curvature="0"
   style="fill:none;stroke:#b3b3b3;visibility:visible" /><path
   d="m 2212.1245,15.125 0,1930"
   id="path5946"
   inkscape:connector-curvature="0"
   style="fill:none;stroke:#b3b3b3;visibility:visible" /><path
   d="m 2397.1245,15.125 0,1930"
   id="path5948"
   inkscape:connector-curvature="0"
   style="fill:none;stroke:#b3b3b3;visibility:visible" /><path
   d="m 2582.1245,15.125 0,1930"
   id="path5950"
   inkscape:connector-curvature="0"
   style="fill:none;stroke:#b3b3b3;visibility:visible" /><path
   d="m 2795.1245,15.125 0,1930"
   id="path5952"
   inkscape:connector-curvature="0"
   style="fill:none;stroke:#b3b3b3;visibility:visible" /><path
   d="m 2980.1245,15.125 0,1930"
   id="path5954"
   inkscape:connector-curvature="0"
   style="fill:none;stroke:#b3b3b3;visibility:visible" /><path
   d="m 3191.1245,15.125 0,1930"
   id="path5956"
   inkscape:connector-curvature="0"
   style="fill:none;stroke:#b3b3b3;visibility:visible" /><path
   d="m 3377.1245,15.125 0,1930"
   id="path5958"
   inkscape:connector-curvature="0"
   style="fill:none;stroke:#b3b3b3;visibility:visible" /><path
   d="m 3588.1245,15.125 0,1930"
   id="path5960"
   inkscape:connector-curvature="0"
   style="fill:none;stroke:#b3b3b3;visibility:visible" /><path
   d="m 3774.1245,15.125 0,1930"
   id="path5962"
   inkscape:connector-curvature="0"
   style="fill:none;stroke:#b3b3b3;visibility:visible" /><path
   d="m 3985.1245,15.125 0,1930"
   id="path5964"
   inkscape:connector-curvature="0"
   style="fill:none;stroke:#b3b3b3;visibility:visible" /><path
   d="m 4170.1245,15.125 0,1930"
   id="path5966"
   inkscape:connector-curvature="0"
   style="fill:none;stroke:#b3b3b3;visibility:visible" /><path
   d="m 4382.1245,15.125 0,1930"
   id="path5968"
   inkscape:connector-curvature="0"
   style="fill:none;stroke:#b3b3b3;visibility:visible" /><path
   d="m 4567.1245,14.125 0,1932"
   id="path5970"
   inkscape:connector-curvature="0"
   style="fill:none;stroke:#b3b3b3;visibility:visible" />
</svg>
