<?xml version="1.0" encoding="UTF-8"?><svg id="Calque_2" xmlns="http://www.w3.org/2000/svg" viewBox="0 0 14 14"><defs><style>.cls-1{fill:#212121;}.cls-2{fill:none;stroke:#212121;stroke-linecap:round;stroke-linejoin:round;stroke-width:1.5px;}</style></defs><path class="cls-1" d="M7,2.19c2.86,0,5.2,2.33,5.2,5.2s-2.33,5.2-5.2,5.2S1.8,10.25,1.8,7.39,4.14,2.19,7,2.19M7,.77C3.35.77.39,3.74.39,7.39s2.96,6.61,6.61,6.61,6.61-2.96,6.61-6.61S10.65.77,7,.77h0Z"/><path class="cls-1" d="M6.91,3.65h0v3.72l2.69,2.56c.63-.67,1.02-1.57,1.02-2.56h0c0-2.05-1.66-3.72-3.72-3.72Z"/><line class="cls-2" x1="4.94" y1=".77" x2="9.06" y2=".77"/></svg>