<?xml version="1.0" encoding="UTF-8" standalone="no"?>
<!--
	SVG

	Copyright 2018 IS2T. All rights reserved.
	IS2T PROPRIETARY/CONFIDENTIAL. Use is subject to license terms.
-->
<svg
   xmlns:dc="http://purl.org/dc/elements/1.1/"
   xmlns:cc="http://creativecommons.org/ns#"
   xmlns:rdf="http://www.w3.org/1999/02/22-rdf-syntax-ns#"
   xmlns:svg="http://www.w3.org/2000/svg"
   xmlns="http://www.w3.org/2000/svg"
   xmlns:sodipodi="http://sodipodi.sourceforge.net/DTD/sodipodi-0.dtd"
   xmlns:inkscape="http://www.inkscape.org/namespaces/inkscape"
   version="1.2"
   width="157.57973"
   height="77.855316"
   viewBox="0 0 4447.2501 2197.2501"
   preserveAspectRatio="xMidYMid"
   xml:space="preserve"
   id="svg3356"
   inkscape:version="0.48.4 r9939"
   sodipodi:docname="font-filter-underline.svg"
   style="fill-rule:evenodd;stroke-width:28.22200012;stroke-linejoin:round"><metadata
   id="metadata3479"><rdf:RDF><cc:Work
       rdf:about=""><dc:format>image/svg+xml</dc:format><dc:type
         rdf:resource="http://purl.org/dc/dcmitype/StillImage" /></cc:Work></rdf:RDF></metadata><defs
   id="defs3477" /><sodipodi:namedview
   pagecolor="#ffffff"
   bordercolor="#666666"
   borderopacity="1"
   objecttolerance="10"
   gridtolerance="10"
   guidetolerance="10"
   inkscape:pageopacity="0"
   inkscape:pageshadow="2"
   inkscape:window-width="640"
   inkscape:window-height="480"
   id="namedview3475"
   showgrid="false"
   fit-margin-top="0"
   fit-margin-left="0"
   fit-margin-right="0"
   fit-margin-bottom="0"
   inkscape:zoom="0.22425739"
   inkscape:cx="74.484743"
   inkscape:cy="41.56742"
   inkscape:window-x="616"
   inkscape:window-y="495"
   inkscape:window-maximized="0"
   inkscape:current-layer="svg3356" />
 <g
   visibility="visible"
   id="MasterSlide_1_Default"
   style="visibility:visible"
   transform="translate(-8397.8751,-13825.875)">
  <desc
   id="desc3359">Master slide
  </desc>
  <rect
   x="0"
   y="0"
   width="21000"
   height="29700"
   id="rect3361"
   style="fill:none;stroke:none" />
 </g>
 <g
   visibility="visible"
   id="Slide_1_page1"
   style="visibility:visible"
   transform="translate(-8397.8751,-13825.875)">
  <g
   id="Drawing_1">
   <rect
   x="9024"
   y="14228"
   width="601"
   height="200"
   id="rect3365"
   style="fill:#808080;stroke:none" />
   <rect
   x="11024"
   y="14228"
   width="601"
   height="200"
   id="rect3367"
   style="fill:#808080;stroke:none" />
   <rect
   x="8824"
   y="14427"
   width="201"
   height="399"
   id="rect3369"
   style="fill:#808080;stroke:none" />
   <rect
   x="9624"
   y="14427"
   width="201"
   height="399"
   id="rect3371"
   style="fill:#808080;stroke:none" />
   <rect
   x="10824"
   y="14427"
   width="201"
   height="399"
   id="rect3373"
   style="fill:#808080;stroke:none" />
   <rect
   x="11624"
   y="14427"
   width="201"
   height="399"
   id="rect3375"
   style="fill:#808080;stroke:none" />
   <rect
   x="9024"
   y="14825"
   width="601"
   height="200"
   id="rect3377"
   style="fill:#808080;stroke:none" />
   <rect
   x="11024"
   y="14825"
   width="601"
   height="200"
   id="rect3379"
   style="fill:#808080;stroke:none" />
   <rect
   x="8824"
   y="15024"
   width="201"
   height="399"
   id="rect3381"
   style="fill:#808080;stroke:none" />
   <rect
   x="9624"
   y="15024"
   width="201"
   height="399"
   id="rect3383"
   style="fill:#808080;stroke:none" />
   <rect
   x="10824"
   y="15024"
   width="201"
   height="399"
   id="rect3385"
   style="fill:#808080;stroke:none" />
   <rect
   x="11624"
   y="15024"
   width="201"
   height="399"
   id="rect3387"
   style="fill:#808080;stroke:none" />
   <rect
   x="9024"
   y="15422"
   width="601"
   height="200"
   id="rect3389"
   style="fill:#808080;stroke:none" />
   <rect
   x="11024"
   y="15422"
   width="601"
   height="200"
   id="rect3391"
   style="fill:#808080;stroke:none" />
   <rect
   x="10624"
   y="15820"
   width="1401"
   height="200"
   id="rect3393"
   style="fill:#808080;stroke:none" />
   <line
   x1="8412"
   y1="13840"
   x2="12831"
   y2="13840"
   id="line3395"
   style="fill:#b3b3b3;stroke:#b3b3b3" />
   <line
   x1="8413"
   y1="14025"
   x2="12830"
   y2="14025"
   id="line3397"
   style="fill:#b3b3b3;stroke:#b3b3b3" />
   <line
   x1="8413"
   y1="14236"
   x2="12830"
   y2="14236"
   id="line3399"
   style="fill:#b3b3b3;stroke:#b3b3b3" />
   <line
   x1="8413"
   y1="14422"
   x2="12830"
   y2="14422"
   id="line3401"
   style="fill:#b3b3b3;stroke:#b3b3b3" />
   <line
   x1="8413"
   y1="14633"
   x2="12830"
   y2="14633"
   id="line3403"
   style="fill:#b3b3b3;stroke:#b3b3b3" />
   <line
   x1="8413"
   y1="14819"
   x2="12830"
   y2="14819"
   id="line3405"
   style="fill:#b3b3b3;stroke:#b3b3b3" />
   <line
   x1="8413"
   y1="15030"
   x2="12830"
   y2="15030"
   id="line3407"
   style="fill:#b3b3b3;stroke:#b3b3b3" />
   <line
   x1="8413"
   y1="15215"
   x2="12830"
   y2="15215"
   id="line3409"
   style="fill:#b3b3b3;stroke:#b3b3b3" />
   <line
   x1="8413"
   y1="15427"
   x2="12830"
   y2="15427"
   id="line3411"
   style="fill:#b3b3b3;stroke:#b3b3b3" />
   <path
   d="m 8413,15596 4417,0 0,33 -4417,0 z"
   id="path3413"
   inkscape:connector-curvature="0"
   style="fill:#000000;stroke:#000000" />
   <line
   x1="8413"
   y1="15824"
   x2="12830"
   y2="15824"
   id="line3415"
   style="fill:#b3b3b3;stroke:#b3b3b3" />
   <line
   x1="8412"
   y1="16009"
   x2="12011"
   y2="16009"
   id="line3417"
   style="fill:#b3b3b3;stroke:#b3b3b3" />
   <line
   x1="12222"
   y1="16009"
   x2="12831"
   y2="16009"
   id="line3419"
   style="fill:#b3b3b3;stroke:#b3b3b3" />
   <line
   x1="8412"
   y1="13840"
   x2="8412"
   y2="16009"
   id="line3421"
   style="fill:#b3b3b3;stroke:#b3b3b3" />
   <line
   x1="8624"
   y1="13841"
   x2="8624"
   y2="16008"
   id="line3423"
   style="fill:#b3b3b3;stroke:#b3b3b3" />
   <line
   x1="8836"
   y1="13841"
   x2="8836"
   y2="16008"
   id="line3425"
   style="fill:#b3b3b3;stroke:#b3b3b3" />
   <line
   x1="9021"
   y1="13841"
   x2="9021"
   y2="16008"
   id="line3427"
   style="fill:#b3b3b3;stroke:#b3b3b3" />
   <line
   x1="9233"
   y1="13841"
   x2="9233"
   y2="16008"
   id="line3429"
   style="fill:#b3b3b3;stroke:#b3b3b3" />
   <line
   x1="9418"
   y1="13841"
   x2="9418"
   y2="16008"
   id="line3431"
   style="fill:#b3b3b3;stroke:#b3b3b3" />
   <line
   x1="9629"
   y1="13841"
   x2="9629"
   y2="16008"
   id="line3433"
   style="fill:#b3b3b3;stroke:#b3b3b3" />
   <line
   x1="9815"
   y1="13841"
   x2="9815"
   y2="16008"
   id="line3435"
   style="fill:#b3b3b3;stroke:#b3b3b3" />
   <line
   x1="10026"
   y1="13841"
   x2="10026"
   y2="16008"
   id="line3437"
   style="fill:#b3b3b3;stroke:#b3b3b3" />
   <line
   x1="10212"
   y1="13841"
   x2="10212"
   y2="16008"
   id="line3439"
   style="fill:#b3b3b3;stroke:#b3b3b3" />
   <line
   x1="10423"
   y1="13841"
   x2="10423"
   y2="16008"
   id="line3441"
   style="fill:#b3b3b3;stroke:#b3b3b3" />
   <line
   x1="10635"
   y1="13841"
   x2="10635"
   y2="16008"
   id="line3443"
   style="fill:#b3b3b3;stroke:#b3b3b3" />
   <line
   x1="10820"
   y1="13841"
   x2="10820"
   y2="15426"
   id="line3445"
   style="fill:#b3b3b3;stroke:#b3b3b3" />
   <line
   x1="10820"
   y1="15630"
   x2="10820"
   y2="16008"
   id="line3447"
   style="fill:#b3b3b3;stroke:#b3b3b3" />
   <line
   x1="11032"
   y1="13841"
   x2="11032"
   y2="16008"
   id="line3449"
   style="fill:#b3b3b3;stroke:#b3b3b3" />
   <line
   x1="11217"
   y1="13841"
   x2="11217"
   y2="16008"
   id="line3451"
   style="fill:#b3b3b3;stroke:#b3b3b3" />
   <line
   x1="11429"
   y1="13841"
   x2="11429"
   y2="16008"
   id="line3453"
   style="fill:#b3b3b3;stroke:#b3b3b3" />
   <line
   x1="11614"
   y1="13841"
   x2="11614"
   y2="16008"
   id="line3455"
   style="fill:#b3b3b3;stroke:#b3b3b3" />
   <line
   x1="11826"
   y1="13841"
   x2="11826"
   y2="15426"
   id="line3457"
   style="fill:#b3b3b3;stroke:#b3b3b3" />
   <line
   x1="11826"
   y1="15630"
   x2="11826"
   y2="16008"
   id="line3459"
   style="fill:#b3b3b3;stroke:#b3b3b3" />
   <line
   x1="12011"
   y1="13841"
   x2="12011"
   y2="15426"
   id="line3461"
   style="fill:#b3b3b3;stroke:#b3b3b3" />
   <line
   x1="12011"
   y1="15630"
   x2="12011"
   y2="16009"
   id="line3463"
   style="fill:#b3b3b3;stroke:#b3b3b3" />
   <line
   x1="12222"
   y1="13841"
   x2="12222"
   y2="15426"
   id="line3465"
   style="fill:#b3b3b3;stroke:#b3b3b3" />
   <line
   x1="12222"
   y1="15630"
   x2="12222"
   y2="16009"
   id="line3467"
   style="fill:#b3b3b3;stroke:#b3b3b3" />
   <line
   x1="12434"
   y1="13841"
   x2="12434"
   y2="16008"
   id="line3469"
   style="fill:#b3b3b3;stroke:#b3b3b3" />
   <line
   x1="12619"
   y1="13841"
   x2="12619"
   y2="16008"
   id="line3471"
   style="fill:#b3b3b3;stroke:#b3b3b3" />
   <line
   x1="12831"
   y1="13840"
   x2="12831"
   y2="16009"
   id="line3473"
   style="fill:#b3b3b3;stroke:#b3b3b3" />
  </g>
 </g>
</svg>
