<svg xmlns="http://www.w3.org/2000/svg" viewBox="0 -0.95 123.8 85.95">
	<path d="M1 84l.24-.06 1.24-.19 1.24-.32 1.24-.45 1.24-.57 1.24-.7 1.24-.82 1.24-.96 1.24-1.08 1.24-1.2 1.24-1.34 1.24-1.46 1.24-1.59 1.24-1.71 1.24-1.84 1.24-1.97 1.24-2.1 1.24-2.22 1.24-2.35 1.24-2.48 1.24-2.6 1.24-2.74 1.24-2.85 1.24-2.99L31 44.3l1.24-3.24 1.24-3.37 1.24-3.49 1.24-3.62 1.24-3.75 1.24-3.88 1.24-4 1.24-4.13 1.24-4.25 1.24-4.39 1.24-4.51 1.24-.23 1.24 2.17 1.24 2.04 1.24 1.91 1.24 1.78L52.08 11l1.24 1.53 1.24 1.41 1.24 1.27 1.24 1.15 1.24 1.02 1.24.9 1.24.77 1.24.64 1.24.51 1.24.39 1.24.26 1.24.13 1.24.01 1.24-.12 1.24-.25 1.24-.38 1.24-.5 1.24-.63 1.24-.76 1.24-.88 1.24-1.01 1.24-1.14 1.24-1.26 1.24-1.39 1.24-1.52 1.24-1.65 1.24-1.77 1.24-1.9 1.24-2.03 1.24-2.15L90.52.31l1.24 1.06L93 2.3l1.24.8 1.24.68 1.24.54 1.24.43 1.24.29 1.24.17 1.24.04 1.24-.09 1.24-.21 1.24-.34 1.24-.47 1.24-.6 1.24-.72 1.24-.85L111.6 1l1.24-.95 1.24.5 1.24.38 1.24.25 1.24.12 1.24-.01 1.24-.13 1.24-.26 1.24-.39" stroke="#0000ff" stroke-width="01" fill="none"/>
</svg>