<svg xmlns="http://www.w3.org/2000/svg" viewBox="0 -0.72 123.8 85.72">
	<path d="M1 84l.24-.45 1.24-.2 1.24.06 1.24.31 1.24-.22 1.24-.91 1.24-.66 1.24-.4 1.24-.15 1.24.1 1.24.36 1.24.61 1.24.87 1.24-.14 1.24-2.09 1.24-1.84 1.24-1.58 1.24-1.33 1.24-1.07 1.24-.83 1.24-.56 1.24-.31 1.24-.06 1.24.2 1.24.45 1.24.7 1.24.96 1.24 1.21 1.24 1.47 1.24 1.72 1.24 1.98 1.24.96 1.24-4.44 1.24-4.2 1.24-3.93 1.24-3.69 1.24-3.43 1.24-3.17 1.24-2.93 1.24-2.67 1.24-2.41 1.24-2.16 1.24-1.9 1.24-1.66 1.24-1.39 1.24-1.15 1.24-.89 1.24-.63 1.24-.38L62 42l1.24-.13 1.24-.38 1.24-.63 1.24-.89 1.24-1.15 1.24-1.39 1.24-1.66 1.24-1.9 1.24-2.16 1.24-2.42 1.24-2.66 1.24-2.93 1.24-3.17 1.24-3.43 1.24-3.69 1.24-3.93 1.24-4.2L84.32.84l1.24.96 1.24 1.98 1.24 1.72 1.24 1.47 1.24 1.21 1.24.96 1.24.7 1.24.45 1.24.2 1.24-.06 1.24-.31 1.24-.57 1.24-.82 1.24-1.07 1.24-1.33 1.24-1.58 1.24-1.84 1.24-2.09 1.24-.14 1.24.87 1.24.61 1.24.36 1.24.1 1.24-.15 1.24-.4 1.24-.66L117.8.5l1.24-.22 1.24.31 1.24.06 1.24-.2" stroke="#008800" stroke-width="01" fill="none"/>
</svg>