<svg xmlns="http://www.w3.org/2000/svg" viewBox="0 6.33999 123.8 109.8">
	<path d="M1 84l.24.03 1.24-.02 1.24-.02 1.24-.02 1.24-.03 1.24-.02 1.24-.03 1.24-.02 1.24-.02 1.24-.01 1.24-.01h1.24l1.24.01 1.24.02 1.24.02 1.24.04 1.24.05 1.24.06 1.24.06 1.24.07 1.24.08 1.24.06 1.24.07 1.24.05 1.24.04 1.24.03h1.24l1.24-.03 1.24-.05 1.24-.08 1.24-.11 1.24-.14 1.24-.16 1.24-.19 1.24-.19 1.24-.21 1.24-.19 1.24-.18 1.24-.16 1.24-.11 1.24-.07h1.24l1.24.07 1.24.15 1.24.23 1.24.32 1.24.39 1.24.46 1.24.52 1.24.55 1.24.57 1.24.56 1.24.51 1.24.44 1.24.32 1.24.18 1.24.01 1.24-.2 1.24-.42 1.24-.66 1.24-.88 1.24-1.11 1.24-1.31 1.24-1.46 1.24-1.57 1.24-1.61 1.24-1.58 1.24-1.45 1.24-1.23 1.24-.92 1.24-.51 1.24-.01 1.24.56 1.24 1.19L93 76.58l1.24 2.5 1.24 3.14 1.24 3.69 1.24 4.14 1.24 4.45 1.24 4.56 1.24 4.46 1.24 4.1 1.24 3.48 1.24 2.6 1.24 1.43 1.24.04 1.24-1.59 1.24-3.36 1.24-5.22 1.24-7.09 1.24-8.87 1.24-10.44 1.24-11.73 1.24-12.57 1.24-12.9 1.24-12.6 1.24-11.6 1.24-9.86" stroke="#ff0000" stroke-width="01" fill="none"/>
</svg>