<svg xmlns="http://www.w3.org/2000/svg" viewBox="0 -32.17 123.8 117.2">
	<path d="M1 84l.24-7.34 1.24-9.86 1.24-11.6 1.24-12.6L6.2 29.7l1.24-12.57L8.68 5.4 9.92-5.04l1.24-8.87L12.4-21l1.24-5.22 1.24-3.36 1.24-1.59 1.24.04 1.24 1.43 1.24 2.6 1.24 3.48 1.24 4.1 1.24 4.46 1.24 4.56 1.24 4.45 1.24 4.14 1.24 3.69 1.24 3.14L31 7.42l1.24 1.85 1.24 1.19 1.24.56 1.24-.01 1.24-.51 1.24-.92 1.24-1.23 1.24-1.45 1.24-1.58 1.24-1.61 1.24-1.57L45.88.68l1.24-1.31 1.24-1.11 1.24-.89 1.24-.65 1.24-.42 1.24-.2 1.24.01 1.24.18 1.24.32 1.24.44 1.24.51 1.24.56 1.24.57 1.24.55 1.24.52 1.24.46 1.24.39 1.24.32 1.24.23 1.24.15 1.24.07h1.24l1.24-.07 1.24-.11 1.24-.16 1.24-.18 1.24-.19L80.6.46l1.24-.19 1.24-.19 1.24-.16 1.24-.14 1.24-.11 1.24-.08 1.24-.05 1.24-.03h1.24L93-.46l1.24.04 1.24.05 1.24.07 1.24.06 1.24.08 1.24.07 1.24.06 1.24.06 1.24.05 1.24.04 1.24.02 1.24.02 1.24.01h1.24l1.24-.01 1.24-.01 1.24-.02 1.24-.02 1.24-.03 1.24-.02 1.24-.03 1.24-.02 1.24-.02 1.24-.02" stroke="#0000ff" stroke-width="01" fill="none"/>
</svg>