<svg xmlns="http://www.w3.org/2000/svg" viewBox="0 -10.87 123.8 105.7">
	<path d="M1 84l.24-.02 1.24-.02 1.24-.01 1.24-.02 1.24-.01 1.24-.01h1.24l1.24.01 1.24.02 1.24.03 1.24.05 1.24.06 1.24.07 1.24.08 1.24.08 1.24.07 1.24.04 1.24.02 1.24-.03 1.24-.08 1.24-.15 1.24-.21 1.24-.28 1.24-.33 1.24-.37 1.24-.37 1.24-.33 1.24-.26 1.24-.12 1.24.08 1.24.32 1.24.62 1.24.93 1.24 1.25 1.24 1.52 1.24 1.71 1.24 1.78 1.24 1.66 1.24 1.34 1.24.75 1.24-.11 1.24-1.23 1.24-2.57 1.24-4.05 1.24-5.56 1.24-6.92 1.24-7.97 1.24-8.45 1.24-8.16L62 42l1.24-6.85 1.24-8.16 1.24-8.45 1.24-7.97 1.24-6.92 1.24-5.56 1.24-4.05 1.24-2.57 1.24-1.23 1.24-.11 1.24.75 1.24 1.34 1.24 1.66 1.24 1.78 1.24 1.72 1.24 1.51L83.08.14l1.24.93 1.24.62 1.24.32 1.24.08 1.24-.12 1.24-.26 1.24-.33L93 1.01l1.24-.37 1.24-.33 1.24-.28 1.24-.21 1.24-.15 1.24-.08 1.24-.03 1.24.02 1.24.04 1.24.07 1.24.08 1.24.08 1.24.07 1.24.06 1.24.05 1.24.03 1.24.02 1.24.01h1.24l1.24-.01 1.24-.01 1.24-.02 1.24-.01 1.24-.02" stroke="#008800" stroke-width="01" fill="none"/>
</svg>