<svg width="440" height="330" xmlns="http://www.w3.org/2000/svg" xmlns:xlink="http://www.w3.org/1999/xlink" overflow="hidden"><defs><clipPath id="clip0"><path d="M362 219 802 219 802 549 362 549Z" fill-rule="evenodd" clip-rule="evenodd"/></clipPath></defs><g clip-path="url(#clip0)" transform="translate(-362 -219)"><path d="M527 367.358C527 359.981 532.981 354 540.358 354L626.642 354C634.019 354 640 359.981 640 367.358L640 408.642C640 416.019 634.019 422 626.642 422L540.358 422C532.981 422 527 416.019 527 408.642Z" fill="#5B6D76" fill-rule="evenodd"/><text fill="#FFFFFF" font-family="Source Sans Pro,Source Sans Pro_MSFontService,sans-serif" font-weight="700" font-size="16" transform="translate(568.474 384)">Font <tspan x="-13.5" y="19">Designer</tspan></text><path d="M650.5 387 712.311 387 712.311 390 650.5 390ZM710.811 384 719.811 388.5 710.811 393Z" fill="#A9B1B5"/><path d="M0 0 57 0 57 63.4998 47.4998 73 0 73Z" fill="#FFFFFF" fill-rule="evenodd" transform="matrix(1 0 0 -1 378.5 294.5)"/><path d="M47.4998 73 49.3998 65.3998 57 63.4998Z" fill="#CDCDCD" fill-rule="evenodd" transform="matrix(1 0 0 -1 378.5 294.5)"/><path d="M47.4998 73 49.3998 65.3998 57 63.4998 47.4998 73 0 73 0 0 57 0 57 63.4998" stroke="#4B5357" stroke-width="2.66667" stroke-linejoin="round" stroke-miterlimit="10" fill="none" fill-rule="evenodd" transform="matrix(1 0 0 -1 378.5 294.5)"/><path d="M0 0 56 0 56 63.6665 46.6665 73 0 73Z" fill="#FFFFFF" fill-rule="evenodd" transform="matrix(1 0 0 -1 372.5 300.5)"/><path d="M46.6665 73 48.5332 65.5332 56 63.6665Z" fill="#CDCDCD" fill-rule="evenodd" transform="matrix(1 0 0 -1 372.5 300.5)"/><path d="M46.6665 73 48.5332 65.5332 56 63.6665 46.6665 73 0 73 0 0 56 0 56 63.6665" stroke="#4B5357" stroke-width="2.66667" stroke-linejoin="round" stroke-miterlimit="10" fill="none" fill-rule="evenodd" transform="matrix(1 0 0 -1 372.5 300.5)"/><path d="M0 0 56 0 56 63.6665 46.6665 73 0 73Z" fill="#FFFFFF" fill-rule="evenodd" transform="matrix(1 0 0 -1 366.5 309.5)"/><path d="M46.6665 73 48.5332 65.5332 56 63.6665Z" fill="#CDCDCD" fill-rule="evenodd" transform="matrix(1 0 0 -1 366.5 309.5)"/><path d="M46.6665 73 48.5332 65.5332 56 63.6665 46.6665 73 0 73 0 0 56 0 56 63.6665" stroke="#4B5357" stroke-width="2.66667" stroke-linejoin="round" stroke-miterlimit="10" fill="none" fill-rule="evenodd" transform="matrix(1 0 0 -1 366.5 309.5)"/><text fill="#4B5357" font-family="Source Sans Pro,Source Sans Pro_MSFontService,sans-serif" font-weight="400" font-size="19" transform="translate(378.656 273)">font<tspan x="0.753326" y="22">*.</tspan>ttf</text><path d="M0 0 57 0 57 63.4998 47.4998 73 0 73Z" fill="#FFFFFF" fill-rule="evenodd" transform="matrix(1 0 0 -1 378.5 412.5)"/><path d="M47.4998 73 49.3998 65.3998 57 63.4998Z" fill="#CDCDCD" fill-rule="evenodd" transform="matrix(1 0 0 -1 378.5 412.5)"/><path d="M47.4998 73 49.3998 65.3998 57 63.4998 47.4998 73 0 73 0 0 57 0 57 63.4998" stroke="#4B5357" stroke-width="2.66667" stroke-linejoin="round" stroke-miterlimit="10" fill="none" fill-rule="evenodd" transform="matrix(1 0 0 -1 378.5 412.5)"/><path d="M0 0 56 0 56 63.6665 46.6665 73 0 73Z" fill="#FFFFFF" fill-rule="evenodd" transform="matrix(1 0 0 -1 372.5 418.5)"/><path d="M46.6665 73 48.5332 65.5332 56 63.6665Z" fill="#CDCDCD" fill-rule="evenodd" transform="matrix(1 0 0 -1 372.5 418.5)"/><path d="M46.6665 73 48.5332 65.5332 56 63.6665 46.6665 73 0 73 0 0 56 0 56 63.6665" stroke="#4B5357" stroke-width="2.66667" stroke-linejoin="round" stroke-miterlimit="10" fill="none" fill-rule="evenodd" transform="matrix(1 0 0 -1 372.5 418.5)"/><path d="M0 0 56 0 56 63.6665 46.6665 73 0 73Z" fill="#FFFFFF" fill-rule="evenodd" transform="matrix(1 0 0 -1 366.5 427.5)"/><path d="M46.6665 73 48.5332 65.5332 56 63.6665Z" fill="#CDCDCD" fill-rule="evenodd" transform="matrix(1 0 0 -1 366.5 427.5)"/><path d="M46.6665 73 48.5332 65.5332 56 63.6665 46.6665 73 0 73 0 0 56 0 56 63.6665" stroke="#4B5357" stroke-width="2.66667" stroke-linejoin="round" stroke-miterlimit="10" fill="none" fill-rule="evenodd" transform="matrix(1 0 0 -1 366.5 427.5)"/><text fill="#4B5357" font-family="Source Sans Pro,Source Sans Pro_MSFontService,sans-serif" font-weight="400" font-size="19" transform="translate(378.656 392)">font<tspan x="0.0866699" y="22">*.</tspan>ejf</text><path d="M0 0 57 0 57 63.4998 47.4998 73 0 73Z" fill="#FFFFFF" fill-rule="evenodd" transform="matrix(1 0 0 -1 378.5 530.5)"/><path d="M47.4998 73 49.3998 65.3998 57 63.4998Z" fill="#CDCDCD" fill-rule="evenodd" transform="matrix(1 0 0 -1 378.5 530.5)"/><path d="M47.4998 73 49.3998 65.3998 57 63.4998 47.4998 73 0 73 0 0 57 0 57 63.4998" stroke="#4B5357" stroke-width="2.66667" stroke-linejoin="round" stroke-miterlimit="10" fill="none" fill-rule="evenodd" transform="matrix(1 0 0 -1 378.5 530.5)"/><path d="M0 0 56 0 56 64.6665 46.6665 74 0 74Z" fill="#FFFFFF" fill-rule="evenodd" transform="matrix(1 0 0 -1 372.5 537.5)"/><path d="M46.6665 74 48.5331 66.5331 56 64.6665Z" fill="#CDCDCD" fill-rule="evenodd" transform="matrix(1 0 0 -1 372.5 537.5)"/><path d="M46.6665 74 48.5331 66.5331 56 64.6665 46.6665 74 0 74 0 0 56 0 56 64.6665" stroke="#4B5357" stroke-width="2.66667" stroke-linejoin="round" stroke-miterlimit="10" fill="none" fill-rule="evenodd" transform="matrix(1 0 0 -1 372.5 537.5)"/><path d="M0 0 56 0 56 63.6665 46.6665 73 0 73Z" fill="#FFFFFF" fill-rule="evenodd" transform="matrix(1 0 0 -1 366.5 545.5)"/><path d="M46.6665 73 48.5332 65.5332 56 63.6665Z" fill="#CDCDCD" fill-rule="evenodd" transform="matrix(1 0 0 -1 366.5 545.5)"/><path d="M46.6665 73 48.5332 65.5332 56 63.6665 46.6665 73 0 73 0 0 56 0 56 63.6665" stroke="#4B5357" stroke-width="2.66667" stroke-linejoin="round" stroke-miterlimit="10" fill="none" fill-rule="evenodd" transform="matrix(1 0 0 -1 366.5 545.5)"/><text fill="#4B5357" font-family="Source Sans Pro,Source Sans Pro_MSFontService,sans-serif" font-weight="400" font-size="19" transform="translate(378.659 510)">font<tspan x="-5.08667" y="22">*.</tspan>png</text><path d="M0 0 56 0 56 63.6665 46.6665 73 0 73Z" fill="#FFFFFF" fill-rule="evenodd" transform="matrix(1 0 0 -1 743.5 412.5)"/><path d="M46.6665 73 48.5332 65.5332 56 63.6665Z" fill="#CDCDCD" fill-rule="evenodd" transform="matrix(1 0 0 -1 743.5 412.5)"/><path d="M46.6665 73 48.5332 65.5332 56 63.6665 46.6665 73 0 73 0 0 56 0 56 63.6665" stroke="#4B5357" stroke-width="2.66667" stroke-linejoin="round" stroke-miterlimit="10" fill="none" fill-rule="evenodd" transform="matrix(1 0 0 -1 743.5 412.5)"/><path d="M0 0 57 0 57 63.4998 47.4998 73 0 73Z" fill="#FFFFFF" fill-rule="evenodd" transform="matrix(1 0 0 -1 736.5 419.5)"/><path d="M47.4998 73 49.3998 65.3998 57 63.4998Z" fill="#CDCDCD" fill-rule="evenodd" transform="matrix(1 0 0 -1 736.5 419.5)"/><path d="M47.4998 73 49.3998 65.3998 57 63.4998 47.4998 73 0 73 0 0 57 0 57 63.4998" stroke="#4B5357" stroke-width="2.66667" stroke-linejoin="round" stroke-miterlimit="10" fill="none" fill-rule="evenodd" transform="matrix(1 0 0 -1 736.5 419.5)"/><path d="M0 0 57 0 57 64.4998 47.4998 74 0 74Z" fill="#FFFFFF" fill-rule="evenodd" transform="matrix(1 0 0 -1 730.5 428.5)"/><path d="M47.4998 74 49.3999 66.3999 57 64.4998Z" fill="#CDCDCD" fill-rule="evenodd" transform="matrix(1 0 0 -1 730.5 428.5)"/><path d="M47.4998 74 49.3999 66.3999 57 64.4998 47.4998 74 0 74 0 0 57 0 57 64.4998" stroke="#4B5357" stroke-width="2.66667" stroke-linejoin="round" stroke-miterlimit="10" fill="none" fill-rule="evenodd" transform="matrix(1 0 0 -1 730.5 428.5)"/><text fill="#4B5357" font-family="Source Sans Pro,Source Sans Pro_MSFontService,sans-serif" font-weight="400" font-size="19" transform="translate(743.203 392)">font<tspan x="0.0866699" y="22">*.</tspan>ejf</text><path d="M449.5 387 511.311 387 511.311 390 449.5 390ZM509.811 384 518.811 388.5 509.811 393Z" fill="#A9B1B5"/><path d="M451.464 304.35 511.378 354.569 509.451 356.868 449.536 306.65ZM512.155 351.306 516.162 360.536 506.374 358.204Z" fill="#A9B1B5"/><path d="M0.96254-1.15044 60.9903 49.073 59.0653 51.3739-0.96254 1.15044ZM61.765 45.8097 65.7801 55.0362 55.9898 52.7123Z" fill="#A9B1B5" transform="matrix(1 0 0 -1 450.5 471.536)"/></g></svg>