<svg width="144" height="194" xmlns="http://www.w3.org/2000/svg" xmlns:xlink="http://www.w3.org/1999/xlink" overflow="hidden"><defs><clipPath id="clip0"><path d="M654 138 798 138 798 332 654 332Z" fill-rule="evenodd" clip-rule="evenodd"/></clipPath></defs><g clip-path="url(#clip0)" transform="translate(-654 -138)"><path d="M654 301.268C654 297.254 657.254 294 661.268 294L790.732 294C794.746 294 798 297.254 798 301.268L798 323.732C798 327.746 794.746 331 790.732 331L661.268 331C657.254 331 654 327.746 654 323.732Z" fill="#5B6D76" fill-rule="evenodd"/><text fill="#FFFFFF" font-family="Source Sans Pro,Source Sans Pro_MSFontService,sans-serif" font-weight="700" font-size="16" transform="translate(700.897 318)">Map file</text><path d="M654 145.465C654 141.342 657.342 138 661.465 138L790.535 138C794.658 138 798 141.342 798 145.465L798 168.535C798 172.658 794.658 176 790.535 176L661.465 176C657.342 176 654 172.658 654 168.535Z" fill="#5B6D76" fill-rule="evenodd"/><text fill="#FFFFFF" font-family="Source Sans Pro,Source Sans Pro_MSFontService,sans-serif" font-weight="700" font-size="16" transform="translate(665.897 162)">ELF Executable file</text><path d="M680.5 214.054C680.5 206.569 686.569 200.5 694.054 200.5L758.946 200.5C766.432 200.5 772.5 206.569 772.5 214.054L772.5 255.946C772.5 263.432 766.432 269.5 758.946 269.5L694.054 269.5C686.569 269.5 680.5 263.432 680.5 255.946Z" stroke="#CBD3D7" stroke-width="1.33333" stroke-linejoin="round" stroke-miterlimit="10" fill="#F2F2F2" fill-rule="evenodd"/><text fill="#4B5357" font-family="Source Sans Pro,Source Sans Pro_MSFontService,sans-serif" font-weight="300" font-size="15" transform="translate(702.647 222)">Execute <tspan x="-9.16669" y="17">ELF to Map </tspan><tspan x="10" y="35">Tool</tspan></text><path d="M1.50003 7.49999 1.5001 24.5152-1.49989 24.5152-1.49997 7.50001ZM-4.49996 9.00002 0 0 4.50004 8.99998Z" fill="#A9B1B5" transform="matrix(1 0 0 -1 726.5 294.015)"/><path d="M1.50003 7.49999 1.5001 24.5152-1.49989 24.5152-1.49997 7.50001ZM-4.49996 9.00002 0 0 4.50004 8.99998Z" fill="#A9B1B5" transform="matrix(1 0 0 -1 726.5 201.015)"/></g></svg>