<svg width="366" height="432" xmlns="http://www.w3.org/2000/svg" xmlns:xlink="http://www.w3.org/1999/xlink" overflow="hidden"><defs><clipPath id="clip0"><path d="M457 194 823 194 823 626 457 626Z" fill-rule="evenodd" clip-rule="evenodd"/></clipPath></defs><g clip-path="url(#clip0)" transform="translate(-457 -194)"><path d="M7.51081 1.44441 110.95 43.6483 109.817 46.426 6.37749 4.22211ZM6.63311 7.5665 0 0 10.0331-0.766584Z" fill="#A9B1B5" transform="matrix(1 0 0 -1 530.5 436.537)"/><path d="M743.373 435.093 639.933 392.889 641.067 390.111 744.506 432.315ZM744.25 428.971 750.883 436.537 740.85 437.304Z" fill="#A9B1B5"/><path d="M633.372 314.093 529.933 271.889 531.067 269.111 634.506 311.315ZM634.25 307.971 640.883 315.537 630.85 316.304Z" fill="#A9B1B5"/><path d="M7.51087 1.44444 110.95 43.6483 109.817 46.426 6.37755 4.22213ZM6.63311 7.5665 0 0 10.0331-0.766588Z" fill="#A9B1B5" transform="matrix(1 0 0 -1 640.5 315.537)"/><path d="M1.50002 7.5 1.5001 37.9457-1.49989 37.9457-1.49998 7.5ZM-4.49997 9.00001 0 0 4.50002 8.99999Z" fill="#A9B1B5" transform="matrix(1 0 0 -1 530.5 549.446)"/><path d="M568.5 330.43C568.5 322.184 575.184 315.5 583.43 315.5L697.571 315.5C705.816 315.5 712.5 322.184 712.5 330.43L712.5 376.571C712.5 384.816 705.816 391.5 697.571 391.5L583.43 391.5C575.184 391.5 568.5 384.816 568.5 376.571Z" stroke="#CBD3D7" stroke-width="1.33333" stroke-linejoin="round" stroke-miterlimit="10" fill="#F2F2F2" fill-rule="evenodd"/><text fill="#4B5357" font-family="Source Sans Pro,Source Sans Pro_MSFontService,sans-serif" font-weight="300" font-size="15" transform="translate(581.583 349)">1. Build the <tspan x="69.6667" y="0">MicroEJ</tspan><tspan x="24.5" y="17">Application</tspan></text><path d="M458 208.929C458 200.684 464.684 194 472.929 194L586.071 194C594.316 194 601 200.684 601 208.929L601 255.071C601 263.316 594.316 270 586.071 270L472.929 270C464.684 270 458 263.316 458 255.071Z" fill="#5B6D76" fill-rule="evenodd"/><text fill="#FFFFFF" font-family="Source Sans Pro,Source Sans Pro_MSFontService,sans-serif" font-weight="700" font-size="16" transform="translate(503.863 228)">MicroEJ<tspan x="-11.2466" y="19">Application</tspan></text><path d="M458 450.733C458 442.596 464.596 436 472.733 436L586.267 436C594.404 436 601 442.596 601 450.733L601 496.267C601 504.404 594.404 511 586.267 511L472.733 511C464.596 511 458 504.404 458 496.267Z" fill="#5B6D76" fill-rule="evenodd"/><text fill="#FFFFFF" font-family="Source Sans Pro,Source Sans Pro_MSFontService,sans-serif" font-weight="700" font-size="16" transform="translate(504.45 479)">Map file</text><path d="M679 450.733C679 442.596 685.596 436 693.733 436L807.267 436C815.404 436 822 442.596 822 450.733L822 496.267C822 504.404 815.404 511 807.267 511L693.733 511C685.596 511 679 504.404 679 496.267Z" fill="#5B6D76" fill-rule="evenodd"/><text fill="#FFFFFF" font-family="Source Sans Pro,Source Sans Pro_MSFontService,sans-serif" font-weight="700" font-size="16" transform="translate(703.55 479)">Executable file</text><path d="M679 208.929C679 200.684 685.684 194 693.929 194L807.071 194C815.316 194 822 200.684 822 208.929L822 255.071C822 263.316 815.316 270 807.071 270L693.929 270C685.684 270 679 263.316 679 255.071Z" fill="#5B6D76" fill-rule="evenodd"/><text fill="#FFFFFF" font-family="Source Sans Pro,Source Sans Pro_MSFontService,sans-serif" font-weight="700" font-size="16" transform="translate(722.217 238)">Platform</text><path d="M458.5 564.43C458.5 556.184 465.184 549.5 473.43 549.5L586.571 549.5C594.816 549.5 601.5 556.184 601.5 564.43L601.5 610.571C601.5 618.816 594.816 625.5 586.571 625.5L473.43 625.5C465.184 625.5 458.5 618.816 458.5 610.571Z" stroke="#CBD3D7" stroke-width="1.33333" stroke-linejoin="round" stroke-miterlimit="10" fill="#F2F2F2" fill-rule="evenodd"/><text fill="#4B5357" font-family="Source Sans Pro,Source Sans Pro_MSFontService,sans-serif" font-weight="300" font-size="15" transform="translate(481.2 583)">2. Open Memory <tspan x="9" y="17">Map Analyzer</tspan></text></g></svg>